<?xml version="1.0" encoding="UTF-8"?>
<svg version="1.1" xmlns="http://www.w3.org/2000/svg" width="500" height="500">
<path d="M0 0 C3.5774613 1.20809557 5.75147674 2.86090991 8.609375 5.3203125 C9.52976562 6.10019531 10.45015625 6.88007812 11.3984375 7.68359375 C15.98170871 11.80299914 15.98170871 11.80299914 17.984375 14.0078125 C17.984375 14.6678125 17.984375 15.3278125 17.984375 16.0078125 C18.644375 16.0078125 19.304375 16.0078125 19.984375 16.0078125 C19.984375 16.6678125 19.984375 17.3278125 19.984375 18.0078125 C20.52835938 18.20761719 21.07234375 18.40742187 21.6328125 18.61328125 C24.95893737 20.58575065 27.16980586 23.38174058 29.609375 26.3203125 C30.09921875 26.88943359 30.5890625 27.45855469 31.09375 28.04492188 C33.75885705 31.216108 35.70580106 33.99910713 36.984375 38.0078125 C37.644375 38.0078125 38.304375 38.0078125 38.984375 38.0078125 C39.48066406 38.89082031 39.97695313 39.77382812 40.48828125 40.68359375 C41.17396476 41.89612437 41.86020513 43.10834019 42.546875 44.3203125 C42.91039062 44.96403809 43.27390625 45.60776367 43.6484375 46.27099609 C45.78076912 50.01279229 48.03547724 53.58671806 50.484375 57.1328125 C63.06691166 76.72479881 68.38438087 101.02969781 67.984375 124.0078125 C68.644375 124.0078125 69.304375 124.0078125 69.984375 124.0078125 C69.984375 123.3478125 69.984375 122.6878125 69.984375 122.0078125 C70.644375 122.0078125 71.304375 122.0078125 71.984375 122.0078125 C72.21125 121.4715625 72.438125 120.9353125 72.671875 120.3828125 C76.1793939 114.03587354 81.49641683 109.59338828 86.984375 105.0078125 C87.93828125 104.20085937 88.8921875 103.39390625 89.875 102.5625 C97.72418691 96.0078125 97.72418691 96.0078125 99.984375 96.0078125 C99.984375 95.3478125 99.984375 94.6878125 99.984375 94.0078125 C102.06072759 92.56771145 104.11715926 91.27610024 106.296875 90.0078125 C106.96549561 89.61480957 107.63411621 89.22180664 108.32299805 88.81689453 C128.33985241 77.17614736 151.31466041 64.19129823 174.984375 63.0078125 C176.984375 64.0078125 176.984375 64.0078125 177.546875 65.66015625 C180.48913705 81.02822142 181.33487582 96.30501952 181.30004883 111.92041016 C181.29688541 114.87309656 181.32047382 117.82477975 181.34570312 120.77734375 C181.46365204 157.00386509 171.39048812 189.24723661 151.984375 219.6953125 C151.51547852 220.43289795 151.04658203 221.1704834 150.56347656 221.93041992 C149.42789304 223.66195534 148.21343517 225.3413264 146.984375 227.0078125 C146.324375 227.0078125 145.664375 227.0078125 144.984375 227.0078125 C144.79875 227.6678125 144.613125 228.3278125 144.421875 229.0078125 C142.37628726 233.27686518 139.41252857 236.74944956 135.984375 240.0078125 C135.324375 240.0078125 134.664375 240.0078125 133.984375 240.0078125 C133.984375 240.6678125 133.984375 241.3278125 133.984375 242.0078125 C133.324375 242.0078125 132.664375 242.0078125 131.984375 242.0078125 C131.984375 242.6678125 131.984375 243.3278125 131.984375 244.0078125 C131.324375 244.0078125 130.664375 244.0078125 129.984375 244.0078125 C129.984375 244.6678125 129.984375 245.3278125 129.984375 246.0078125 C129.324375 246.0078125 128.664375 246.0078125 127.984375 246.0078125 C127.76523437 246.57242188 127.54609375 247.13703125 127.3203125 247.71875 C125.55579961 250.74215513 123.33526722 252.44771391 120.609375 254.6328125 C119.65289062 255.40882813 118.69640625 256.18484375 117.7109375 256.984375 C115.49456923 258.62918698 113.49614712 259.9007281 110.984375 261.0078125 C110.984375 261.6678125 110.984375 262.3278125 110.984375 263.0078125 C108.9972043 264.59999858 107.01301338 266.06267417 104.921875 267.5078125 C104.29498779 267.94706055 103.66810059 268.38630859 103.0222168 268.83886719 C101.0159533 270.23794907 99.00146293 271.62439008 96.984375 273.0078125 C96.33823242 273.45318359 95.69208984 273.89855469 95.02636719 274.35742188 C88.20548142 279.04310393 81.37618823 283.52964749 74.046875 287.390625 C66.95718908 291.13441323 59.98244171 295.09616098 52.984375 299.0078125 C52.35063965 299.36133789 51.7169043 299.71486328 51.06396484 300.07910156 C43.47904352 304.32035574 36.0867378 308.78644718 28.74487305 313.4309082 C24.12089834 316.34125581 19.41813092 319.01289422 14.58203125 321.55859375 C10.73372629 323.70554283 7.1183543 326.18706857 3.4921875 328.6875 C0.6704127 330.1731073 -0.87449528 330.43284985 -4.015625 330.0078125 C-5.005625 329.3478125 -5.995625 328.6878125 -7.015625 328.0078125 C-7.015625 327.3478125 -7.015625 326.6878125 -7.015625 326.0078125 C-7.72050049 325.74967773 -8.42537598 325.49154297 -9.15161133 325.22558594 C-12.25860673 323.90449711 -14.97316987 322.30652945 -17.83984375 320.5234375 C-19.50756836 319.49089844 -19.50756836 319.49089844 -21.20898438 318.4375 C-22.37380013 317.71110138 -23.53851319 316.98453806 -24.703125 316.2578125 C-26.977078 314.84508338 -29.25227644 313.43437262 -31.52734375 312.0234375 C-32.63053955 311.33902588 -33.73373535 310.65461426 -34.87036133 309.94946289 C-42.31949045 305.35092809 -49.85970389 300.9252243 -57.453125 296.5703125 C-63.58794722 293.03968167 -69.61553209 289.40615874 -75.55078125 285.546875 C-78.13201906 283.93513538 -80.76518923 282.49625289 -83.453125 281.0703125 C-89.58300413 277.77226486 -95.31499849 273.99299356 -101.015625 270.0078125 C-102.14750244 269.21769775 -102.14750244 269.21769775 -103.30224609 268.41162109 C-105.79717377 266.66187402 -108.28278773 264.89966653 -110.765625 263.1328125 C-111.57717041 262.56103271 -112.38871582 261.98925293 -113.22485352 261.40014648 C-113.97565186 260.86075439 -114.7264502 260.3213623 -115.5 259.765625 C-116.17772461 259.2823877 -116.85544922 258.79915039 -117.55371094 258.30126953 C-118.03614258 257.87442871 -118.51857422 257.44758789 -119.015625 257.0078125 C-119.015625 256.3478125 -119.015625 255.6878125 -119.015625 255.0078125 C-119.58796875 254.75 -120.1603125 254.4921875 -120.75 254.2265625 C-123.22691495 252.89415308 -125.1497416 251.35725132 -127.265625 249.5078125 C-127.97203125 248.899375 -128.6784375 248.2909375 -129.40625 247.6640625 C-131.015625 246.0078125 -131.015625 246.0078125 -131.015625 244.0078125 C-131.60859375 243.75 -132.2015625 243.4921875 -132.8125 243.2265625 C-135.19223465 241.91011355 -136.52541292 240.58200468 -138.265625 238.5078125 C-138.78640625 237.899375 -139.3071875 237.2909375 -139.84375 236.6640625 C-141.015625 235.0078125 -141.015625 235.0078125 -141.015625 233.0078125 C-141.675625 233.0078125 -142.335625 233.0078125 -143.015625 233.0078125 C-144.81678046 230.81549702 -146.49073785 228.62312897 -148.140625 226.3203125 C-148.6341748 225.63549805 -149.12772461 224.95068359 -149.63623047 224.24511719 C-173.42935565 190.89921828 -183.30084304 154.54932444 -183.140625 113.7578125 C-183.13874176 113.03103302 -183.13685852 112.30425354 -183.13491821 111.55545044 C-183.085718 95.36590725 -182.41250479 79.88128222 -179.015625 64.0078125 C-152.84084134 60.7659815 -121.89629757 80.60162251 -101.0078125 94.4140625 C-100.35039062 94.94 -99.69296875 95.4659375 -99.015625 96.0078125 C-99.015625 96.6678125 -99.015625 97.3278125 -99.015625 98.0078125 C-98.45359375 98.265625 -97.8915625 98.5234375 -97.3125 98.7890625 C-94.74857921 100.14951027 -92.56336135 101.73570212 -90.265625 103.5078125 C-89.46640625 104.11625 -88.6671875 104.7246875 -87.84375 105.3515625 C-87.24046875 105.898125 -86.6371875 106.4446875 -86.015625 107.0078125 C-86.015625 107.6678125 -86.015625 108.3278125 -86.015625 109.0078125 C-85.14164063 109.39453125 -85.14164063 109.39453125 -84.25 109.7890625 C-81.8353347 111.10615267 -80.19822323 112.55869634 -78.265625 114.5078125 C-77.65203125 115.11625 -77.0384375 115.7246875 -76.40625 116.3515625 C-75.015625 118.0078125 -75.015625 118.0078125 -75.015625 120.0078125 C-74.355625 120.0078125 -73.695625 120.0078125 -73.015625 120.0078125 C-73.015625 120.6678125 -73.015625 121.3278125 -73.015625 122.0078125 C-72.355625 122.0078125 -71.695625 122.0078125 -71.015625 122.0078125 C-70.91765625 121.15703125 -70.8196875 120.30625 -70.71875 119.4296875 C-66.0553483 81.64005307 -52.42464204 51.36984795 -27.29296875 22.64453125 C-25.03786577 20.11502894 -25.03786577 20.11502894 -23.33203125 17.65234375 C-22.89761719 17.10964844 -22.46320313 16.56695312 -22.015625 16.0078125 C-21.355625 16.0078125 -20.695625 16.0078125 -20.015625 16.0078125 C-20.015625 15.3478125 -20.015625 14.6878125 -20.015625 14.0078125 C-19.355625 14.0078125 -18.695625 14.0078125 -18.015625 14.0078125 C-18.015625 13.3478125 -18.015625 12.6878125 -18.015625 12.0078125 C-17.355625 12.0078125 -16.695625 12.0078125 -16.015625 12.0078125 C-16.015625 11.3478125 -16.015625 10.6878125 -16.015625 10.0078125 C-15.355625 10.0078125 -14.695625 10.0078125 -14.015625 10.0078125 C-14.015625 9.3478125 -14.015625 8.6878125 -14.015625 8.0078125 C-11.8203125 6.02734375 -11.8203125 6.02734375 -8.890625 3.8203125 C-7.46363281 2.71623047 -7.46363281 2.71623047 -6.0078125 1.58984375 C-3.015625 0.0078125 -3.015625 0.0078125 0 0 Z " fill="#627BF5" transform="translate(247.015625,78.9921875)"/>
<path d="M0 0 C3.5774613 1.20809557 5.75147674 2.86090991 8.609375 5.3203125 C9.52976562 6.10019531 10.45015625 6.88007812 11.3984375 7.68359375 C15.98170871 11.80299914 15.98170871 11.80299914 17.984375 14.0078125 C17.984375 14.6678125 17.984375 15.3278125 17.984375 16.0078125 C18.644375 16.0078125 19.304375 16.0078125 19.984375 16.0078125 C19.984375 16.6678125 19.984375 17.3278125 19.984375 18.0078125 C20.52835937 18.20761719 21.07234375 18.40742187 21.6328125 18.61328125 C24.95893737 20.58575065 27.16980586 23.38174058 29.609375 26.3203125 C30.09921875 26.88943359 30.5890625 27.45855469 31.09375 28.04492188 C33.75885705 31.216108 35.70580106 33.99910713 36.984375 38.0078125 C37.644375 38.0078125 38.304375 38.0078125 38.984375 38.0078125 C39.72880859 39.33232422 39.72880859 39.33232422 40.48828125 40.68359375 C41.17396476 41.89612437 41.86020513 43.10834019 42.546875 44.3203125 C42.91039062 44.96403809 43.27390625 45.60776367 43.6484375 46.27099609 C45.78076912 50.01279229 48.03547724 53.58671806 50.484375 57.1328125 C63.06691166 76.72479881 68.38438087 101.02969781 67.984375 124.0078125 C68.644375 124.0078125 69.304375 124.0078125 69.984375 124.0078125 C69.984375 123.3478125 69.984375 122.6878125 69.984375 122.0078125 C70.644375 122.0078125 71.304375 122.0078125 71.984375 122.0078125 C72.21125 121.4715625 72.438125 120.9353125 72.671875 120.3828125 C76.1793939 114.03587354 81.49641683 109.59338828 86.984375 105.0078125 C87.93828125 104.20085937 88.8921875 103.39390625 89.875 102.5625 C97.72418691 96.0078125 97.72418691 96.0078125 99.984375 96.0078125 C99.984375 95.3478125 99.984375 94.6878125 99.984375 94.0078125 C102.06072759 92.56771145 104.11715926 91.27610024 106.296875 90.0078125 C106.96549561 89.61480957 107.63411621 89.22180664 108.32299805 88.81689453 C128.33985241 77.17614736 151.31466041 64.19129823 174.984375 63.0078125 C176.984375 64.0078125 176.984375 64.0078125 177.546875 65.66015625 C180.48913705 81.02822142 181.33487582 96.30501952 181.30004883 111.92041016 C181.29688541 114.87309656 181.32047382 117.82477975 181.34570312 120.77734375 C181.46365204 157.00386509 171.39048812 189.24723661 151.984375 219.6953125 C151.51547852 220.43289795 151.04658203 221.1704834 150.56347656 221.93041992 C149.42789304 223.66195534 148.21343517 225.3413264 146.984375 227.0078125 C146.324375 227.0078125 145.664375 227.0078125 144.984375 227.0078125 C144.79875 227.6678125 144.613125 228.3278125 144.421875 229.0078125 C142.37628726 233.27686518 139.41252857 236.74944956 135.984375 240.0078125 C135.324375 240.0078125 134.664375 240.0078125 133.984375 240.0078125 C133.984375 240.6678125 133.984375 241.3278125 133.984375 242.0078125 C133.324375 242.0078125 132.664375 242.0078125 131.984375 242.0078125 C131.984375 242.6678125 131.984375 243.3278125 131.984375 244.0078125 C131.324375 244.0078125 130.664375 244.0078125 129.984375 244.0078125 C129.984375 244.6678125 129.984375 245.3278125 129.984375 246.0078125 C129.324375 246.0078125 128.664375 246.0078125 127.984375 246.0078125 C127.76523437 246.57242188 127.54609375 247.13703125 127.3203125 247.71875 C125.55579961 250.74215513 123.33526722 252.44771391 120.609375 254.6328125 C119.65289062 255.40882813 118.69640625 256.18484375 117.7109375 256.984375 C115.49456923 258.62918698 113.49614712 259.9007281 110.984375 261.0078125 C110.984375 261.6678125 110.984375 262.3278125 110.984375 263.0078125 C108.9972043 264.59999858 107.01301338 266.06267417 104.921875 267.5078125 C104.29498779 267.94706055 103.66810059 268.38630859 103.0222168 268.83886719 C101.0159533 270.23794907 99.00146293 271.62439008 96.984375 273.0078125 C96.33823242 273.45318359 95.69208984 273.89855469 95.02636719 274.35742188 C88.20548142 279.04310393 81.37618823 283.52964749 74.046875 287.390625 C66.95718908 291.13441323 59.98244171 295.09616098 52.984375 299.0078125 C52.03377197 299.53810059 52.03377197 299.53810059 51.06396484 300.07910156 C43.48148115 304.31899269 36.09473772 308.78765927 28.75146484 313.42431641 C20.75035223 318.45263724 12.46510489 322.84745444 3.984375 327.0078125 C3.984375 326.0178125 3.984375 325.0278125 3.984375 324.0078125 C4.644375 324.0078125 5.304375 324.0078125 5.984375 324.0078125 C6.24863281 323.30011719 6.51289063 322.59242188 6.78515625 321.86328125 C10.16000943 313.82739306 15.19157552 306.54501022 20.24609375 299.484375 C22.63130508 296.08611886 24.8214018 292.57635773 27.03125 289.0625 C29.73970806 284.8264716 32.5546832 280.66418506 35.36035156 276.4921875 C37.70159919 272.99192408 39.93644968 269.46665847 42.046875 265.8203125 C44.87505599 260.99810502 48.22549495 256.65926418 51.6171875 252.22265625 C54.93523645 247.71646106 57.91492454 243.0241573 60.8984375 238.29296875 C63.18150882 234.6973452 65.56106707 231.17908572 67.98828125 227.6796875 C69.15498723 226.0458043 69.15498723 226.0458043 68.984375 224.0078125 C68.324375 225.6578125 67.664375 227.3078125 66.984375 229.0078125 C66.324375 229.0078125 65.664375 229.0078125 64.984375 229.0078125 C64.55125 229.8740625 64.55125 229.8740625 64.109375 230.7578125 C63.738125 231.5003125 63.366875 232.2428125 62.984375 233.0078125 C62.71625 233.6265625 62.448125 234.2453125 62.171875 234.8828125 C60.8465876 237.25437943 59.18113369 239.17431498 57.41796875 241.23046875 C54.23100543 245.18160856 51.1960508 249.48388702 48.99609375 254.06640625 C47.89174312 256.18556557 46.60278262 257.69338625 44.984375 259.4453125 C43.00217957 261.67169142 41.96341341 263.061381 40.859375 265.8828125 C40.570625 266.5840625 40.281875 267.2853125 39.984375 268.0078125 C37.859375 268.8203125 37.859375 268.8203125 35.984375 269.0078125 C35.654375 270.6578125 35.324375 272.3078125 34.984375 274.0078125 C34.324375 274.0078125 33.664375 274.0078125 32.984375 274.0078125 C33.479375 275.4928125 33.479375 275.4928125 33.984375 277.0078125 C31.38109447 280.65240525 29.28389303 283.41539842 24.984375 285.0078125 C25.314375 286.3278125 25.644375 287.6478125 25.984375 289.0078125 C25.324375 289.0078125 24.664375 289.0078125 23.984375 289.0078125 C23.8915625 289.8121875 23.8915625 289.8121875 23.796875 290.6328125 C22.84902936 293.40343821 21.26853116 295.081796 19.3671875 297.265625 C15.98559773 301.52604601 13.69133391 306.6050656 11.25390625 311.44140625 C10.95081543 312.03107178 10.64772461 312.6207373 10.33544922 313.22827148 C9.45622561 314.94090133 8.59300741 316.66171918 7.73046875 318.3828125 C5.984375 321.0078125 5.984375 321.0078125 3.76953125 321.8828125 C3.18042969 321.9240625 2.59132813 321.9653125 1.984375 322.0078125 C0.4157052 318.52439987 -0.26438796 315.81729422 -0.25613403 312.00358391 C-0.26025708 310.52012515 -0.26025708 310.52012515 -0.26446342 309.00669754 C-0.2572735 307.92762669 -0.25008358 306.84855585 -0.24267578 305.73678589 C-0.2429735 304.58462967 -0.24327122 303.43247345 -0.24357796 302.24540341 C-0.24242936 299.05122242 -0.23230617 295.85721428 -0.21843815 292.66306782 C-0.2056833 289.21643221 -0.20455125 285.76979095 -0.2020874 282.32313538 C-0.19631413 276.35037731 -0.18343498 270.37766868 -0.16595459 264.40493393 C-0.14083343 255.75739857 -0.1286896 247.10988152 -0.12008786 238.46231569 C-0.10595115 224.41626888 -0.0843487 210.37024508 -0.05664062 196.32421875 C-0.054985 195.48358769 -0.05332938 194.64295663 -0.05162358 193.77685191 C-0.03814044 186.95953367 -0.02429573 180.14221617 -0.01041794 173.32489872 C0.00168327 167.37447707 0.01364584 161.42405517 0.02539062 155.47363281 C0.02704688 154.63584612 0.02870313 153.79805942 0.03040957 152.93488525 C0.0578148 138.94851708 0.07731631 124.96214853 0.09121132 110.97576058 C0.10015798 102.35451213 0.11620556 93.73333269 0.14150095 85.11211641 C0.1583983 79.19898343 0.16814448 73.28586628 0.17235136 67.37271075 C0.17503193 63.96477523 0.18098675 60.55692896 0.19586945 57.14902306 C0.21035026 53.44620741 0.21237489 49.74358025 0.21142578 46.04074097 C0.2186157 44.97505445 0.22580563 43.90936794 0.23321342 42.8113879 C0.21684777 36.82992444 -0.33664257 31.26353966 -1.56779671 25.40606892 C-2.66174254 19.54765697 -1.98709541 13.83663493 -1.015625 8.0078125 C-6.54801246 8.42274156 -10.82845603 10.43168972 -15.015625 14.0078125 C-16.08109398 16.49733765 -16.08109398 16.49733765 -16.015625 19.0078125 C-16.34045918 20.34324189 -16.6707105 21.67742801 -17.015625 23.0078125 C-17.015625 22.3478125 -17.015625 21.6878125 -17.015625 21.0078125 C-17.36625 21.4203125 -17.716875 21.8328125 -18.078125 22.2578125 C-20.015625 24.0078125 -20.015625 24.0078125 -23.515625 25.8828125 C-27.60774825 28.16479318 -29.01540292 30.80817157 -30.9375 35.03515625 C-31.27265625 35.74800781 -31.6078125 36.46085937 -31.953125 37.1953125 C-32.25089844 37.86949219 -32.54867187 38.54367188 -32.85546875 39.23828125 C-34.015625 41.0078125 -34.015625 41.0078125 -36.10546875 41.95703125 C-36.73582031 42.30378906 -37.36617187 42.65054688 -38.015625 43.0078125 C-38.56426819 45.16170993 -38.56426819 45.16170993 -38.640625 47.6328125 C-39.39659475 52.57514307 -41.05096043 54.33829402 -45.015625 57.3203125 C-45.9025 57.91457031 -46.789375 58.50882813 -47.703125 59.12109375 C-50.34385669 61.27560964 -50.98969486 62.80752296 -52.015625 66.0078125 C-52.53125 66.9565625 -53.046875 67.9053125 -53.578125 68.8828125 C-55.15046356 72.30093981 -55.64296633 75.28122579 -56.015625 79.0078125 C-56.675625 79.0078125 -57.335625 79.0078125 -58.015625 79.0078125 C-58.20898438 79.58789062 -58.40234375 80.16796875 -58.6015625 80.765625 C-58.86195313 81.54679687 -59.12234375 82.32796875 -59.390625 83.1328125 C-59.66390625 83.9578125 -59.9371875 84.7828125 -60.21875 85.6328125 C-60.83650901 87.47397662 -61.48281893 89.30557341 -62.140625 91.1328125 C-63.13708841 94.12428976 -63.13708841 94.12428976 -63.515625 97.8203125 C-63.680625 98.8721875 -63.845625 99.9240625 -64.015625 101.0078125 C-65.005625 101.5028125 -65.005625 101.5028125 -66.015625 102.0078125 C-66.67117619 104.53514485 -66.67117619 104.53514485 -67.015625 107.0078125 C-67.345625 107.0078125 -67.675625 107.0078125 -68.015625 107.0078125 C-68.27294065 101.31659585 -67.38745458 96.48779732 -65.890625 91.0078125 C-65.6647168 90.17403076 -65.43880859 89.34024902 -65.20605469 88.48120117 C-58.21854003 63.46809722 -44.27789807 42.06093983 -27.29296875 22.64453125 C-25.03786577 20.11502894 -25.03786577 20.11502894 -23.33203125 17.65234375 C-22.89761719 17.10964844 -22.46320313 16.56695312 -22.015625 16.0078125 C-21.355625 16.0078125 -20.695625 16.0078125 -20.015625 16.0078125 C-20.015625 15.3478125 -20.015625 14.6878125 -20.015625 14.0078125 C-19.355625 14.0078125 -18.695625 14.0078125 -18.015625 14.0078125 C-18.015625 13.3478125 -18.015625 12.6878125 -18.015625 12.0078125 C-17.355625 12.0078125 -16.695625 12.0078125 -16.015625 12.0078125 C-16.015625 11.3478125 -16.015625 10.6878125 -16.015625 10.0078125 C-15.355625 10.0078125 -14.695625 10.0078125 -14.015625 10.0078125 C-14.015625 9.3478125 -14.015625 8.6878125 -14.015625 8.0078125 C-11.8203125 6.02734375 -11.8203125 6.02734375 -8.890625 3.8203125 C-7.93929687 3.08425781 -6.98796875 2.34820312 -6.0078125 1.58984375 C-3.015625 0.0078125 -3.015625 0.0078125 0 0 Z " fill="#B1BAF9" transform="translate(247.015625,78.9921875)"/>
<path d="M0 0 C0.33 0 0.66 0 1 0 C1.90967372 6.95113623 2.13715606 13.73103584 2.11352539 20.73667908 C2.11374868 22.46731443 2.11374868 22.46731443 2.11397648 24.23291212 C2.11328419 28.08359763 2.10545202 31.93423493 2.09765625 35.78491211 C2.0951711 38.551432 2.09422104 41.31795188 2.0932312 44.08447266 C2.09035155 50.03315267 2.08392418 55.98182018 2.07516479 61.93049431 C2.06258992 70.53334664 2.05652945 79.13619438 2.05223143 87.73905439 C2.04517289 101.7011213 2.03437601 115.6631824 2.02050781 129.62524414 C2.01968 130.45999276 2.01885219 131.29474137 2.01799929 132.1547854 C2.01209676 138.08235703 2.00606129 144.00992853 2 149.9375 C1.99306748 156.72078441 1.98620204 163.50406888 1.97949219 170.28735352 C1.97866406 171.12320396 1.97783593 171.95905439 1.97698271 172.82023364 C1.96331322 186.74001929 1.95354636 200.65980504 1.94658184 214.57959563 C1.94209483 223.16579459 1.93404287 231.75197642 1.92143703 240.33816738 C1.91303293 246.21288682 1.90812557 252.0876023 1.90601182 257.96232735 C1.9046626 261.35496891 1.90162695 264.74758829 1.89425278 268.14022255 C1.88709317 271.81089792 1.88599649 275.48152531 1.88647461 279.15220642 C1.88287965 280.23359813 1.87928469 281.31498984 1.87558079 282.429151 C1.87764231 283.89504994 1.87764231 283.89504994 1.87974548 285.39056301 C1.87882369 286.23853622 1.8779019 287.08650943 1.87695217 287.96017879 C1.87012454 290.06737044 1.87012454 290.06737044 3 292 C4.92393747 291.91522291 4.92393747 291.91522291 7 291 C8.59884698 288.58006479 8.59884698 288.58006479 9.875 285.5625 C13.77977694 277.29066773 18.05008085 269.94157234 24 263 C25.65815828 260.23640286 26 259.28396216 26 256 C26.66 256 27.32 256 28 256 C28.33 255.01 28.66 254.02 29 253 C29.845625 252.175 30.69125 251.35 31.5625 250.5 C34.34905007 248.2239365 34.34905007 248.2239365 34 245 C34.66 245 35.32 245 36 245 C36.0825 244.2575 36.165 243.515 36.25 242.75 C37.16233719 239.40476364 38.49998645 238.35715563 41 236 C41.639375 235.030625 42.27875 234.06125 42.9375 233.0625 C45 230 45 230 47.6875 227.375 C50.09235067 225.31242092 50.09235067 225.31242092 50.43359375 223.1640625 C51.18507959 220.29286831 52.64125571 218.39944357 54.375 216 C54.98085938 215.154375 55.58671875 214.30875 56.2109375 213.4375 C57.32053941 211.92572797 58.43763909 210.41939153 59.56640625 208.921875 C61.3981823 206.46619703 63.10370686 203.93032877 64.81640625 201.390625 C65.20699219 200.93171875 65.59757812 200.4728125 66 200 C66.66 200 67.32 200 68 200 C68.185625 198.7934375 68.185625 198.7934375 68.375 197.5625 C68.58125 196.716875 68.7875 195.87125 69 195 C69.66 194.67 70.32 194.34 71 194 C70.44840153 197.8080232 69.48507974 200.11847013 67.1875 203.1875 C63.09323798 208.81288066 59.26081747 214.59020865 55.44018555 220.40307617 C53.02375601 224.05511174 50.55841175 227.62587813 47.8984375 231.10546875 C45.20149262 234.6552562 42.90885064 238.32769527 40.6875 242.1875 C37.12993804 248.24306944 33.30896219 253.99585731 29.26171875 259.73828125 C26.46210283 263.7757239 23.81107698 267.896194 21.17285156 272.04003906 C19.07729752 275.33041032 16.94352355 278.58673007 14.75 281.8125 C11.8911447 286.0608548 9.41185777 290.48577063 7 295 C6.34 295 5.68 295 5 295 C4.67 296.65 4.34 298.3 4 300 C3.34 300 2.68 300 2 300 C0.27840885 297.00215493 -0.25232144 294.84566164 -0.26450634 291.4005661 C-0.27258853 290.47631946 -0.28067072 289.55207282 -0.28899783 288.59981871 C-0.28774521 287.58779528 -0.2864926 286.57577186 -0.28520203 285.53308105 C-0.29169999 284.45502717 -0.29819796 283.37697328 -0.30489284 282.26625109 C-0.32429486 278.64036727 -0.32946032 275.0146018 -0.3347168 271.38867188 C-0.34564945 268.7931482 -0.35743979 266.19762801 -0.37002563 263.60211182 C-0.3990944 257.2699316 -0.41752393 250.93776256 -0.43236574 244.60553473 C-0.45007796 237.209153 -0.47810766 229.81282106 -0.50649796 222.41647393 C-0.55689767 209.18912769 -0.59761878 195.96176902 -0.63305664 182.734375 C-0.66730197 169.95439405 -0.70867832 157.17446281 -0.75805664 144.39453125 C-0.82055306 128.2151406 -0.87667646 112.03574002 -0.92758697 95.85630879 C-0.94390133 90.72776149 -0.96239931 85.59922483 -0.98166466 80.47068787 C-1.00515495 74.18262785 -1.0243794 67.89456952 -1.03869756 61.60648173 C-1.04605037 58.41114693 -1.05553764 55.21584735 -1.06874657 52.0205307 C-1.13886334 34.65511344 -0.74063073 17.34931091 0 0 Z " fill="#6595FD" transform="translate(246,108)"/>
<path d="M0 0 C2 5.75 2 5.75 2 8 C1.34 8.33 0.68 8.66 0 9 C0.020625 10.27875 0.04125 11.5575 0.0625 12.875 C0.07058755 17.96207017 -0.40979211 22.9516147 -1 28 C-4.52509388 21.82760241 -3.14912789 14.75112637 -2 8 C-7.53238746 8.41492906 -11.81283103 10.42387722 -16 14 C-17.06546898 16.48952515 -17.06546898 16.48952515 -17 19 C-17.32483418 20.33542939 -17.6550855 21.66961551 -18 23 C-18 22.34 -18 21.68 -18 21 C-18.350625 21.4125 -18.70125 21.825 -19.0625 22.25 C-21 24 -21 24 -24.5 25.875 C-28.59212325 28.15698068 -29.99977792 30.80035907 -31.921875 35.02734375 C-32.25703125 35.74019531 -32.5921875 36.45304687 -32.9375 37.1875 C-33.23527344 37.86167969 -33.53304687 38.53585938 -33.83984375 39.23046875 C-35 41 -35 41 -37.08984375 41.94921875 C-37.72019531 42.29597656 -38.35054687 42.64273438 -39 43 C-39.54864319 45.15389743 -39.54864319 45.15389743 -39.625 47.625 C-40.38096975 52.56733057 -42.03533543 54.33048152 -46 57.3125 C-46.886875 57.90675781 -47.77375 58.50101563 -48.6875 59.11328125 C-51.32823169 61.26779714 -51.97406986 62.79971046 -53 66 C-53.515625 66.94875 -54.03125 67.8975 -54.5625 68.875 C-56.13483856 72.29312731 -56.62734133 75.27341329 -57 79 C-57.66 79 -58.32 79 -59 79 C-59.19335938 79.58007812 -59.38671875 80.16015625 -59.5859375 80.7578125 C-59.84632813 81.53898437 -60.10671875 82.32015625 -60.375 83.125 C-60.64828125 83.95 -60.9215625 84.775 -61.203125 85.625 C-61.82088401 87.46616412 -62.46719393 89.29776091 -63.125 91.125 C-64.12146341 94.11647726 -64.12146341 94.11647726 -64.5 97.8125 C-64.665 98.864375 -64.83 99.91625 -65 101 C-65.99 101.495 -65.99 101.495 -67 102 C-67.65555119 104.52733235 -67.65555119 104.52733235 -68 107 C-68.33 107 -68.66 107 -69 107 C-69.25731565 101.30878335 -68.37182958 96.47998482 -66.875 91 C-66.6490918 90.16621826 -66.42318359 89.33243652 -66.19042969 88.47338867 C-59.20291503 63.46028472 -45.26227307 42.05312733 -28.27734375 22.63671875 C-26.02224077 20.10721644 -26.02224077 20.10721644 -24.31640625 17.64453125 C-23.88199219 17.10183594 -23.44757813 16.55914062 -23 16 C-22.34 16 -21.68 16 -21 16 C-21 15.34 -21 14.68 -21 14 C-20.34 14 -19.68 14 -19 14 C-19 13.34 -19 12.68 -19 12 C-18.34 12 -17.68 12 -17 12 C-17 11.34 -17 10.68 -17 10 C-16.34 10 -15.68 10 -15 10 C-15 9.34 -15 8.68 -15 8 C-12.734375 6.0546875 -12.734375 6.0546875 -9.75 3.875 C-8.77546875 3.15054688 -7.8009375 2.42609375 -6.796875 1.6796875 C-4 0 -4 0 0 0 Z " fill="#90A5F1" transform="translate(248,79)"/>
<path d="M0 0 C0.66 0 1.32 0 2 0 C2.50744423 1.89385437 3.00564574 3.79018666 3.5 5.6875 C3.7784375 6.74324219 4.056875 7.79898437 4.34375 8.88671875 C4.9391715 11.71142672 5.12786492 14.12836708 5 17 C5.99 17 6.98 17 8 17 C8.1134375 17.79277344 8.226875 18.58554687 8.34375 19.40234375 C9.15730381 23.86236194 10.31605692 28.18867598 11.5 32.5625 C14.21561279 42.64130291 14.21561279 42.64130291 15 47 C15.33 47 15.66 47 16 47 C16.33848652 48.89492006 16.67056911 50.79098466 17 52.6875 C17.185625 53.74324219 17.37125 54.79898438 17.5625 55.88671875 C17.95068074 58.64904062 18.08259976 61.21742043 18 64 C19.485 64.495 19.485 64.495 21 65 C21.02578125 65.74121094 21.0515625 66.48242188 21.078125 67.24609375 C21.52526878 75.54874068 23.0386856 83.20675633 25.0625 91.25 C26.37303795 96.4921518 27.18097054 101.41658341 27.5625 106.8125 C27.64628906 107.97394531 27.73007813 109.13539063 27.81640625 110.33203125 C27.87699219 111.21246094 27.93757813 112.09289062 28 113 C28.66 113 29.32 113 30 113 C29.98839844 113.66386719 29.97679687 114.32773437 29.96484375 115.01171875 C29.88106591 121.56306787 29.88106591 121.56306787 31 128 C31.99 128 32.98 128 34 128 C34.06058594 128.83144531 34.12117188 129.66289062 34.18359375 130.51953125 C34.26738281 131.60621094 34.35117188 132.69289063 34.4375 133.8125 C34.51871094 134.89144531 34.59992188 135.97039062 34.68359375 137.08203125 C34.90212461 140.05989905 34.90212461 140.05989905 36 143 C33.625 142.8125 33.625 142.8125 31 142 C29.6875 139.4375 29.6875 139.4375 29 137 C28.34 137 27.68 137 27 137 C25.3125 134.6875 25.3125 134.6875 24 132 C24.33 131.01 24.66 130.02 25 129 C25 129.66 25 130.32 25 131 C26.485 130.01 26.485 130.01 28 129 C27.7525 127.8553125 27.7525 127.8553125 27.5 126.6875 C26.83437851 121.77854151 26.92079922 116.94564886 27 112 C26.34 112 25.68 112 25 112 C24.67 113.32 24.34 114.64 24 116 C23.9498877 115.42032471 23.89977539 114.84064941 23.84814453 114.2434082 C23.61502466 111.59900423 23.37012422 108.95581713 23.125 106.3125 C23.04636719 105.40048828 22.96773437 104.48847656 22.88671875 103.54882812 C22.45593689 98.99248157 21.91973537 95.19942112 20 91 C19.58340865 89.2384872 19.20714882 87.46686867 18.875 85.6875 C18.70742187 84.80449219 18.53984375 83.92148437 18.3671875 83.01171875 C18.24601562 82.34785156 18.12484375 81.68398438 18 81 C17.67 81 17.34 81 17 81 C16.87882812 79.83082031 16.75765625 78.66164063 16.6328125 77.45703125 C16.46391599 75.90881329 16.29462432 74.36063839 16.125 72.8125 C16.00705078 71.65911133 16.00705078 71.65911133 15.88671875 70.48242188 C15.41865298 66.28783246 14.64129527 62.91089889 13 59 C12.56387789 56.69824442 12.19254293 54.38358762 11.875 52.0625 C11.70742187 50.87785156 11.53984375 49.69320312 11.3671875 48.47265625 C11.02968033 45.28070016 10.93147181 42.20614048 11 39 C10.34 39 9.68 39 9 39 C8.80664062 37.96359375 8.61328125 36.9271875 8.4140625 35.859375 C8.15135133 34.48952391 7.88831329 33.11973548 7.625 31.75 C7.49867188 31.06808594 7.37234375 30.38617188 7.2421875 29.68359375 C6.55264041 26.13242622 5.65527185 23.19638701 4 20 C3.9222654 17.66796188 3.91032272 15.33160941 4 13 C3.34 13 2.68 13 2 13 C1.34 8.71 0.68 4.42 0 0 Z " fill="#4467E5" transform="translate(212,265)"/>
<path d="M0 0 C1.093125 0.185625 2.18625 0.37125 3.3125 0.5625 C6.93624133 1.2578068 6.93624133 1.2578068 10 0 C12.30142435 1.78174788 13.80034391 3.16304165 14.48828125 6.046875 C14.72323102 8.0246611 14.86751458 10.01271872 15 12 C17.475 12.495 17.475 12.495 20 13 C20.33 13.99 20.66 14.98 21 16 C22.65 16.33 24.3 16.66 26 17 C26 17.66 26 18.32 26 19 C26.763125 19.268125 27.52625 19.53625 28.3125 19.8125 C31 21 31 21 32.3828125 22.48046875 C34.86149443 24.80947182 37.7210848 25.26788546 40.94140625 26.15625 C43 27 43 27 45 30 C45 30.99 45 31.98 45 33 C45.9075 32.979375 46.815 32.95875 47.75 32.9375 C50.47165711 32.98983956 52.43308099 33.2299243 55 34 C55.99 34.0928125 55.99 34.0928125 57 34.1875 C59 35 59 35 60.875 37.875 C63.27274213 41.40109136 65.17497699 42.29998977 69 44 C69.33 44.66 69.66 45.32 70 46 C71.65235715 46.70138296 73.32373878 47.35783916 75 48 C77.79431242 49.32817408 80.55176538 50.72859625 83.3125 52.125 C84.05306641 52.49753906 84.79363281 52.87007813 85.55664062 53.25390625 C87.37201217 54.16744806 89.18613282 55.08347487 91 56 C91 57.32 91 58.64 91 60 C93.31 60 95.62 60 98 60 C98 60.99 98 61.98 98 63 C93.5176683 63 92.53292618 62.32137245 88.9375 59.875 C84.3783602 56.86572651 79.76051255 54.17441543 74.94921875 51.59375 C66.30983408 46.92504941 57.88377008 41.98329334 49.640625 36.64453125 C46.99836641 34.99898263 44.31238224 33.51993759 41.5625 32.0625 C35.43262087 28.76445236 29.70062651 24.98518106 24 21 C23.24541504 20.47325684 22.49083008 19.94651367 21.71337891 19.40380859 C19.21845123 17.65406152 16.73283727 15.89185403 14.25 14.125 C13.43845459 13.55322021 12.62690918 12.98144043 11.79077148 12.39233398 C10.66457397 11.58324585 10.66457397 11.58324585 9.515625 10.7578125 C8.83790039 10.2745752 8.16017578 9.79133789 7.46191406 9.29345703 C6.97948242 8.86661621 6.49705078 8.43977539 6 8 C6 7.34 6 6.68 6 6 C5.38125 5.7525 4.7625 5.505 4.125 5.25 C1.64931313 3.79371361 1.04874998 2.62187494 0 0 Z M59 34 C61 35 61 35 61 35 Z " fill="#798FDC" transform="translate(122,328)"/>
<path d="M0 0 C3.57864107 15.84826759 4.35179067 31.71887777 4.31567383 47.91259766 C4.31251041 50.86528406 4.33609882 53.81696725 4.36132812 56.76953125 C4.41617902 73.48123282 3.12263987 90.96157778 -2 107 C-2.66 107.66 -3.32 108.32 -4 109 C-3.7155186 106.79072956 -3.4220904 104.58261021 -3.125 102.375 C-2.96257812 101.14523438 -2.80015625 99.91546875 -2.6328125 98.6484375 C-2 95 -2 95 -0.96484375 91.953125 C0.10251438 88.6862313 0.37395258 85.8009467 0.5625 82.375 C0.90604139 76.35952023 0.90604139 76.35952023 1.50531006 74.0664978 C2.0133749 71.94412822 2.13972554 70.09162483 2.16113281 67.91259766 C2.17074036 67.11721588 2.1803479 66.32183411 2.19024658 65.50234985 C2.19449646 64.64821503 2.19874634 63.7940802 2.203125 62.9140625 C2.21167511 61.5740065 2.21167511 61.5740065 2.22039795 60.20687866 C2.22984028 58.31224751 2.23637889 56.41759998 2.24023438 54.52294922 C2.24984856 51.66994032 2.28084029 48.81768086 2.3125 45.96484375 C2.36585672 36.61653158 2.07621151 27.99861459 -0.27929688 18.90649414 C-1.64014004 13.41840543 -2.81121901 7.43365704 -1 2 C-1.96421875 2.2165625 -2.9284375 2.433125 -3.921875 2.65625 C-5.18515625 2.9346875 -6.4484375 3.213125 -7.75 3.5 C-9.62945312 3.91765625 -9.62945312 3.91765625 -11.546875 4.34375 C-15 5 -15 5 -19 5 C-19 5.66 -19 6.32 -19 7 C-20.5778125 7.1546875 -20.5778125 7.1546875 -22.1875 7.3125 C-25.95647488 7.99215121 -27.857872 8.93281053 -31 11 C-35.20749091 13.16385247 -39.14104123 13.30750061 -43.79296875 13.4609375 C-44.52128906 13.63882813 -45.24960937 13.81671875 -46 14 C-46.67499331 15.32913741 -47.341673 16.66252933 -48 18 C-50.1640625 18.609375 -50.1640625 18.609375 -52.625 18.75 C-53.44226563 18.80671875 -54.25953125 18.8634375 -55.1015625 18.921875 C-55.72804688 18.94765625 -56.35453125 18.9734375 -57 19 C-45.38515071 9.42439906 -14.98237002 -4.62041343 0 0 Z " fill="#ECE6F7" transform="translate(424,143)"/>
<path d="M0 0 C1 3 1 3 0.13671875 4.734375 C-0.58064453 5.73210937 -0.58064453 5.73210937 -1.3125 6.75 C-1.86808594 7.54148437 -2.42367187 8.33296875 -2.99609375 9.1484375 C-3.65738281 10.08945312 -4.31867188 11.03046875 -5 12 C-6.20616552 13.8053774 -7.40002653 15.61858204 -8.59423828 17.43188477 C-11.92622081 22.48702181 -15.30237436 27.46815392 -18.9375 32.3125 C-22.94839225 37.73852561 -26.38323078 43.46133462 -29.85864258 49.23657227 C-33.30494992 54.93708306 -36.96672177 60.40052531 -40.80859375 65.84375 C-43.58658597 69.84485109 -46.21201695 73.93251217 -48.82763672 78.04077148 C-50.9230041 81.33091457 -53.05664134 84.58697257 -55.25 87.8125 C-58.1088553 92.0608548 -60.58814223 96.48577063 -63 101 C-63.66 101 -64.32 101 -65 101 C-65.33 102.65 -65.66 104.3 -66 106 C-66.66 106 -67.32 106 -68 106 C-68 105.01 -68 104.02 -68 103 C-67.34 103 -66.68 103 -66 103 C-65.87625 102.195625 -65.7525 101.39125 -65.625 100.5625 C-65.315625 99.2940625 -65.315625 99.2940625 -65 98 C-64.01 97.505 -64.01 97.505 -63 97 C-62.02533933 95.21801498 -61.11979473 93.39795394 -60.25 91.5625 C-56.23570561 83.34833556 -51.94873632 75.94019238 -46 69 C-44.34184172 66.23640286 -44 65.28396216 -44 62 C-43.34 62 -42.68 62 -42 62 C-41.67 61.01 -41.34 60.02 -41 59 C-40.154375 58.175 -39.30875 57.35 -38.4375 56.5 C-35.65094993 54.2239365 -35.65094993 54.2239365 -36 51 C-35.34 51 -34.68 51 -34 51 C-33.9175 50.2575 -33.835 49.515 -33.75 48.75 C-32.83766281 45.40476364 -31.50001355 44.35715563 -29 42 C-28.0409375 40.5459375 -28.0409375 40.5459375 -27.0625 39.0625 C-25 36 -25 36 -22.3125 33.375 C-19.90764933 31.31242092 -19.90764933 31.31242092 -19.56640625 29.1640625 C-18.81492041 26.29286831 -17.35874429 24.39944357 -15.625 22 C-15.01914062 21.154375 -14.41328125 20.30875 -13.7890625 19.4375 C-12.67946059 17.92572797 -11.56236091 16.41939153 -10.43359375 14.921875 C-8.6018177 12.46619703 -6.89629314 9.93032877 -5.18359375 7.390625 C-4.79300781 6.93171875 -4.40242188 6.4728125 -4 6 C-3.34 6 -2.68 6 -2 6 C-1.855625 5.195625 -1.71125 4.39125 -1.5625 3.5625 C-1 1 -1 1 0 0 Z " fill="#72A2EA" transform="translate(316,302)"/>
<path d="M0 0 C0.66 0.33 1.32 0.66 2 1 C1.525625 1.680625 1.05125 2.36125 0.5625 3.0625 C-1.24885058 5.93306991 -1.24885058 5.93306991 -1.0625 9.3125 C-2.37294923 14.46693364 -5.39385197 16.05444122 -9.65234375 19.0078125 C-12.27328657 21.23190707 -12.96561397 22.77271558 -14 26 C-14.515625 26.94875 -15.03125 27.8975 -15.5625 28.875 C-17.13483856 32.29312731 -17.62734133 35.27341329 -18 39 C-18.66 39 -19.32 39 -20 39 C-20.19335938 39.58007812 -20.38671875 40.16015625 -20.5859375 40.7578125 C-20.84632813 41.53898437 -21.10671875 42.32015625 -21.375 43.125 C-21.64828125 43.95 -21.9215625 44.775 -22.203125 45.625 C-22.82088401 47.46616412 -23.46719393 49.29776091 -24.125 51.125 C-25.12146341 54.11647726 -25.12146341 54.11647726 -25.5 57.8125 C-25.665 58.864375 -25.83 59.91625 -26 61 C-26.99 61.495 -26.99 61.495 -28 62 C-28.65555119 64.52733235 -28.65555119 64.52733235 -29 67 C-29.33 67 -29.66 67 -30 67 C-30.25731565 61.30878335 -29.37182958 56.47998482 -27.875 51 C-27.6490918 50.16621826 -27.42318359 49.33243652 -27.19042969 48.47338867 C-22.95621405 33.31622893 -15.53159086 10.83746297 -2.3125 1 C-1.549375 0.67 -0.78625 0.34 0 0 Z " fill="#7B9BE3" transform="translate(209,119)"/>
<path d="M0 0 C0.66 0 1.32 0 2 0 C2.50744423 1.89385437 3.00564574 3.79018666 3.5 5.6875 C3.7784375 6.74324219 4.056875 7.79898437 4.34375 8.88671875 C4.9391715 11.71142672 5.12786492 14.12836708 5 17 C5.99 17 6.98 17 8 17 C8.1134375 17.79277344 8.226875 18.58554687 8.34375 19.40234375 C9.15730381 23.86236194 10.31605692 28.18867598 11.5 32.5625 C14.21561279 42.64130291 14.21561279 42.64130291 15 47 C15.33 47 15.66 47 16 47 C16.33848652 48.89492006 16.67056911 50.79098466 17 52.6875 C17.185625 53.74324219 17.37125 54.79898438 17.5625 55.88671875 C17.95068074 58.64904062 18.08259976 61.21742043 18 64 C19.485 64.495 19.485 64.495 21 65 C21.06058594 65.83402344 21.12117188 66.66804688 21.18359375 67.52734375 C21.66828087 74.03706466 22.23091353 80.51769975 23 87 C22.34 87 21.68 87 21 87 C19.74410168 82.3352348 18.80506522 77.78474458 18.125 73 C17.54132586 69.28486776 16.8846207 66.37771572 15 63.125 C11.02361825 56.06247122 10.85516981 46.94152232 11 39 C10.34 39 9.68 39 9 39 C8.80664062 37.96359375 8.61328125 36.9271875 8.4140625 35.859375 C8.15135133 34.48952391 7.88831329 33.11973548 7.625 31.75 C7.49867188 31.06808594 7.37234375 30.38617188 7.2421875 29.68359375 C6.55264041 26.13242622 5.65527185 23.19638701 4 20 C3.9222654 17.66796188 3.91032272 15.33160941 4 13 C3.34 13 2.68 13 2 13 C1.34 8.71 0.68 4.42 0 0 Z " fill="#486DED" transform="translate(212,265)"/>
<path d="M0 0 C0.33 0 0.66 0 1 0 C1 51.81 1 103.62 1 157 C0.67 157 0.34 157 0 157 C-0.1676046 152.72920293 -0.33392359 148.45835675 -0.5 144.1875 C-0.54769531 142.97255859 -0.59539062 141.75761719 -0.64453125 140.50585938 C-0.68964844 139.34248047 -0.73476562 138.17910156 -0.78125 136.98046875 C-0.82314453 135.90692139 -0.86503906 134.83337402 -0.90820312 133.72729492 C-0.97243254 131.81903204 -1 129.90934351 -1 128 C-1.66 127.67 -2.32 127.34 -3 127 C-3 125.68 -3 124.36 -3 123 C-2.34 123 -1.68 123 -1 123 C-1.00092179 122.37216645 -1.00184359 121.7443329 -1.00279331 121.0974741 C-1.02484875 105.84209769 -1.04141165 90.58672616 -1.05181217 75.33133793 C-1.05697508 67.95404044 -1.06401767 60.57675357 -1.07543945 53.19946289 C-1.08538646 46.7716782 -1.09185347 40.3439012 -1.09408849 33.91610903 C-1.09539557 30.51060722 -1.09848125 27.10512742 -1.10573006 23.69963264 C-1.11293606 19.90398959 -1.11399113 16.10839288 -1.11352539 12.31274414 C-1.11712067 11.17554932 -1.12071594 10.03835449 -1.12442017 8.86669922 C-1.1230455 7.83879776 -1.12167084 6.8108963 -1.12025452 5.75184631 C-1.12117631 4.85309815 -1.1220981 3.95434999 -1.12304783 3.02836704 C-1 1 -1 1 0 0 Z " fill="#3F7CED" transform="translate(245,222)"/>
<path d="M0 0 C0.33 0 0.66 0 1 0 C1.97619945 7.31999999 2.13612598 14.48424411 2.11352539 21.86352539 C2.11367142 23.12305023 2.11381744 24.38257507 2.1139679 25.68026733 C2.11425287 29.10732559 2.10840489 32.53434831 2.10139394 35.96139836 C2.09511021 39.55283121 2.09455265 43.14426502 2.09336853 46.73570251 C2.09026994 53.52465151 2.08207653 60.31358426 2.07201904 67.10252613 C2.06081202 74.83656367 2.05533592 82.57060201 2.05032361 90.30464566 C2.03989258 106.20310649 2.02232184 122.10155114 2 138 C1.67 138 1.34 138 1 138 C-0.07634878 132.71203378 -0.1777972 127.5878849 -0.22119141 122.21630859 C-0.2326973 121.24603729 -0.24420319 120.27576599 -0.25605774 119.27609253 C-0.29272719 116.066906 -0.32242961 112.85770069 -0.3515625 109.6484375 C-0.37472283 107.39238251 -0.39811341 105.13632988 -0.42172241 102.88027954 C-0.4701928 98.1374964 -0.51508195 93.39469541 -0.55761719 88.65185547 C-0.60108038 83.83994017 -0.64952502 79.02812161 -0.703125 74.21630859 C-1.27860828 22.54190784 -1.27860828 22.54190784 0 0 Z " fill="#789FFE" transform="translate(246,108)"/>
<path d="M0 0 C0.33 0 0.66 0 1 0 C0.99555878 0.82019119 0.99111755 1.64038239 0.98654175 2.48542786 C0.94648743 10.21046234 0.91602703 17.93544656 0.89637566 25.66055775 C0.88593311 29.63223 0.87176537 33.60381654 0.84912109 37.57543945 C0.82740942 41.40742016 0.81543492 45.23931835 0.81024551 49.07135582 C0.80654674 50.53421007 0.79932404 51.99705975 0.78853989 53.45987892 C0.77404702 55.50696236 0.7720211 57.55370369 0.77294922 59.60083008 C0.768508 60.76665115 0.76406677 61.93247223 0.75949097 63.13362122 C0.78431721 66.19992893 0.78431721 66.19992893 3 69 C3.34375 71.015625 3.34375 71.015625 3.5 73.25 C3.87756072 77.37004861 4.83387366 81.02145132 6 85 C6.53126366 87.77574964 7.00984231 90.55778387 7.484375 93.34375 C7.93160357 95.64765474 8.51503791 97.77626856 9.25 100 C9.4975 100.99 9.745 101.98 10 103 C9.34 103.99 8.68 104.98 8 106 C4.86519263 98.15366637 2.83996092 90.42535032 1.3125 82.125 C1.10044922 81.04347656 0.88839844 79.96195312 0.66992188 78.84765625 C-1.78666113 65.84404021 -2.17348002 52.94052693 -2.125 39.75 C-2.12378143 39.02654388 -2.12256287 38.30308777 -2.12130737 37.55770874 C-2.06971498 11.46169892 -2.06971498 11.46169892 0 0 Z " fill="#B6C2EA" transform="translate(66,153)"/>
<path d="M0 0 C8.96908052 -0.65895285 16.50170541 1.22099564 25 4 C21.09568272 6.60287819 18.40208268 5.84154609 14 5.1875 C12.91332031 5.04344727 12.91332031 5.04344727 11.8046875 4.89648438 C8.74898017 4.47646556 5.93199983 3.97733328 3 3 C2.93941406 3.67546875 2.87882812 4.3509375 2.81640625 5.046875 C2.73261719 5.93890625 2.64882812 6.8309375 2.5625 7.75 C2.48128906 8.63171875 2.40007812 9.5134375 2.31640625 10.421875 C2.03761535 12.69350452 1.61209423 14.79851823 1 17 C1.66 17 2.32 17 3 17 C1.125 21.875 1.125 21.875 0 23 C-0.12307311 24.71774167 -0.17786558 26.44042739 -0.20532227 28.16235352 C-0.22526749 29.26341934 -0.24521271 30.36448517 -0.26576233 31.49891663 C-0.28247482 32.6968132 -0.29918732 33.89470978 -0.31640625 35.12890625 C-0.33718735 36.34827377 -0.35796844 37.5676413 -0.37937927 38.82395935 C-0.44500428 42.73674645 -0.50381972 46.64960317 -0.5625 50.5625 C-0.60567291 53.20768962 -0.64928678 55.85287209 -0.69335938 58.49804688 C-0.8006988 64.99862336 -0.90244067 71.49926979 -1 78 C-1.33 78 -1.66 78 -2 78 C-2.02338139 70.43604039 -2.04104445 62.87208463 -2.05181217 55.30809689 C-2.05698544 51.79417056 -2.06397936 48.28026932 -2.07543945 44.76635742 C-2.0885908 40.70751737 -2.09327403 36.64870282 -2.09765625 32.58984375 C-2.10281754 31.35483627 -2.10797882 30.1198288 -2.11329651 28.84739685 C-2.11471279 6.34413836 -2.11471279 6.34413836 0 0 Z " fill="#6B7FE0" transform="translate(68,143)"/>
<path d="M0 0 C0.99 0.33 1.98 0.66 3 1 C-5.24239369 7.60328131 -13.76311181 12.89358487 -23.03027344 17.92236328 C-26.04543975 19.57195972 -29.02070355 21.28639555 -32 23 C-37.22425176 25.9878632 -42.45081768 28.97146584 -47.6875 31.9375 C-48.37134766 32.32744141 -49.05519531 32.71738281 -49.75976562 33.11914062 C-52.483843 34.65812089 -55.02367309 36.00789103 -58 37 C-57.6875 35.125 -57.6875 35.125 -57 33 C-54 31 -54 31 -50 31 C-49.67 30.34 -49.34 29.68 -49 29 C-45.53846154 26 -45.53846154 26 -42 26 C-42 25.34 -42 24.68 -42 24 C-38.99209767 22.4593671 -36.01434528 21.00573811 -32.875 19.75 C-26.69563858 17.15327958 -19.75369751 13.75369751 -15 9 C-14.01 9 -13.02 9 -12 9 C-12 8.34 -12 7.68 -12 7 C-11.278125 6.7525 -10.55625 6.505 -9.8125 6.25 C-6.74678041 4.88745796 -4.56170882 3.14629658 -2 1 C-1.34 0.67 -0.68 0.34 0 0 Z " fill="#D6E2F4" transform="translate(346,347)"/>
<path d="M0 0 C0.66 0 1.32 0 2 0 C2.64910154 1.58199631 3.29414694 3.16565724 3.9375 4.75 C4.29714844 5.63171875 4.65679687 6.5134375 5.02734375 7.421875 C5.85356576 9.61186104 6.49369943 11.71898271 7 14 C7.66 14 8.32 14 9 14 C9.680625 15.175625 9.680625 15.175625 10.375 16.375 C12.07651113 19.1235949 13.04519084 19.87921032 16 21 C12.28400809 21.20086443 11.22791555 21.1519437 8 19 C8 18.34 8 17.68 8 17 C7.34644531 16.77570313 6.69289062 16.55140625 6.01953125 16.3203125 C1.98269626 14.55517637 -1.60435908 12.24105239 -5.3125 9.875 C-6.05306641 9.40707031 -6.79363281 8.93914062 -7.55664062 8.45703125 C-9.37341968 7.30835804 -11.18703037 6.15467631 -13 5 C-9.98096289 4.19510911 -7.38148111 3.89144881 -4.25 3.9375 C-3.45078125 3.94652344 -2.6515625 3.95554687 -1.828125 3.96484375 C-1.22484375 3.97644531 -0.6215625 3.98804688 0 4 C0 2.68 0 1.36 0 0 Z " fill="#727EE4" transform="translate(232,388)"/>
<path d="M0 0 C7.44072658 2.28413002 7.44072658 2.28413002 9.5625 5 C10 7 10 7 9 10 C9.99 10 10.98 10 12 10 C13 11 14 12 15 13 C15.99 13 16.98 13 18 13 C20.18923887 15.45194753 21.5406196 18.0812392 23 21 C23.66 21.66 24.32 22.32 25 23 C25 23.99 25 24.98 25 26 C22.83125748 25.49396008 21.00032373 25.00016187 19 24 C19 23.34 19 22.68 19 22 C18.40703125 21.7421875 17.8140625 21.484375 17.203125 21.21875 C14.82339035 19.90230105 13.49021208 18.57419218 11.75 16.5 C11.22921875 15.8915625 10.7084375 15.283125 10.171875 14.65625 C9 13 9 13 9 11 C8.34 11 7.68 11 7 11 C5.2734375 9.1015625 5.2734375 9.1015625 3.375 6.625 C2.42753906 5.40683594 2.42753906 5.40683594 1.4609375 4.1640625 C0 2 0 2 0 0 Z " fill="#6E84E5" transform="translate(97,301)"/>
<path d="M0 0 C7.7682052 3.5747493 15.2367694 7.73583598 22 13 C22 13.66 22 14.32 22 15 C22.53625 15.226875 23.0725 15.45375 23.625 15.6875 C26.78500863 17.43382056 29.2676983 19.6402849 32 22 C31.34 22.66 30.68 23.32 30 24 C30 23.34 30 22.68 30 22 C29.01 22.33 28.02 22.66 27 23 C26.01 22.34 25.02 21.68 24 21 C20.87478167 20.83300768 20.87478167 20.83300768 18 21 C18 20.34 18 19.68 18 19 C18.66 19 19.32 19 20 19 C18.33630748 16.39859044 18.33630748 16.39859044 16 14 C13.33071879 13.58129447 13.33071879 13.58129447 11 14 C11.33 13.01 11.66 12.02 12 11 C11.34 11 10.68 11 10 11 C9.67 9.35 9.34 7.7 9 6 C8.21625 5.855625 7.4325 5.71125 6.625 5.5625 C4 5 4 5 2 4 C2 3.34 2 2.68 2 2 C1.34 2 0.68 2 0 2 C0 1.34 0 0.68 0 0 Z " fill="#968EE5" transform="translate(126,162)"/>
<path d="M0 0 C0.33 0 0.66 0 1 0 C1.99 4.62 2.98 9.24 4 14 C4.99 14 5.98 14 7 14 C7.06058594 14.83144531 7.12117187 15.66289062 7.18359375 16.51953125 C7.26738281 17.60621094 7.35117188 18.69289063 7.4375 19.8125 C7.55931641 21.43091797 7.55931641 21.43091797 7.68359375 23.08203125 C7.90212461 26.05989905 7.90212461 26.05989905 9 29 C6.625 28.8125 6.625 28.8125 4 28 C2.6875 25.4375 2.6875 25.4375 2 23 C1.34 23 0.68 23 0 23 C-1.6875 20.6875 -1.6875 20.6875 -3 18 C-2.505 16.515 -2.505 16.515 -2 15 C-2 15.66 -2 16.32 -2 17 C-1.01 16.34 -0.02 15.68 1 15 C0.835 14.195625 0.67 13.39125 0.5 12.5625 C-0.09247348 8.34112648 -0.08506709 4.25335455 0 0 Z " fill="#5566D8" transform="translate(239,379)"/>
<path d="M0 0 C7.06666667 0.66666667 7.06666667 0.66666667 10 4 C11.66295562 4.67587043 13.33074012 5.33985328 15 6 C17.79295936 7.33105321 20.55174819 8.72858756 23.3125 10.125 C24.05306641 10.49753906 24.79363281 10.87007813 25.55664062 11.25390625 C27.37201217 12.16744806 29.18613282 13.08347487 31 14 C31 15.32 31 16.64 31 18 C33.31 18 35.62 18 38 18 C38 18.99 38 19.98 38 21 C33.5176683 21 32.53292618 20.32137245 28.9375 17.875 C24.35159176 14.846111 19.70032189 12.14614439 14.859375 9.55078125 C11.64893537 7.80960019 8.4768451 6.01108386 5.3125 4.1875 C4.29800781 3.60355469 3.28351563 3.01960938 2.23828125 2.41796875 C1.49964844 1.95003906 0.76101562 1.48210937 0 1 C0 0.67 0 0.34 0 0 Z " fill="#889CDD" transform="translate(182,370)"/>
<path d="M0 0 C0.66 0.33 1.32 0.66 2 1 C1.525625 1.680625 1.05125 2.36125 0.5625 3.0625 C-1.24885058 5.93306991 -1.24885058 5.93306991 -1.0625 9.3125 C-2.54219107 15.13261822 -7.15034121 17.7584746 -12 21 C-12.33 21 -12.66 21 -13 21 C-13.52796554 13.84078734 -10.28765416 9.48580103 -6 4 C-4.02970294 2.25194903 -2.35755853 1.20752998 0 0 Z " fill="#6F8FE9" transform="translate(209,119)"/>
<path d="M0 0 C0.94875 0.04125 1.8975 0.0825 2.875 0.125 C-6.98020463 8.30736547 -19.15244267 15.54977273 -31.125 20.125 C-31.125 19.465 -31.125 18.805 -31.125 18.125 C-30.465 18.125 -29.805 18.125 -29.125 18.125 C-28.856875 17.50625 -28.58875 16.8875 -28.3125 16.25 C-27.125 14.125 -27.125 14.125 -24.125 12.125 C-23.465 11.135 -22.805 10.145 -22.125 9.125 C-20.125 9.125 -18.125 9.125 -16.125 9.125 C-14.3738427 7.7083253 -14.3738427 7.7083253 -13.125 6.125 C-12.465 6.125 -11.805 6.125 -11.125 6.125 C-10.795 5.135 -10.465 4.145 -10.125 3.125 C-8.949375 2.939375 -8.949375 2.939375 -7.75 2.75 C-4.20286101 1.9054431 -3.8004963 0.15201985 0 0 Z " fill="#CEE0F5" transform="translate(285.125,383.875)"/>
<path d="M0 0 C0.33 0 0.66 0 1 0 C1.75430144 4.02535393 2.12262138 7.82037935 2.11352539 11.91357422 C2.11344986 13.05430389 2.11337433 14.19503357 2.11329651 15.37033081 C2.10813522 16.58616852 2.10297394 17.80200623 2.09765625 19.0546875 C2.0962413 20.31137238 2.09482635 21.56805725 2.09336853 22.86282349 C2.08873074 26.1869194 2.0797618 29.51094542 2.06866455 32.83502197 C2.05839401 36.23375854 2.05385887 39.63250235 2.04882812 43.03125 C2.03781699 49.68751917 2.02109222 56.34375555 2 63 C1.67 63 1.34 63 1 63 C0.8323954 58.72920293 0.66607641 54.45835675 0.5 50.1875 C0.45230469 48.97255859 0.40460938 47.75761719 0.35546875 46.50585938 C0.31035156 45.34248047 0.26523438 44.17910156 0.21875 42.98046875 C0.17685547 41.90692139 0.13496094 40.83337402 0.09179688 39.72729492 C0.02756746 37.81903204 0 35.90934351 0 34 C-0.66 33.67 -1.32 33.34 -2 33 C-2 31.68 -2 30.36 -2 29 C-1.34 29 -0.68 29 0 29 C0 19.43 0 9.86 0 0 Z " fill="#2C72E8" transform="translate(244,316)"/>
<path d="M0 0 C0.99 0.33 1.98 0.66 3 1 C3 1.66 3 2.32 3 3 C3.87398437 3.38671875 3.87398437 3.38671875 4.765625 3.78125 C7.1802903 5.09834017 8.81740177 6.55088384 10.75 8.5 C11.36359375 9.1084375 11.9771875 9.716875 12.609375 10.34375 C14 12 14 12 14 14 C14.66 14 15.32 14 16 14 C16 14.66 16 15.32 16 16 C16.66 16 17.32 16 18 16 C18.33 12.37 18.66 8.74 19 5 C19.33 5 19.66 5 20 5 C20 10.28 20 15.56 20 21 C16 21 16 21 13 20 C13 18.68 13 17.36 13 16 C12.34 16 11.68 16 11 16 C10.34 14.68 9.68 13.36 9 12 C7.68 12.33 6.36 12.66 5 13 C5.33 10.69 5.66 8.38 6 6 C4.68 5.67 3.36 5.34 2 5 C2 4.01 2 3.02 2 2 C1.34 2 0.68 2 0 2 C0 1.34 0 0.68 0 0 Z " fill="#A29EE9" transform="translate(158,185)"/>
<path d="M0 0 C1.093125 0.185625 2.18625 0.37125 3.3125 0.5625 C6.93624133 1.2578068 6.93624133 1.2578068 10 0 C12.30142435 1.78174788 13.80034391 3.16304165 14.48828125 6.046875 C14.72323102 8.0246611 14.86751458 10.01271872 15 12 C11.59687262 10.94124926 8.98646769 9.99097846 6 8 C6 7.34 6 6.68 6 6 C5.38125 5.7525 4.7625 5.505 4.125 5.25 C1.64931313 3.79371361 1.04874998 2.62187494 0 0 Z " fill="#6A82E9" transform="translate(122,328)"/>
<path d="M0 0 C0.03738281 0.61488281 0.07476562 1.22976563 0.11328125 1.86328125 C0.17902344 2.67152344 0.24476562 3.47976563 0.3125 4.3125 C0.37050781 5.11300781 0.42851563 5.91351563 0.48828125 6.73828125 C1.0977618 9.43209225 2.01870246 10.14589687 4 12 C5.0625 14.0859375 5.0625 14.0859375 6 16.375 C7.10926346 19.00153186 8.19083843 21.31099596 9.6875 23.75 C11.10673458 26.18297356 11.6039231 28.22746167 12 31 C4.5643436 24.14396047 -1.24635252 13.34802594 -5 4 C-5 3.01 -5 2.02 -5 1 C-1.125 0 -1.125 0 0 0 Z " fill="#929FE1" transform="translate(85,270)"/>
<path d="M0 0 C0.33 0 0.66 0 1 0 C2.03449603 7.62090672 2.1295343 15.10111504 2.09765625 22.78515625 C2.0962413 24.08198837 2.09482635 25.3788205 2.09336853 26.71495056 C2.08958317 30.13270051 2.07978777 33.55040675 2.06866455 36.96813965 C2.05836397 40.46768605 2.05385254 43.96723963 2.04882812 47.46679688 C2.03816119 54.31121567 2.0211337 61.15560573 2 68 C1.67 68 1.34 68 1 68 C-0.40654893 45.24042 -1.45447776 22.78873456 0 0 Z " fill="#89A7FE" transform="translate(246,108)"/>
<path d="M0 0 C0.66 0.33 1.32 0.66 2 1 C2 1.66 2 2.32 2 3 C0.36504293 4.05104383 -1.30898083 5.0417558 -3 6 C-4.67645226 7.15256093 -6.34312129 8.31947392 -8 9.5 C-19.92982456 18 -19.92982456 18 -26 18 C-20.25 13 -20.25 13 -18 13 C-18 12.34 -18 11.68 -18 11 C-15.5884268 9.41008212 -13.18776316 7.93724953 -10.6875 6.5 C-9.31611061 5.69842226 -7.94500651 4.89635617 -6.57421875 4.09375 C-5.96151123 3.73990234 -5.34880371 3.38605469 -4.7175293 3.02148438 C-3.11253989 2.06693204 -1.55376591 1.03584394 0 0 Z " fill="#D3CCF3" transform="translate(365,162)"/>
<path d="M0 0 C0.33 0 0.66 0 1 0 C1.33848652 1.89492006 1.67056911 3.79098466 2 5.6875 C2.185625 6.74324219 2.37125 7.79898437 2.5625 8.88671875 C2.95068074 11.64904062 3.08259976 14.21742043 3 17 C3.99 17.33 4.98 17.66 6 18 C6.09087891 19.25103516 6.09087891 19.25103516 6.18359375 20.52734375 C6.66828087 27.03706466 7.23091353 33.51769975 8 40 C7.34 40 6.68 40 6 40 C4.46571338 34.30122112 3.42359223 28.63369817 2.5078125 22.8046875 C2.04035936 19.85831054 2.04035936 19.85831054 0.875 16.5625 C-0.47130508 11.08111502 -0.15201803 5.6162215 0 0 Z " fill="#346FEB" transform="translate(227,312)"/>
<path d="M0 0 C1 3 1 3 0.13671875 4.734375 C-0.34152344 5.39953125 -0.81976563 6.0646875 -1.3125 6.75 C-1.86679687 7.54019531 -2.42109375 8.33039063 -2.9921875 9.14453125 C-3.65476562 10.08683594 -4.31734375 11.02914063 -5 12 C-6.22406437 13.82370096 -7.43621904 15.65498313 -8.64770508 17.48706055 C-12.996818 24.06382813 -17.43254119 30.57228479 -22 37 C-22.66 36.34 -23.32 35.68 -24 35 C-23.360625 34.4225 -22.72125 33.845 -22.0625 33.25 C-19.90218528 31.2655196 -19.90218528 31.2655196 -19.58203125 29.171875 C-18.81355439 26.30427009 -17.35959828 24.40062546 -15.625 22 C-15.01914062 21.154375 -14.41328125 20.30875 -13.7890625 19.4375 C-12.67946059 17.92572797 -11.56236091 16.41939153 -10.43359375 14.921875 C-8.6018177 12.46619703 -6.89629314 9.93032877 -5.18359375 7.390625 C-4.79300781 6.93171875 -4.40242188 6.4728125 -4 6 C-3.34 6 -2.68 6 -2 6 C-1.855625 5.195625 -1.71125 4.39125 -1.5625 3.5625 C-1 1 -1 1 0 0 Z " fill="#91A9EE" transform="translate(316,302)"/>
<path d="M0 0 C2 2 2 2 2.22705078 3.89073181 C2.21657715 4.65889725 2.20610352 5.42706268 2.1953125 6.21850586 C2.18870605 7.08958481 2.18209961 7.96066376 2.17529297 8.85813904 C2.15869629 9.80085159 2.14209961 10.74356415 2.125 11.71484375 C2.11742676 12.68152481 2.10985352 13.64820587 2.10205078 14.6441803 C2.06925834 18.79123263 2.01302719 22.93789573 1.95898438 27.0847168 C1.92290304 30.10724072 1.89865679 33.12970123 1.875 36.15234375 C1.85840332 37.09303207 1.84180664 38.0337204 1.82470703 39.00291443 C1.81810059 39.87714554 1.81149414 40.75137665 1.8046875 41.65209961 C1.79421387 42.42106064 1.78374023 43.19002167 1.77294922 43.98228455 C1.87948201 46.31558353 1.87948201 46.31558353 4 49 C4 50.32 4 51.64 4 53 C2.515 53.495 2.515 53.495 1 54 C0.09713249 50.91398919 -0.1216323 48.16638994 -0.11352539 44.95605469 C-0.11344986 43.95531921 -0.11337433 42.95458374 -0.11329651 41.92352295 C-0.10813522 40.85047913 -0.10297394 39.7774353 -0.09765625 38.671875 C-0.0962413 37.56773254 -0.09482635 36.46359009 -0.09336853 35.32598877 C-0.08777258 31.80063158 -0.07522079 28.27533798 -0.0625 24.75 C-0.05748448 22.35937592 -0.05292166 19.96875084 -0.04882812 17.578125 C-0.03780447 11.71872832 -0.02107033 5.8593687 0 0 Z " fill="#6092FB" transform="translate(246,352)"/>
<path d="M0 0 C3.375 0.25 3.375 0.25 7 1 C8.125 3 8.125 3 9 5 C11.55519921 5.81171228 11.55519921 5.81171228 14 6 C14 6.66 14 7.32 14 8 C14.721875 8.20625 15.44375 8.4125 16.1875 8.625 C19.9255306 10.45248163 21.49246917 12.70438806 24 16 C20.69026307 16 20.01340077 15.58167647 17.3828125 13.76953125 C16.69316406 13.29580078 16.00351563 12.82207031 15.29296875 12.33398438 C14.57753906 11.83189453 13.86210937 11.32980469 13.125 10.8125 C12.41730469 10.32974609 11.70960938 9.84699219 10.98046875 9.34960938 C6.91188667 6.52736203 3.3773468 3.62236999 0 0 Z " fill="#93A3DE" transform="translate(134,339)"/>
<path d="M0 0 C2.80254913 2.80254913 2.8814246 5.91826856 3.5 9.6875 C3.73619769 11.08781487 3.97575998 12.48756653 4.21875 13.88671875 C4.33734375 14.5729834 4.4559375 15.25924805 4.578125 15.96630859 C4.99646984 17.9829825 5.57703242 19.8765409 6.21875 21.83203125 C6.4765625 22.87746094 6.734375 23.92289063 7 25 C6.34 25.99 5.68 26.98 5 28 C4.34956281 26.27255984 3.70485156 24.5429631 3.0625 22.8125 C2.70285156 21.84957031 2.34320313 20.88664062 1.97265625 19.89453125 C0.34192698 15.04163812 -0.1187337 10.80476659 -0.0625 5.6875 C-0.05347656 4.61886719 -0.04445313 3.55023438 -0.03515625 2.44921875 C-0.02355469 1.64097656 -0.01195313 0.83273438 0 0 Z " fill="#838FDD" transform="translate(69,231)"/>
<path d="M0 0 C0.99 0.33 1.98 0.66 3 1 C-11.07867495 11.77018634 -11.07867495 11.77018634 -17 15 C-17.99 14.67 -18.98 14.34 -20 14 C-17.6875 11.5 -17.6875 11.5 -15 9 C-14.01 9 -13.02 9 -12 9 C-12 8.34 -12 7.68 -12 7 C-11.278125 6.7525 -10.55625 6.505 -9.8125 6.25 C-6.74678041 4.88745796 -4.56170882 3.14629658 -2 1 C-1.34 0.67 -0.68 0.34 0 0 Z " fill="#E4E7F7" transform="translate(346,347)"/>
<path d="M0 0 C0.99 0.33 1.98 0.66 3 1 C2.29379845 2.65581725 1.55912762 4.29951386 0.8125 5.9375 C0.40644531 6.85402344 0.00039062 7.77054687 -0.41796875 8.71484375 C-2 11 -2 11 -4.48828125 11.75390625 C-5.73158203 11.87572266 -5.73158203 11.87572266 -7 12 C-7.99 12.33 -8.98 12.66 -10 13 C-8.51082643 8.08572721 -5.55813338 4.59680874 -2 1 C-1.34 0.67 -0.68 0.34 0 0 Z " fill="#7B98E4" transform="translate(215,109)"/>
<path d="M0 0 C0.99 0.66 1.98 1.32 3 2 C1.74772034 7.00911863 0.16160983 9.01217756 -4 12 C-4.33 12.66 -4.66 13.32 -5 14 C-5.66 14 -6.32 14 -7 14 C-7 14.99 -7 15.98 -7 17 C-7.99 17.33 -8.98 17.66 -10 18 C-10 17.01 -10 16.02 -10 15 C-9.34 15 -8.68 15 -8 15 C-7.73445312 14.28457031 -7.46890625 13.56914062 -7.1953125 12.83203125 C-5.97085901 9.93095681 -4.52016937 7.36984136 -2.875 4.6875 C-2.33617187 3.80449219 -1.79734375 2.92148437 -1.2421875 2.01171875 C-0.83226562 1.34785156 -0.42234375 0.68398438 0 0 Z " fill="#B1CFFB" transform="translate(261,388)"/>
<path d="M0 0 C0.66 0.33 1.32 0.66 2 1 C1.34 1.66 0.68 2.32 0 3 C0.33 3.66 0.66 4.32 1 5 C0.38125 5.268125 -0.2375 5.53625 -0.875 5.8125 C-3.2995233 6.95556848 -3.2995233 6.95556848 -5 10 C-5.99 10 -6.98 10 -8 10 C-8.33 10.99 -8.66 11.98 -9 13 C-9.99 13.495 -9.99 13.495 -11 14 C-11.65213292 16.02463255 -11.65213292 16.02463255 -12 18 C-13.98 18.33 -15.96 18.66 -18 19 C-14.49089964 14.81560885 -10.91260704 10.8171776 -7 7 C-5.72783665 5.73049808 -4.45705804 4.45960735 -3.1875 3.1875 C-2.125 2.125 -1.0625 1.0625 0 0 Z " fill="#D7D1F4" transform="translate(337,181)"/>
<path d="M0 0 C0.99 0.33 1.98 0.66 3 1 C1.8553125 2.3303125 1.8553125 2.3303125 0.6875 3.6875 C-1.51637153 6.3284522 -3.23906527 9.04162966 -5 12 C-6.95759774 14.69926493 -8.97116902 17.35398419 -11 20 C-11 16.21986906 -9.81500116 14.82404588 -7.75 11.6875 C-7.11449219 10.71554687 -6.47898437 9.74359375 -5.82421875 8.7421875 C-4.92123047 7.38480469 -4.92123047 7.38480469 -4 6 C-3.55269531 5.32195312 -3.10539062 4.64390625 -2.64453125 3.9453125 C-1.76996971 2.62557704 -0.88637286 1.31183183 0 0 Z M-13 20 C-12.67 21.32 -12.34 22.64 -12 24 C-13.65 25.32 -15.3 26.64 -17 28 C-15.87548273 25.0280615 -14.77706209 22.66559313 -13 20 Z " fill="#B5D6FD" transform="translate(282,356)"/>
<path d="M0 0 C7.44072658 2.28413002 7.44072658 2.28413002 9.5625 5 C10 7 10 7 9 10 C9.99 10 10.98 10 12 10 C12.66 11.32 13.32 12.64 14 14 C13.34 14.66 12.68 15.32 12 16 C10.5 14.625 10.5 14.625 9 13 C9 12.34 9 11.68 9 11 C8.34 11 7.68 11 7 11 C5.2734375 9.1015625 5.2734375 9.1015625 3.375 6.625 C2.42753906 5.40683594 2.42753906 5.40683594 1.4609375 4.1640625 C0 2 0 2 0 0 Z " fill="#8F9EE2" transform="translate(97,301)"/>
<path d="M0 0 C2.52518799 3.78778199 3.74510239 7.64424594 5.1875 11.9375 C5.47302734 12.74896484 5.75855469 13.56042969 6.05273438 14.39648438 C6.45008789 15.57500977 6.45008789 15.57500977 6.85546875 16.77734375 C7.09934326 17.49140381 7.34321777 18.20546387 7.59448242 18.94116211 C8.05640677 21.28638065 7.74059885 22.75036376 7 25 C-2.09443906 8.10519226 -2.09443906 8.10519226 0 0 Z " fill="#C2C6ED" transform="translate(304,151)"/>
<path d="M0 0 C2 5.75 2 5.75 2 8 C1.01 8.33 0.02 8.66 -1 9 C-1.33 7.35 -1.66 5.7 -2 4 C-2.66 4.66 -3.32 5.32 -4 6 C-6.65537372 6.56520003 -9.29144713 6.73788198 -12 7 C-5.18421053 0 -5.18421053 0 0 0 Z " fill="#A5B2EB" transform="translate(248,79)"/>
<path d="M0 0 C0.66 0 1.32 0 2 0 C2.09765625 6.15234375 2.09765625 6.15234375 2 8 C1.67 8.33 1.34 8.66 1 9 C0.855625 10.155 0.71125 11.31 0.5625 12.5 C0.376875 13.655 0.19125 14.81 0 16 C-0.66 16.33 -1.32 16.66 -2 17 C-2.65555119 19.52733235 -2.65555119 19.52733235 -3 22 C-3.33 22 -3.66 22 -4 22 C-4.2248832 16.5957757 -3.4886411 12.18724757 -2 7.0625 C-1.80921875 6.37865234 -1.6184375 5.69480469 -1.421875 4.99023438 C-0.95595063 3.32455474 -0.47911589 1.66193325 0 0 Z " fill="#97ADE0" transform="translate(183,164)"/>
<path d="M0 0 C8.96908052 -0.65895285 16.50170541 1.22099564 25 4 C21.53148 6.31234667 20.52682952 6.18595596 16.5 5.8125 C15.06140625 5.69841797 15.06140625 5.69841797 13.59375 5.58203125 C10.68068393 4.92834624 9.97403339 4.12417114 8 2 C4.38976901 1.26958147 4.38976901 1.26958147 1 1 C0.67 1.66 0.34 2.32 0 3 C0 2.01 0 1.02 0 0 Z " fill="#9B9EE1" transform="translate(68,143)"/>
<path d="M0 0 C7.06666667 0.66666667 7.06666667 0.66666667 10 4 C11.64551962 4.71727778 13.31422289 5.38325228 15 6 C16.34050052 6.65213539 17.67661368 7.31379969 19 8 C19 8.99 19 9.98 19 11 C12.03264666 9.16648596 4.90283719 5.35000149 0 0 Z " fill="#99A8DE" transform="translate(182,370)"/>
<path d="M0 0 C2.22175281 1.75023895 2.94475643 2.60228592 3.34057617 5.4519043 C3.32486572 6.39976807 3.30915527 7.34763184 3.29296875 8.32421875 C3.28330078 9.35224609 3.27363281 10.38027344 3.26367188 11.43945312 C3.23853516 12.51130859 3.21339844 13.58316406 3.1875 14.6875 C3.16719727 16.31268555 3.16719727 16.31268555 3.14648438 17.97070312 C3.11110643 20.64763405 3.06174189 23.32356838 3 26 C0.80835056 22.71252584 0.71320614 21.51505175 0.5859375 17.67578125 C0.54726563 16.64775391 0.50859375 15.61972656 0.46875 14.56054688 C0.4378125 13.48869141 0.406875 12.41683594 0.375 11.3125 C0.33632813 10.22904297 0.29765625 9.14558594 0.2578125 8.02929688 C0.16349491 5.35303533 0.07789995 2.67678157 0 0 Z " fill="#AAB2EB" transform="translate(311,178)"/>
<path d="M0 0 C0 0.66 0 1.32 0 2 C-0.66 2 -1.32 2 -2 2 C-2 2.66 -2 3.32 -2 4 C-2.66 4 -3.32 4 -4 4 C-4 4.66 -4 5.32 -4 6 C-4.66 6 -5.32 6 -6 6 C-6.24492187 6.59296875 -6.48984375 7.1859375 -6.7421875 7.796875 C-8.20952109 10.36698726 -9.72292225 11.54529966 -12.125 13.25 C-12.84945313 13.77078125 -13.57390625 14.2915625 -14.3203125 14.828125 C-14.87460937 15.21484375 -15.42890625 15.6015625 -16 16 C-16.33 15.34 -16.66 14.68 -17 14 C-15.85611961 12.85611961 -14.71191726 11.71255995 -13.56640625 10.5703125 C-12.44408974 9.4451972 -11.32755048 8.31430749 -10.21484375 7.1796875 C-9.60769531 6.56351562 -9.00054687 5.94734375 -8.375 5.3125 C-7.80523437 4.73113281 -7.23546875 4.14976562 -6.6484375 3.55078125 C-2.87405542 0 -2.87405542 0 0 0 Z " fill="#E8E7F6" transform="translate(381,319)"/>
<path d="M0 0 C0.33 0 0.66 0 1 0 C1.27338445 5.37656087 1.38994303 8.56699758 -2 13 C-2.66 13.66 -3.32 14.32 -4 15 C-4.66 14.67 -5.32 14.34 -6 14 C-6.33 14.66 -6.66 15.32 -7 16 C-6.40165275 11.85701333 -4.99335715 8.81805623 -2.9375 5.1875 C-2.11572266 3.72376953 -2.11572266 3.72376953 -1.27734375 2.23046875 C-0.85582031 1.49441406 -0.43429688 0.75835937 0 0 Z " fill="#849EE1" transform="translate(195,136)"/>
<path d="M0 0 C0.66 0.33 1.32 0.66 2 1 C2.37890625 3.6171875 2.37890625 3.6171875 2.5625 6.875 C2.75886324 10.20115284 2.94375608 12.83126825 4 16 C2.35 15.67 0.7 15.34 -1 15 C-1.02685412 12.68756208 -1.04632841 10.3750373 -1.0625 8.0625 C-1.07410156 6.77472656 -1.08570313 5.48695313 -1.09765625 4.16015625 C-1 1 -1 1 0 0 Z " fill="#4963C5" transform="translate(244,392)"/>
<path d="M0 0 C0.33 0 0.66 0 1 0 C1.04898438 0.61488281 1.09796875 1.22976562 1.1484375 1.86328125 C1.22320312 2.67152344 1.29796875 3.47976562 1.375 4.3125 C1.44460937 5.11300781 1.51421875 5.91351563 1.5859375 6.73828125 C1.89564426 9.27224441 1.89564426 9.27224441 4 12 C4.14221065 14.60245498 4.18802932 17.09117684 4.125 19.6875 C4.11597656 20.38939453 4.10695313 21.09128906 4.09765625 21.81445312 C4.07413704 23.54311525 4.03826713 25.27160145 4 27 C-0.52178043 18.79239855 -0.28657512 9.12264124 0 0 Z " fill="#9FADEB" transform="translate(65,210)"/>
<path d="M0 0 C2.97 0 5.94 0 9 0 C8.67 0.99 8.34 1.98 8 3 C5.03 2.505 5.03 2.505 2 2 C1.95101562 2.69867188 1.90203125 3.39734375 1.8515625 4.1171875 C1.77679688 5.02726563 1.70203125 5.93734375 1.625 6.875 C1.52058594 8.23238281 1.52058594 8.23238281 1.4140625 9.6171875 C1 12 1 12 -1 14 C-1.98248524 9.9472484 -2.08159574 6.16138263 -2 2 C-1.34 2 -0.68 2 0 2 C0 1.34 0 0.68 0 0 Z " fill="#8187DD" transform="translate(69,144)"/>
<path d="M0 0 C3.92234364 0.54730376 7.45779454 1.17829434 11 3 C11.33 3.99 11.66 4.98 12 6 C14.00016466 7.20882096 14.00016466 7.20882096 16 8 C16 8.66 16 9.32 16 10 C12.06342758 8.56786488 8.71068644 6.69667846 5.1875 4.4375 C4.21167969 3.81746094 3.23585937 3.19742187 2.23046875 2.55859375 C1.49441406 2.04425781 0.75835937 1.52992188 0 1 C0 0.67 0 0.34 0 0 Z " fill="#ABB8E2" transform="translate(219,392)"/>
<path d="M0 0 C0.33 0 0.66 0 1 0 C1.19397476 1.97854258 1.38001321 3.9578648 1.5625 5.9375 C1.66691406 7.03964844 1.77132812 8.14179688 1.87890625 9.27734375 C1.91886719 10.17582031 1.95882812 11.07429687 2 12 C1.67 12.33 1.34 12.66 1 13 C0.92773498 14.85287502 0.9161878 16.70833878 0.9375 18.5625 C0.94652344 19.57441406 0.95554688 20.58632812 0.96484375 21.62890625 C0.97644531 22.41136719 0.98804688 23.19382813 1 24 C0.34 24.33 -0.32 24.66 -1 25 C-1.33 18.73 -1.66 12.46 -2 6 C-1.34 6 -0.68 6 0 6 C0 4.02 0 2.04 0 0 Z " fill="#5F88E1" transform="translate(180,180)"/>
<path d="M0 0 C0 3.69455912 -1.41030133 5.09312605 -3.5703125 7.9609375 C-5.57383686 10.81842307 -7.11956218 13.8733203 -8.69140625 16.984375 C-10.17060548 19.26278336 -11.75534588 20.50040021 -14 22 C-13.731875 21.484375 -13.46375 20.96875 -13.1875 20.4375 C-11.67650593 17.33598585 -10.34427274 14.17737194 -9 11 C-8.34 11 -7.68 11 -7 11 C-6.773125 10.29875 -6.54625 9.5975 -6.3125 8.875 C-4.68343133 5.30656387 -2.59359269 2.93485489 0 0 Z " fill="#CCC3F8" transform="translate(365,232)"/>
<path d="M0 0 C1.32 0 2.64 0 4 0 C4 0.99 4 1.98 4 3 C4.86625 3.0309375 4.86625 3.0309375 5.75 3.0625 C9.38390121 4.5766255 10.24850416 7.55956175 12 11 C10 10 8 9 6 8 C6 7.34 6 6.68 6 6 C5.38125 5.7525 4.7625 5.505 4.125 5.25 C1.64931313 3.79371361 1.04874998 2.62187494 0 0 Z " fill="#99A7DF" transform="translate(122,328)"/>
<path d="M0 0 C0.66 0.33 1.32 0.66 2 1 C-2.625 4 -2.625 4 -6 4 C-6.23460937 4.64453125 -6.46921875 5.2890625 -6.7109375 5.953125 C-8 8 -8 8 -10.1640625 8.609375 C-10.97617187 8.65578125 -11.78828125 8.7021875 -12.625 8.75 C-13.44226563 8.80671875 -14.25953125 8.8634375 -15.1015625 8.921875 C-15.72804688 8.94765625 -16.35453125 8.9734375 -17 9 C-13.70101352 6.30230662 -10.2321566 4.54362136 -6.375 2.75 C-5.22773438 2.20859375 -4.08046875 1.6671875 -2.8984375 1.109375 C-1.94195312 0.74328125 -0.98546875 0.3771875 0 0 Z " fill="#E5DEF6" transform="translate(384,153)"/>
<path d="M0 0 C4.14298667 0.59834725 7.18194377 2.00664285 10.8125 4.0625 C11.78832031 4.61035156 12.76414062 5.15820312 13.76953125 5.72265625 C14.50558594 6.14417969 15.24164063 6.56570312 16 7 C12.28272326 8.13583456 10.52948291 7.66670026 7 6 C7 5.34 7 4.68 7 4 C5.35 3.67 3.7 3.34 2 3 C2 2.34 2 1.68 2 1 C1.34 0.67 0.68 0.34 0 0 Z " fill="#ADAEE4" transform="translate(109,154)"/>
<path d="M0 0 C0 3.74706213 -1.04260246 4.76906031 -3.3125 7.6875 C-3.92738281 8.49574219 -4.54226563 9.30398438 -5.17578125 10.13671875 C-5.77777344 10.75160156 -6.37976563 11.36648438 -7 12 C-7.99 12 -8.98 12 -10 12 C-9.34 11.34 -8.68 10.68 -8 10 C-7.35232207 7.42938689 -7.35232207 7.42938689 -7 5 C-6.01 5 -5.02 5 -4 5 C-3.566875 4.0409375 -3.566875 4.0409375 -3.125 3.0625 C-2 1 -2 1 0 0 Z " fill="#EBE9F5" transform="translate(391,306)"/>
<path d="M0 0 C0.33 0 0.66 0 1 0 C1.04898438 0.83144531 1.09796875 1.66289062 1.1484375 2.51953125 C1.22320312 3.60621094 1.29796875 4.69289063 1.375 5.8125 C1.44460937 6.89144531 1.51421875 7.97039062 1.5859375 9.08203125 C1.81195733 12.18626186 1.81195733 12.18626186 4 15 C4 16.32 4 17.64 4 19 C3.01 19.33 2.02 19.66 1 20 C-0.14982602 15.90996141 -0.11094256 11.96822949 -0.0625 7.75 C-0.05798828 7.00492187 -0.05347656 6.25984375 -0.04882812 5.4921875 C-0.03709246 3.6614236 -0.0191585 1.83070127 0 0 Z " fill="#5C89ED" transform="translate(246,386)"/>
<path d="M0 0 C0.66 0 1.32 0 2 0 C0.23570801 4.97209562 -2.3939166 9.43438061 -5 14 C-5.66 12.68 -6.32 11.36 -7 10 C-5.88321917 8.3278148 -4.75633648 6.66237197 -3.625 5 C-2.99851562 4.071875 -2.37203125 3.14375 -1.7265625 2.1875 C-1.15679687 1.465625 -0.58703125 0.74375 0 0 Z " fill="#83A7EA" transform="translate(291,338)"/>
<path d="M0 0 C1.98 0.495 1.98 0.495 4 1 C4 1.66 4 2.32 4 3 C4.66 3 5.32 3 6 3 C5.67 4.32 5.34 5.64 5 7 C3.35 6.67 1.7 6.34 0 6 C-0.33 6.66 -0.66 7.32 -1 8 C-0.67 5.36 -0.34 2.72 0 0 Z " fill="#8176ED" transform="translate(154,184)"/>
<path d="M0 0 C0.33 1.32 0.66 2.64 1 4 C0.34 4 -0.32 4 -1 4 C-1.33 5.98 -1.66 7.96 -2 10 C-3.65 10 -5.3 10 -7 10 C-5.33248852 6.05860922 -2.77289351 3.2107188 0 0 Z " fill="#A4B6E7" transform="translate(221,100)"/>
<path d="M0 0 C3.16330864 1.05443621 4.06077138 1.38625708 6 4 C6.84845543 6.65011387 7.41844275 9.27115445 8 12 C4.74451247 8.97704729 2.31022942 5.79537691 0 2 C0 1.34 0 0.68 0 0 Z " fill="#A9B2E2" transform="translate(89,289)"/>
<path d="M0 0 C0.66 0 1.32 0 2 0 C1.67 1.32 1.34 2.64 1 4 C1 3.34 1 2.68 1 2 C0.34 1.67 -0.32 1.34 -1 1 C-0.67 0.67 -0.34 0.34 0 0 Z M-5 1 C-2.875 1.9375 -2.875 1.9375 -1 3 C-2.62366466 6.24732932 -5.75387839 6.70155136 -9 8 C-9 7.34 -9 6.68 -9 6 C-8.34 6 -7.68 6 -7 6 C-7 4.68 -7 3.36 -7 2 C-6.34 1.67 -5.68 1.34 -5 1 Z " fill="#7897EF" transform="translate(229,98)"/>
<path d="M0 0 C3.62632404 5.43948606 4.27607312 8.49202707 3 15 C0.27615178 9.94142473 -1.67947366 5.71021045 0 0 Z " fill="#BABFF0" transform="translate(304,151)"/>
<path d="M0 0 C0.66 0.33 1.32 0.66 2 1 C2 5.95 2 10.9 2 16 C0.13765381 12.27530762 -0.35999063 10.3338855 -0.6875 6.3125 C-0.81705078 4.85263672 -0.81705078 4.85263672 -0.94921875 3.36328125 C-0.96597656 2.58339844 -0.98273438 1.80351562 -1 1 C-0.67 0.67 -0.34 0.34 0 0 Z " fill="#D8CDEE" transform="translate(423,147)"/>
<path d="M0 0 C0.66 1.32 1.32 2.64 2 4 C1.01 4.33 0.02 4.66 -1 5 C-1.33 5.99 -1.66 6.98 -2 8 C-2.66 8 -3.32 8 -4 8 C-4 8.99 -4 9.98 -4 11 C-4.99 11.33 -5.98 11.66 -7 12 C-5.44298069 7.32894208 -2.91552627 3.91294315 0 0 Z " fill="#A1B4E1" transform="translate(204,122)"/>
<path d="M0 0 C2.8125 -0.3125 2.8125 -0.3125 6 0 C7.625 2.375 7.625 2.375 9 5 C11.06700655 6.32793606 11.06700655 6.32793606 13 7 C9.28400809 7.20086443 8.22791555 7.1519437 5 5 C5 4.34 5 3.68 5 3 C2.525 2.01 2.525 2.01 0 1 C0 0.67 0 0.34 0 0 Z " fill="#979FD4" transform="translate(235,402)"/>
<path d="M0 0 C0.66 0.33 1.32 0.66 2 1 C1.67 3.31 1.34 5.62 1 8 C-0.65 8 -2.3 8 -4 8 C-2.87548273 5.0280615 -1.77706209 2.66559313 0 0 Z " fill="#CFD6FC" transform="translate(317,304)"/>
<path d="M0 0 C-3.87684087 1.19287411 -6.91621923 2 -11 2 C-11 2.66 -11 3.32 -11 4 C-12.98 4.33 -14.96 4.66 -17 5 C-16.67 4.01 -16.34 3.02 -16 2 C-13.41796875 1.015625 -13.41796875 1.015625 -10.1875 0.25 C-9.12917969 -0.01296875 -8.07085937 -0.2759375 -6.98046875 -0.546875 C-4.18266064 -0.97222984 -2.62468156 -0.94056385 0 0 Z " fill="#D0C4F0" transform="translate(416,146)"/>
<path d="M0 0 C1.8125 0.125 1.8125 0.125 4 1 C5.8125 3.9375 5.8125 3.9375 7 7 C6.67 7.66 6.34 8.32 6 9 C4.99406757 7.8803014 3.9954151 6.7540588 3 5.625 C2.443125 4.99851562 1.88625 4.37203125 1.3125 3.7265625 C0 2 0 2 0 0 Z " fill="#B6BCEC" transform="translate(278,111)"/>
<path d="M0 0 C3.79588866 0.54226981 5.47211993 2.20127563 8 5 C7.67 5.99 7.34 6.98 7 8 C6.01 7.34 5.02 6.68 4 6 C4 5.34 4 4.68 4 4 C2.68 3.34 1.36 2.68 0 2 C0 1.34 0 0.68 0 0 Z " fill="#9FABDD" transform="translate(112,319)"/>
<path d="M0 0 C1.9375 0.625 1.9375 0.625 4 2 C4.875 4.9375 4.875 4.9375 5 8 C4.01 9.485 4.01 9.485 3 11 C2.49632243 9.54293274 1.99717444 8.08429904 1.5 6.625 C1.2215625 5.81289062 0.943125 5.00078125 0.65625 4.1640625 C0 2 0 2 0 0 Z " fill="#A0ACE4" transform="translate(71,248)"/>
<path d="M0 0 C0 3.67034745 -1.0752892 5.0999431 -3 8.1875 C-3.556875 9.08855469 -4.11375 9.98960937 -4.6875 10.91796875 C-5.120625 11.60503906 -5.55375 12.29210937 -6 13 C-7 10 -7 10 -5.5625 6.8125 C-5.046875 5.884375 -4.53125 4.95625 -4 4 C-3.34 4 -2.68 4 -2 4 C-1.34 2.68 -0.68 1.36 0 0 Z " fill="#CCC1F8" transform="translate(373,219)"/>
<path d="M0 0 C0.99 0.33 1.98 0.66 3 1 C2.09972412 2.03531726 1.17906965 3.05294165 0.25 4.0625 C-0.51570313 4.91521484 -0.51570313 4.91521484 -1.296875 5.78515625 C-3 7 -3 7 -5.203125 6.68359375 C-5.79609375 6.45800781 -6.3890625 6.23242188 -7 6 C-5.90716423 4.96704564 -4.80029421 3.94892165 -3.6875 2.9375 C-3.07261719 2.36902344 -2.45773437 1.80054688 -1.82421875 1.21484375 C-0.92123047 0.61349609 -0.92123047 0.61349609 0 0 Z " fill="#C5BDEF" transform="translate(343,178)"/>
<path d="M0 0 C2.625 0.375 2.625 0.375 5 1 C5 1.99 5 2.98 5 4 C3.02 4.33 1.04 4.66 -1 5 C-1.33 4.01 -1.66 3.02 -2 2 C-1.34 1.34 -0.68 0.68 0 0 Z " fill="#799AF5" transform="translate(233,91)"/>
<path d="M0 0 C2.31 0.33 4.62 0.66 7 1 C7 1.66 7 2.32 7 3 C7.66 3 8.32 3 9 3 C8.67 3.66 8.34 4.32 8 5 C6.02 5 4.04 5 2 5 C1.34 3.35 0.68 1.7 0 0 Z " fill="#7E7AE8" transform="translate(119,161)"/>
<path d="M0 0 C2.91488977 2.6234008 4.88503898 5.71816394 7 9 C6.67 9.66 6.34 10.32 6 11 C1.9957657 7.50912907 0.37328935 5.35048061 0 0 Z " fill="#C8CFF1" transform="translate(288,123)"/>
<path d="M0 0 C0.66 0.66 1.32 1.32 2 2 C0.35 3.32 -1.3 4.64 -3 6 C-4.32 5.34 -5.64 4.68 -7 4 C-4.61426621 2.10786631 -2.92824652 0.97608217 0 0 Z " fill="#88A4E7" transform="translate(229,95)"/>
<path d="M0 0 C0.66 0.33 1.32 0.66 2 1 C2 3.64 2 6.28 2 9 C1.01 8.67 0.02 8.34 -1 8 C-1.04241723 5.66705225 -1.04092937 3.33297433 -1 1 C-0.67 0.67 -0.34 0.34 0 0 Z " fill="#4062D5" transform="translate(244,392)"/>
<path d="M0 0 C0.99 0.33 1.98 0.66 3 1 C3 2.98 3 4.96 3 7 C1.02 6.34 -0.96 5.68 -3 5 C-2.34 4.34 -1.68 3.68 -1 3 C-0.67 2.01 -0.34 1.02 0 0 Z " fill="#6F89E7" transform="translate(221,386)"/>
<path d="M0 0 C0.33 0.99 0.66 1.98 1 3 C-0.21484375 5.26171875 -0.21484375 5.26171875 -1.9375 7.6875 C-2.50339844 8.49574219 -3.06929688 9.30398438 -3.65234375 10.13671875 C-4.09707031 10.75160156 -4.54179687 11.36648438 -5 12 C-5.33 11.01 -5.66 10.02 -6 9 C-5.34 8.01 -4.68 7.02 -4 6 C-3.34 6 -2.68 6 -2 6 C-1.855625 5.195625 -1.71125 4.39125 -1.5625 3.5625 C-1 1 -1 1 0 0 Z " fill="#A0ADF0" transform="translate(316,302)"/>
<path d="M0 0 C0.33 0.66 0.66 1.32 1 2 C0.07421875 3.9453125 0.07421875 3.9453125 -1.3125 6.125 C-1.98732422 7.21167969 -1.98732422 7.21167969 -2.67578125 8.3203125 C-3.11277344 8.87460937 -3.54976563 9.42890625 -4 10 C-4.66 10 -5.32 10 -6 10 C-6.33 10.66 -6.66 11.32 -7 12 C-6.67566492 6.64847115 -3.50295176 3.71719957 0 0 Z " fill="#A8ADF2" transform="translate(329,284)"/>
<path d="M0 0 C3.3 1.65 6.6 3.3 10 5 C10 5.99 10 6.98 10 8 C9.67 7.34 9.34 6.68 9 6 C7.34385343 5.61781233 5.67542976 5.28604898 4 5 C3.34 4.67 2.68 4.34 2 4 C2 3.34 2 2.68 2 2 C1.34 2 0.68 2 0 2 C0 1.34 0 0.68 0 0 Z " fill="#B4B0E5" transform="translate(126,162)"/>
<path d="M0 0 C4.50066475 1.06795435 8.7494534 2.14038586 13 4 C12.01 4.66 11.02 5.32 10 6 C7.3125 5.125 7.3125 5.125 5 4 C5 3.34 5 2.68 5 2 C3.68 2.33 2.36 2.66 1 3 C0.67 2.01 0.34 1.02 0 0 Z " fill="#B2B7E6" transform="translate(93,148)"/>
<path d="M0 0 C-0.99 0 -1.98 0 -3 0 C-3 0.66 -3 1.32 -3 2 C-5.57213134 3.61949011 -6.67669159 4.04408751 -9.75 3.625 C-10.4925 3.41875 -11.235 3.2125 -12 3 C-8.61613364 -0.38386636 -4.56431325 -1.75550509 0 0 Z " fill="#E5DDF6" transform="translate(403,148)"/>
<path d="M0 0 C0.66 0.66 1.32 1.32 2 2 C1.625 5.125 1.625 5.125 1 8 C0.01 7.67 -0.98 7.34 -2 7 C-2.33 7.66 -2.66 8.32 -3 9 C-2.44271087 5.65626525 -1.64826111 2.96687001 0 0 Z " fill="#A1B7E4" transform="translate(191,143)"/>
<path d="M0 0 C0 3 0 3 -1 5 C-1.66 5 -2.32 5 -3 5 C-3.33 6.65 -3.66 8.3 -4 10 C-4.66 10 -5.32 10 -6 10 C-6 9.01 -6 8.02 -6 7 C-5.34 7 -4.68 7 -4 7 C-3.896875 6.21625 -3.79375 5.4325 -3.6875 4.625 C-3 2 -3 2 0 0 Z " fill="#84A8E8" transform="translate(254,398)"/>
<path d="M0 0 C0 2.31 0 4.62 0 7 C-0.33 6.34 -0.66 5.68 -1 5 C-3.02463255 4.34786708 -3.02463255 4.34786708 -5 4 C-5 3.01 -5 2.02 -5 1 C-1.125 0 -1.125 0 0 0 Z " fill="#7E8FE3" transform="translate(85,270)"/>
<path d="M0 0 C2.97 0.33 5.94 0.66 9 1 C9 1.99 9 2.98 9 4 C4.73012377 4 3.40274199 3.36301527 0 1 C0 0.67 0 0.34 0 0 Z " fill="#9CAEE7" transform="translate(211,387)"/>
<path d="M0 0 C2.97 0 5.94 0 9 0 C9 0.66 9 1.32 9 2 C9.66 2.33 10.32 2.66 11 3 C9.54077307 2.88590407 8.08259402 2.75834456 6.625 2.625 C5.40683594 2.52058594 5.40683594 2.52058594 4.1640625 2.4140625 C2 2 2 2 0 0 Z " fill="#8687DB" transform="translate(100,153)"/>
<path d="M0 0 C0 0.66 0 1.32 0 2 C-4.455 2.495 -4.455 2.495 -9 3 C-9 2.01 -9 1.02 -9 0 C-5.62182575 -0.84454356 -3.32534757 -1.10844919 0 0 Z " fill="#767BE7" transform="translate(94,149)"/>
<path d="M0 0 C1.485 0.99 1.485 0.99 3 2 C3 2.66 3 3.32 3 4 C4.32 4.66 5.64 5.32 7 6 C7 6.66 7 7.32 7 8 C4.625 7.375 4.625 7.375 2 6 C0.6875 2.875 0.6875 2.875 0 0 Z " fill="#97A2DE" transform="translate(228,394)"/>
<path d="M0 0 C7.57142857 1.85714286 7.57142857 1.85714286 10 5 C5.75354935 5 3.61475228 3.18249194 0 1 C0 0.67 0 0.34 0 0 Z " fill="#A7B8E3" transform="translate(172,364)"/>
<path d="M0 0 C2.375 0.25 2.375 0.25 5 1 C6.3125 3.0625 6.3125 3.0625 7 5 C6.34 5.66 5.68 6.32 5 7 C3.5 5.625 3.5 5.625 2 4 C2 3.34 2 2.68 2 2 C1.34 2 0.68 2 0 2 C0 1.34 0 0.68 0 0 Z " fill="#A3AEE3" transform="translate(104,310)"/>
<path d="M0 0 C0.33 0 0.66 0 1 0 C1 2.31 1 4.62 1 7 C0.01 7.495 0.01 7.495 -1 8 C-1.65555119 10.52733235 -1.65555119 10.52733235 -2 13 C-2.33 13 -2.66 13 -3 13 C-3.125 9.625 -3.125 9.625 -3 6 C-2.34 5.34 -1.68 4.68 -1 4 C-0.3574765 1.93125966 -0.3574765 1.93125966 0 0 Z " fill="#7F9CE3" transform="translate(182,173)"/>
<path d="M0 0 C0.66 0.33 1.32 0.66 2 1 C2 1.66 2 2.32 2 3 C0.71211992 3.53012738 -0.58046678 4.0488329 -1.875 4.5625 C-2.95394531 4.99755859 -2.95394531 4.99755859 -4.0546875 5.44140625 C-6 6 -6 6 -8 5 C-6.71475739 4.13619741 -5.42157581 3.28419631 -4.125 2.4375 C-3.04605469 1.72400391 -3.04605469 1.72400391 -1.9453125 0.99609375 C-1.30335938 0.66738281 -0.66140625 0.33867187 0 0 Z " fill="#E1DBF6" transform="translate(365,162)"/>
<path d="M0 0 C0.99 1.32 1.98 2.64 3 4 C0.525 5.485 0.525 5.485 -2 7 C-2.6875 5.1875 -2.6875 5.1875 -3 3 C-1.5625 1.25 -1.5625 1.25 0 0 Z " fill="#6692F3" transform="translate(204,128)"/>
<path d="M0 0 C0.33 0.99 0.66 1.98 1 3 C-3.75 7.875 -3.75 7.875 -6 9 C-4.47291037 5.56404834 -2.40072955 2.88087546 0 0 Z " fill="#AEBFE1" transform="translate(213,110)"/>
<path d="M0 0 C0.99 0.33 1.98 0.66 3 1 C3 1.66 3 2.32 3 3 C4.32 3.66 5.64 4.32 7 5 C7 5.99 7 6.98 7 8 C6.67 7.34 6.34 6.68 6 6 C3.97536745 5.34786708 3.97536745 5.34786708 2 5 C2 4.01 2 3.02 2 2 C1.34 2 0.68 2 0 2 C0 1.34 0 0.68 0 0 Z " fill="#B1A8E3" transform="translate(158,185)"/>
<path d="M0 0 C-0.33 0.66 -0.66 1.32 -1 2 C-3.06640625 2.4140625 -3.06640625 2.4140625 -5.5625 2.625 C-6.38878906 2.69976562 -7.21507812 2.77453125 -8.06640625 2.8515625 C-9.02353516 2.92503906 -9.02353516 2.92503906 -10 3 C-4.375 -1.3125 -4.375 -1.3125 0 0 Z " fill="#D9D2F1" transform="translate(377,159)"/>
<path d="M0 0 C1.32 0 2.64 0 4 0 C4.33 1.32 4.66 2.64 5 4 C3.35 4.33 1.7 4.66 0 5 C0 3.35 0 1.7 0 0 Z " fill="#A8AFF5" transform="translate(257,90)"/>
<path d="M0 0 C-2.8125 2.0625 -2.8125 2.0625 -6 4 C-6.99 3.67 -7.98 3.34 -9 3 C-7.01532024 -0.96935951 -3.9567243 -1.41311582 0 0 Z " fill="#E3EAF8" transform="translate(321,366)"/>
<path d="M0 0 C0.66 0.99 1.32 1.98 2 3 C-2.75 6 -2.75 6 -5 6 C-3.86695008 2.60085025 -2.87481525 1.94745549 0 0 Z " fill="#C2DBFA" transform="translate(294,341)"/>
<path d="M0 0 C0.66 0 1.32 0 2 0 C3.85776765 3.13498292 4.20140476 5.37471432 4 9 C1.49701566 6.06171403 0.53069061 3.82097239 0 0 Z " fill="#A6B2E1" transform="translate(82,275)"/>
<path d="M0 0 C1.32 0.66 2.64 1.32 4 2 C-2.625 5 -2.625 5 -6 5 C-4.02 3.35 -2.04 1.7 0 0 Z " fill="#DED8F8" transform="translate(345,175)"/>
<path d="M0 0 C2.31 0.66 4.62 1.32 7 2 C7 2.66 7 3.32 7 4 C5.02 4.33 3.04 4.66 1 5 C0.67 3.35 0.34 1.7 0 0 Z " fill="#8078ED" transform="translate(128,166)"/>
<path d="M0 0 C3.71888239 0.50712033 6.73454239 1.11608215 10 3 C7.69 3.33 5.38 3.66 3 4 C3 3.01 3 2.02 3 1 C2.01 0.67 1.02 0.34 0 0 Z " fill="#ABAEEA" transform="translate(83,145)"/>
<path d="M0 0 C0.99 0.33 1.98 0.66 3 1 C2.67 1.99 2.34 2.98 2 4 C-1.0625 5.1875 -1.0625 5.1875 -4 6 C-4 5.34 -4 4.68 -4 4 C-3.34 4 -2.68 4 -2 4 C-2 3.34 -2 2.68 -2 2 C-1.34 2 -0.68 2 0 2 C0 1.34 0 0.68 0 0 Z " fill="#A9B9E9" transform="translate(229,91)"/>
<path d="M0 0 C2.64752004 2.57784846 4.94432065 4.91648098 7 8 C6.01 8 5.02 8 4 8 C0 2.74285714 0 2.74285714 0 0 Z " fill="#D0D2F4" transform="translate(268,97)"/>
</svg>
