<?xml version="1.0" encoding="UTF-8"?>
<svg version="1.1" xmlns="http://www.w3.org/2000/svg" width="833" height="300">
<path d="M0 0 C4.11868209 0.07771098 6.32840012 0.4291401 9.5 3.125 C10.7375 4.548125 10.7375 4.548125 12 6 C12.53367187 6.48339844 13.06734375 6.96679688 13.6171875 7.46484375 C25.13393353 17.93228625 28.91271841 32.55580578 33 47 C33.76570313 46.27296875 33.76570313 46.27296875 34.546875 45.53125 C45.8137884 35.14331566 58.40920638 26.77474452 74 25 C74.66 25.33 75.32 25.66 76 26 C76.52772744 28.48741704 76.90364272 30.85594076 77.1875 33.375 C77.31547974 34.5055481 77.31547974 34.5055481 77.44604492 35.65893555 C79.35853459 55.10957496 76.966712 75.673751 64.3984375 91.4140625 C63.60695312 92.26742187 62.81546875 93.12078125 62 94 C61.34 94 60.68 94 60 94 C59.62875 95.175625 59.62875 95.175625 59.25 96.375 C57.84610901 99.32317108 56.99324263 99.9024777 54 101 C54 101.66 54 102.32 54 103 C53.21625 103.2475 52.4325 103.495 51.625 103.75 C48.52320565 105.22704493 48.43481903 106.02725702 47 109 C41.19233137 114.78357042 34.4158117 118.24439392 27.1875 122 C24.92975637 123.18515367 22.67322765 124.37262488 20.41796875 125.5625 C19.33435059 126.13097656 18.25073242 126.69945312 17.13427734 127.28515625 C13.34293806 129.35949549 9.7163889 131.6449571 6.11450195 134.03125 C4 135 4 135 2.06103516 134.84985352 C-0.59138214 133.75614769 -2.94804507 132.39068009 -5.40234375 130.90234375 C-6.45131836 130.26973633 -7.50029297 129.63712891 -8.58105469 128.98535156 C-9.68868164 128.30956055 -10.79630859 127.63376953 -11.9375 126.9375 C-13.08089069 126.24289403 -14.22444583 125.5485587 -15.36816406 124.85449219 C-17.59728837 123.50033926 -19.82535045 122.14443593 -22.05224609 120.78662109 C-24.38398327 119.37336512 -26.72375079 117.98142019 -29.08203125 116.61328125 C-49.18742316 104.78803841 -63.81057142 88.76910033 -70.17529297 65.94140625 C-71.59231957 59.87033586 -71.52308235 53.74865348 -71.41162109 47.54663086 C-71.37448027 45.40756676 -71.3706077 43.27021658 -71.37109375 41.13085938 C-71.29060365 29.8262619 -71.29060365 29.8262619 -69 25 C-55.61496909 27.33459842 -44.49988768 32.38891558 -34.1328125 41.19921875 C-31.54730135 43.38222358 -28.85730875 45.19538395 -26 47 C-25.91363281 46.35675781 -25.82726563 45.71351562 -25.73828125 45.05078125 C-22.77078248 25.96622494 -13.25143079 13.25143079 0 0 Z " fill="#C0CBF9" transform="translate(71,65)"/>
<path d="M0 0 C0.99 0.66 1.98 1.32 3 2 C3.36914349 4.30758858 3.36914349 4.30758858 3.36076355 7.2517395 C3.36488754 8.36515717 3.36901154 9.47857483 3.3732605 10.62573242 C3.36247467 11.85283936 3.35168884 13.07994629 3.34057617 14.34423828 C3.34123329 16.27588333 3.34123329 16.27588333 3.34190369 18.24655151 C3.34276651 21.78363511 3.32509477 25.32041519 3.30418181 28.85742807 C3.28546253 32.55165485 3.28366834 36.24588814 3.28010559 39.94015503 C3.27077111 46.93835087 3.24613847 53.93640657 3.21605712 60.93454063 C3.18255664 68.90055836 3.16603808 76.86658268 3.15097082 84.83265328 C3.11959004 101.22185097 3.06680244 117.61090762 3 134 C-0.71175941 134 -2.14695553 132.92177133 -5.3046875 131 C-6.8829834 130.04625488 -6.8829834 130.04625488 -8.49316406 129.07324219 C-9.60916992 128.38907227 -10.72517578 127.70490234 -11.875 127 C-13.02286184 126.30069602 -14.17097432 125.60180328 -15.31933594 124.90332031 C-17.55970198 123.53880961 -19.79867724 122.17201229 -22.03613281 120.80273438 C-24.37370097 119.38093839 -26.71942777 117.98202565 -29.0859375 116.609375 C-49.19186394 104.79404045 -63.81275575 88.76126602 -70.17529297 65.94140625 C-71.59231957 59.87033586 -71.52308235 53.74865348 -71.41162109 47.54663086 C-71.37448027 45.40756676 -71.3706077 43.27021658 -71.37109375 41.13085938 C-71.29060365 29.8262619 -71.29060365 29.8262619 -69 25 C-55.61496909 27.33459842 -44.49988768 32.38891558 -34.1328125 41.19921875 C-31.54730135 43.38222358 -28.85730875 45.19538395 -26 47 C-25.91363281 46.35675781 -25.82726563 45.71351562 -25.73828125 45.05078125 C-22.77078248 25.96622494 -13.25143079 13.25143079 0 0 Z " fill="#5677E6" transform="translate(71,65)"/>
<path d="M0 0 C6.72832308 3.631376 11.78117525 7.92963705 14.91796875 15.03515625 C15.52611538 17.4359739 15.76254026 19.54830034 15.91796875 22.03515625 C7.31887824 24.47156523 7.31887824 24.47156523 3.91796875 23.03515625 C2.609375 21.328125 2.609375 21.328125 1.48046875 19.22265625 C-0.97325744 14.99679448 -3.66196332 12.24519021 -8.08203125 10.03515625 C-18.13357965 9.19229168 -18.13357965 9.19229168 -27.08203125 13.03515625 C-29.48711214 15.90573667 -30.08203125 17.34376159 -30.08203125 21.09765625 C-28.80280613 24.85538003 -27.33778004 25.80125253 -24.08203125 28.03515625 C-20.74117073 29.44276933 -20.74117073 29.44276933 -17.08203125 30.53515625 C-16.42775146 30.74599854 -15.77347168 30.95684082 -15.09936523 31.17407227 C-11.91216552 32.19309843 -8.71704695 33.13643046 -5.4921875 34.03125 C2.70957906 36.33769777 9.34048666 39.05585561 14.35546875 46.22265625 C17.36193531 51.63429606 17.76204586 56.59433237 16.3046875 62.53515625 C14.08511961 68.94941413 10.81230693 73.54667039 4.91796875 77.03515625 C-1.36856813 79.77809713 -7.2052089 80.55448835 -14.01953125 80.47265625 C-14.89617432 80.46580811 -15.77281738 80.45895996 -16.67602539 80.4519043 C-24.72136847 80.25209901 -30.73012889 78.87698651 -36.95703125 73.59765625 C-37.65828125 72.75203125 -38.35953125 71.90640625 -39.08203125 71.03515625 C-40.16484375 69.79765625 -40.16484375 69.79765625 -41.26953125 68.53515625 C-44.54828855 64.01273239 -45.34105475 60.60416155 -45.08203125 55.03515625 C-41.28342389 54.48767014 -37.85798248 54.2569865 -34.08203125 55.03515625 C-32.0102843 57.11562635 -30.81686678 59.19839717 -29.4140625 61.76953125 C-27.23866212 65.46962574 -24.32760835 67.34420945 -20.203125 68.61328125 C-13.30088732 69.986102 -7.21404498 69.46908394 -1.08203125 66.03515625 C2.12531156 63.24983223 3.72574454 61.47683782 4.29296875 57.22265625 C4.17766368 53.89875775 4.17766368 53.89875775 1.85546875 51.34765625 C-5.10951909 45.86458071 -14.13308065 44.17967549 -22.54492188 41.90429688 C-30.08729754 39.72737188 -36.26599355 36.85043314 -41.01953125 30.41015625 C-43.98390166 23.78391652 -43.64202852 17.75692672 -41.12890625 11.02734375 C-33.63629676 -3.23098028 -13.93541602 -5.79519235 0 0 Z " fill="#363D4D" transform="translate(441.08203125,107.96484375)"/>
<path d="M0 0 C5.70231736 3.92406857 9.82567924 8.33765817 12 15 C12.25 18 12.25 18 12 20 C9.47524538 21.26237731 7.68799534 21.09856404 4.875 21.0625 C3.96492188 21.05347656 3.05484375 21.04445312 2.1171875 21.03515625 C1.06917969 21.01775391 1.06917969 21.01775391 0 21 C-0.38091797 20.18595703 -0.38091797 20.18595703 -0.76953125 19.35546875 C-1.11371094 18.64003906 -1.45789063 17.92460938 -1.8125 17.1875 C-2.14894531 16.47980469 -2.48539062 15.77210937 -2.83203125 15.04296875 C-5.12710577 11.02850729 -7.57490785 9.34981228 -12 8 C-15.14978633 7.68504307 -15.14978633 7.68504307 -18.4375 7.75 C-19.52933594 7.74484375 -20.62117188 7.7396875 -21.74609375 7.734375 C-25.14345294 8.01171044 -27.84757285 8.72062081 -31 10 C-33.43613109 12.87906401 -33.49472559 16.45490911 -33.359375 20.109375 C-33.11129156 22.22328566 -33.11129156 22.22328566 -31.1875 24.25 C-24.30129881 28.03065948 -17.03683176 30.01550729 -9.4375 31.875 C-1.81352269 33.86251343 5.86155568 36.46948382 10.5625 43.1875 C13.6308289 49.19075219 14.16710443 55.71070537 12.38671875 62.25390625 C9.44599302 68.87377782 3.87733622 73.90792337 -2.6875 76.875 C-11.77325196 79.96072708 -22.9385015 80.5672683 -32 77 C-39.12733087 73.1813996 -44.5140901 68.37354176 -48 61 C-48.66724364 58.55941084 -48.89165971 56.54599673 -49 54 C-47.37681021 53.63762737 -45.7513642 53.28534843 -44.125 52.9375 C-42.76761719 52.64166016 -42.76761719 52.64166016 -41.3828125 52.33984375 C-39 52 -39 52 -37 53 C-36.41854434 54.23199517 -35.88340788 55.48610752 -35.375 56.75 C-33.07575753 61.56457915 -29.78568714 63.82213847 -25 66 C-17.8822326 68.18147685 -11.49680745 67.45497793 -4.88671875 64.12109375 C-2.35907956 62.61916322 -1.12185402 61.76723992 0 59 C0.68942736 55.78267234 0.78407149 53.20523781 0 50 C-6.04646201 43.77228522 -16.42786976 42.30402516 -24.4453125 40.12695312 C-32.8027058 37.72735354 -38.50986895 34.6646376 -44.5 28.375 C-47.15405576 22.40337455 -47.0226146 16.4071445 -45.15234375 10.17578125 C-42.48706042 4.13146076 -39.11533509 0.53923948 -33 -2 C-22.43988374 -5.55788863 -9.75640251 -5.92727679 0 0 Z " fill="#4D63D8" transform="translate(284,110)"/>
<path d="M0 0 C1.18851562 0.00902344 2.37703125 0.01804687 3.6015625 0.02734375 C4.51679688 0.03894531 5.43203125 0.05054687 6.375 0.0625 C9.08738393 5.93582299 11.45104668 11.83030589 13.51171875 17.9609375 C13.79283005 18.78613892 14.07394135 19.61134033 14.36357117 20.46154785 C15.26749044 23.11876941 16.16526704 25.77801408 17.0625 28.4375 C17.68482257 30.27368027 18.30738281 32.10978001 18.93017578 33.94580078 C20.46647047 38.4788907 21.9971135 43.01386781 23.52642822 47.54931641 C24.55188184 50.58636438 25.58270759 53.62156793 26.614151 56.65658569 C27.66383213 59.74874097 28.70682554 62.84314464 29.75 65.9375 C30.12471436 67.04013184 30.49942871 68.14276367 30.88549805 69.27880859 C31.38690308 70.77661865 31.38690308 70.77661865 31.8984375 72.3046875 C32.18638184 73.1591748 32.47432617 74.01366211 32.77099609 74.89404297 C33.375 77.0625 33.375 77.0625 33.375 80.0625 C29.745 80.0625 26.115 80.0625 22.375 80.0625 C19.36858785 73.74903449 17.958498 69.18824101 16.375 62.0625 C5.485 62.0625 -5.405 62.0625 -16.625 62.0625 C-18.11 67.0125 -18.11 67.0125 -19.625 72.0625 C-20.60118706 74.73797565 -21.5927526 77.40814953 -22.625 80.0625 C-25.925 80.0625 -29.225 80.0625 -32.625 80.0625 C-32.23448448 70.62504166 -29.31109607 62.33069693 -26.25 53.5 C-25.71138072 51.92311877 -25.17379849 50.34588297 -24.63720703 48.76831055 C-23.80783276 46.33095539 -22.9774897 43.89396882 -22.14291382 41.45838928 C-20.20077593 35.78620774 -18.31208091 30.09837774 -16.453125 24.3984375 C-15.95111685 22.86528047 -15.44900306 21.33215803 -14.94677734 19.79907227 C-14.22523966 17.59607571 -13.50567176 15.39254957 -12.79278564 13.18673706 C-12.13688392 11.15995131 -11.47186188 9.13637904 -10.8046875 7.11328125 C-10.43069824 5.96512939 -10.05670898 4.81697754 -9.67138672 3.6340332 C-7.76917805 -1.04071338 -4.58081346 -0.04490994 0 0 Z M0.375 15.0625 C-3.9279072 22.09058177 -6.6583241 28.84578066 -8.74609375 36.8125 C-9.48601029 39.54854694 -10.33489298 42.11828735 -11.375 44.75 C-12.80152863 47.94021715 -12.80152863 47.94021715 -12.625 51.0625 C-4.705 51.0625 3.215 51.0625 11.375 51.0625 C10.6470402 45.96678141 9.82992805 41.85628608 8.30859375 37.03515625 C8.11024429 36.40137558 7.91189484 35.76759491 7.70753479 35.11460876 C7.08091823 33.11643813 6.44685639 31.12072526 5.8125 29.125 C5.38296626 27.759922 4.95392522 26.39468886 4.52539062 25.02929688 C3.48094441 21.70522049 2.42981346 18.38330321 1.375 15.0625 C1.045 15.0625 0.715 15.0625 0.375 15.0625 Z " fill="#4C7DDF" transform="translate(335.625,106.9375)"/>
<path d="M0 0 C8.06239639 8.83024366 8.625 17.00074246 8.625 28.875 C-5.895 28.875 -20.415 28.875 -35.375 28.875 C-33.6647523 37.76785978 -33.6647523 37.76785978 -28.375 43.875 C-23.66167344 46.23166328 -18.55877683 46.63019051 -13.375 45.875 C-9.71911208 43.97675051 -7.64304905 42.20825017 -5.0625 39 C-2.375 36.875 -2.375 36.875 -0.09765625 36.8984375 C2.31829655 37.36407137 4.40376367 37.81027515 6.625 38.875 C7.625 41.875 7.625 41.875 6.1875 45.1875 C1.9991007 51.94897738 -4.30348855 55.45364022 -11.86328125 57.41015625 C-19.16925982 58.76227359 -26.97819357 58.50654585 -33.4765625 54.6171875 C-40.99181286 49.24110953 -45.86581653 43.18613088 -48.0625 34 C-49.18106007 22.8143993 -47.99447203 12.01015659 -40.83984375 2.92578125 C-29.72125761 -9.15523376 -13.09694387 -8.24622392 0 0 Z M-28.375 7.875 C-31.23818464 10.52868333 -32.27929648 11.79833536 -32.625 15.6875 C-32.5425 16.409375 -32.46 17.13125 -32.375 17.875 C-28.67240557 20.24054644 -25.44461478 20.11059288 -21.125 20.0625 C-20.45911865 20.05605469 -19.7932373 20.04960937 -19.10717773 20.04296875 C-14.45569887 19.97035144 -9.9618554 19.62387435 -5.375 18.875 C-4.3499281 15.61340759 -4.1573795 14.32060389 -5.6875 11.1875 C-8.91477238 6.76494155 -11.38778108 6.02742704 -16.63671875 5.0703125 C-21.03133447 4.75685917 -24.53180481 5.76946129 -28.375 7.875 Z " fill="#333B4A" transform="translate(512.375,131.125)"/>
<path d="M0 0 C5.81764741 5.08897238 8.72168749 10.41022133 10 18 C10.06972019 20.10833867 10.09110246 22.21877843 10.06640625 24.328125 C10.05681885 25.39450195 10.04723145 26.46087891 10.03735352 27.55957031 C10.02502686 28.36491211 10.0127002 29.17025391 10 30 C8.73816895 30.02505615 7.47633789 30.0501123 6.17626953 30.07592773 C1.50591431 30.16992106 -3.16428937 30.27016131 -7.83447266 30.37231445 C-9.85787416 30.41569395 -11.88131299 30.45736678 -13.90478516 30.49731445 C-16.80903384 30.55494408 -19.71309411 30.6186594 -22.6171875 30.68359375 C-23.52556366 30.70030624 -24.43393982 30.71701874 -25.36984253 30.73423767 C-26.21056305 30.75418289 -27.05128357 30.77412811 -27.91748047 30.79467773 C-29.03000687 30.81799416 -29.03000687 30.81799416 -30.16500854 30.84178162 C-32.09674104 30.89473496 -32.09674104 30.89473496 -34 32 C-30.55825161 40.98980027 -30.55825161 40.98980027 -23.1875 46.8125 C-16.57645183 47.37916127 -12.85181735 47.32489622 -7 44 C-6.2575 43.87625 -5.515 43.7525 -4.75 43.625 C-2.6882803 43.11853459 -2.6882803 43.11853459 -1.75 40.4375 C-1.5025 39.633125 -1.255 38.82875 -1 38 C3.11574371 38.4748935 6.36383344 39.0210244 10 41 C6.50986685 49.09710891 2.28372293 53.98881926 -6.02172852 57.39135742 C-9.58968863 58.48908969 -13.10278405 58.53105845 -16.8125 58.5 C-17.60495117 58.49427979 -18.39740234 58.48855957 -19.21386719 58.48266602 C-27.50685952 58.23041092 -33.56575782 55.85067783 -39.375 49.8125 C-46.40990521 40.43928823 -47.27068818 30.34999814 -46 19 C-44.29452479 10.58363123 -40.22146754 3.47424532 -32.98046875 -1.34375 C-23.19665038 -6.58174071 -9.0941734 -6.89558203 0 0 Z M-29.875 11.875 C-31.22312842 14.4214648 -31.23681032 16.15827618 -31 19 C-22.34219095 21.88593635 -12.92185984 21.02822853 -4 20 C-2.82248518 15.99125468 -3.05870084 13.80171086 -5 10 C-12.84287649 5.0982022 -23.1182389 5.1182389 -29.875 11.875 Z " fill="#343B4B" transform="translate(759,130)"/>
<path d="M0 0 C5.45990088 0.38092332 7.40843679 1.97044128 11 6 C11.53496094 6.48339844 12.06992188 6.96679688 12.62109375 7.46484375 C23.87037628 17.71196303 30.66871805 34.94383507 32 50 C31.67 50.66 31.34 51.32 31 52 C30.34 52 29.68 52 29 52 C28.72542969 52.73863281 28.45085937 53.47726563 28.16796875 54.23828125 C27.08097756 56.80852463 25.85211515 58.8717501 24.3125 61.1875 C16.11042428 74.79094265 12.61317929 89.75392677 9.56738281 105.18017578 C8.6751487 109.61447183 7.68161664 114.02513442 6.6875 118.4375 C6.35780944 119.91530583 6.02835343 121.39316402 5.69921875 122.87109375 C5.46847656 123.90363281 5.23773438 124.93617188 5 126 C7.35729943 123.80861021 9.02057098 121.56068027 10.6875 118.8125 C11.12449219 118.09707031 11.56148437 117.38164062 12.01171875 116.64453125 C12.33785156 116.10183594 12.66398437 115.55914062 13 115 C13.33 115.99 13.66 116.98 14 118 C12.6015625 120.55859375 12.6015625 120.55859375 10.625 123.4375 C8.00301721 127.07208234 8.00301721 127.07208234 6.5859375 131.22265625 C6.39257812 131.80917969 6.19921875 132.39570313 6 133 C4.35575976 133.72020571 2.68848546 134.39070609 1 135 C1.00092179 134.31639719 1.00184359 133.63279438 1.00279331 132.92847633 C1.02485565 116.31248122 1.04141503 99.69649073 1.05181217 83.08048439 C1.05697349 75.04518738 1.06401308 67.00990012 1.07543945 58.97460938 C1.08539128 51.97292619 1.09185462 44.97125008 1.09408849 37.96956003 C1.09539475 34.26053707 1.09847525 30.55153434 1.10573006 26.84251785 C1.11375382 22.7070144 1.11399081 18.57154636 1.11352539 14.43603516 C1.11712067 13.19957748 1.12071594 11.96311981 1.12442017 10.68919373 C1.1230455 9.56736191 1.12167084 8.44553009 1.12025452 7.28970337 C1.12117631 6.31075922 1.1220981 5.33181507 1.12304783 4.32320595 C1.15369312 1.97465215 1.15369312 1.97465215 0 0 Z " fill="#86A5F3" transform="translate(72,65)"/>
<path d="M0 0 C3.12192435 2.56374245 5.26749183 4.82494302 6.81640625 8.60546875 C6.94140625 11.85546875 6.94140625 11.85546875 6.81640625 14.60546875 C3.59892643 16.21420866 0.28314226 16.35820625 -3.18359375 15.60546875 C-5.43359375 12.73046875 -5.43359375 12.73046875 -7.18359375 9.60546875 C-10.54532651 7.28463948 -13.67572504 7.30675729 -17.68359375 7.29296875 C-18.80765625 7.27621094 -19.93171875 7.25945312 -21.08984375 7.2421875 C-24.41878172 7.63308552 -25.76273851 8.3566841 -28.18359375 10.60546875 C-28.40150094 13.48944375 -28.40150094 13.48944375 -27.18359375 16.60546875 C-22.57550422 19.95888044 -16.58995905 21.0727654 -11.18359375 22.54296875 C-4.32703663 24.44056726 1.84262156 26.54156937 6.87890625 31.73046875 C8.74648689 37.45771604 8.58834954 43.28963887 6.69140625 48.98046875 C3.32114598 53.69883313 -0.63439949 56.92659605 -6.18359375 58.60546875 C-9.45761723 58.94210629 -12.7067797 58.97562796 -15.99609375 58.98046875 C-16.86041016 59.00496094 -17.72472656 59.02945313 -18.61523438 59.0546875 C-26.15847084 59.08884555 -31.30383238 57.10126194 -36.99609375 52.16796875 C-39.11308746 49.68806184 -40.84443911 47.58136795 -42.18359375 44.60546875 C-41.87109375 41.79296875 -41.87109375 41.79296875 -41.18359375 39.60546875 C-38.09541964 38.70912797 -35.39238634 38.20755806 -32.18359375 38.60546875 C-29.93555462 40.44671985 -28.38824464 42.37003491 -26.69140625 44.72265625 C-25.23553728 46.88972454 -25.23553728 46.88972454 -22.18359375 47.60546875 C-13.60160712 48.47700858 -13.60160712 48.47700858 -5.87109375 45.41796875 C-4.08688635 42.44428976 -3.69857205 41.00062065 -4.18359375 37.60546875 C-9.07734054 35.24598369 -13.87765809 33.35139456 -19.08544922 31.84033203 C-35.2927984 27.12937575 -35.2927984 27.12937575 -39.38671875 20.72265625 C-41.07996505 16.22393323 -41.01012221 11.08975032 -39.49609375 6.5390625 C-36.95860056 1.64381521 -33.46354186 -1.18101979 -28.3359375 -3.078125 C-19.09177402 -5.7429435 -8.26530309 -5.27855671 0 0 Z " fill="#343C4B" transform="translate(819.18359375,129.39453125)"/>
<path d="M0 0 C3.2462323 3.34460298 5.89852127 6.23924466 6.3125 11 C6.23 11.70125 6.1475 12.4025 6.0625 13.125 C4.79642393 13.65729326 3.52439588 14.17544544 2.25 14.6875 C1.54230469 14.97753906 0.83460938 15.26757812 0.10546875 15.56640625 C-1.9375 16.125 -1.9375 16.125 -4.9375 15.125 C-5.494375 14.17625 -6.05125 13.2275 -6.625 12.25 C-9.57096125 8.26897129 -12.10816489 6.9822282 -16.9375 6.125 C-20.01617378 6.14016588 -22.92368442 6.51317278 -25.9375 7.125 C-26.66324219 7.27195313 -27.38898437 7.41890625 -28.13671875 7.5703125 C-30.07488825 7.95741014 -30.07488825 7.95741014 -31 9.75 C-31.309375 10.53375 -31.61875 11.3175 -31.9375 12.125 C-32.47375 13.094375 -33.01 14.06375 -33.5625 15.0625 C-36.35856144 21.68174748 -35.9973981 30.09437255 -33.5 36.75 C-32.984375 37.86375 -32.46875 38.9775 -31.9375 40.125 C-31.6075 41.115 -31.2775 42.105 -30.9375 43.125 C-28.56124655 44.30891223 -28.56124655 44.30891223 -25.9375 45.125 C-24.4525 45.62 -24.4525 45.62 -22.9375 46.125 C-17.35330827 46.49117651 -13.71102202 46.3796741 -8.9375 43.125 C-6.57047941 40.07702627 -6.57047941 40.07702627 -4.9375 37.125 C-3.47869891 37.26607747 -2.02046449 37.41302415 -0.5625 37.5625 C0.24960937 37.64371094 1.06171875 37.72492188 1.8984375 37.80859375 C4.0625 38.125 4.0625 38.125 6.0625 39.125 C5.92676665 44.55433419 3.65179169 47.28290954 0.2421875 51.1953125 C-5.91906081 56.64989434 -10.77039486 57.82623498 -18.8125 57.6875 C-20.14595459 57.67106445 -20.14595459 57.67106445 -21.50634766 57.65429688 C-29.25509768 57.39729024 -34.29998323 56.00610049 -39.6875 50.2578125 C-46.98177627 41.24517307 -48.69660447 31.77167431 -47.6875 20.27734375 C-46.40213683 12.85207615 -43.39508272 5.43896213 -37.9375 0.125 C-25.14248327 -7.42791122 -12.89662462 -8.23188806 0 0 Z " fill="#353C4B" transform="translate(700.9375,130.875)"/>
<path d="M0 0 C21.12 0 42.24 0 64 0 C64 3.3 64 6.6 64 10 C55.09 10 46.18 10 37 10 C37 32.77 37 55.54 37 79 C33.7 79 30.4 79 27 79 C27 56.23 27 33.46 27 10 C18.09 10 9.18 10 0 10 C0 6.7 0 3.4 0 0 Z " fill="#4A49D5" transform="translate(167,108)"/>
<path d="M0 0 C3.3 0 6.6 0 10 0 C13.9771991 8.48533497 17.08277392 17.25282864 20.25 26.0625 C20.80959498 27.61143685 21.3694884 29.16026591 21.9296875 30.70898438 C23.28990269 34.47142226 24.64606949 38.23529622 26 42 C29.87746248 33.08204455 33.15112549 24.02022139 36.25 14.8125 C36.91739261 12.83415761 37.58601394 10.85626801 38.25823975 8.87956238 C38.85788469 7.11583013 39.45299973 5.35055966 40.04785156 3.58520508 C41 1 41 1 42 0 C43.85287502 -0.07226502 45.70833878 -0.0838122 47.5625 -0.0625 C48.57441406 -0.05347656 49.58632813 -0.04445313 50.62890625 -0.03515625 C51.41136719 -0.02355469 52.19382812 -0.01195313 53 0 C51.70175839 6.4075151 49.94511241 12.37562646 47.6640625 18.49609375 C47.34343842 19.36968033 47.02281433 20.24326691 46.69247437 21.14332581 C45.67533067 23.91005487 44.65014226 26.67372614 43.625 29.4375 C42.94481787 31.28692753 42.26512629 33.13653556 41.5859375 34.98632812 C40.92492384 36.78141381 40.26347956 38.57634099 39.6015625 40.37109375 C39.30037506 41.18807236 38.99918762 42.00505096 38.68887329 42.8467865 C36.55276766 48.60300089 34.30352522 54.30881891 32 60 C30.22916667 60.10416667 28.45833333 60.20833333 26.6875 60.3125 C25.70136719 60.37050781 24.71523438 60.42851562 23.69921875 60.48828125 C21 60 21 60 19.3671875 58.11328125 C17.4640851 53.77964522 15.93658395 49.36234937 14.4375 44.875 C12.13827629 38.09735539 9.78099153 31.35280549 7.25390625 24.65625 C6.79636963 23.44340332 6.33883301 22.23055664 5.86743164 20.98095703 C4.96819944 18.60965555 4.06261293 16.24075225 3.15014648 13.87451172 C2.73966064 12.78928223 2.3291748 11.70405273 1.90625 10.5859375 C1.53822266 9.6273584 1.17019531 8.6687793 0.79101562 7.68115234 C0 5 0 5 0 0 Z " fill="#383F4F" transform="translate(568,127)"/>
<path d="M0 0 C3.3 0 6.6 0 10 0 C10.33 1.98 10.66 3.96 11 6 C11.94875 5.195625 12.8975 4.39125 13.875 3.5625 C17.91812463 0.13463347 20.25955158 -0.11510244 25.625 -0.0625 C26.81351563 -0.05347656 28.00203125 -0.04445313 29.2265625 -0.03515625 C30.14179687 -0.02355469 31.05703125 -0.01195313 32 0 C32 3.3 32 6.6 32 10 C30.78763672 10.14695313 30.78763672 10.14695313 29.55078125 10.296875 C21.34046705 11.20283895 21.34046705 11.20283895 15 16 C12.47360589 21.73513586 11.54161578 26.42825654 11.48828125 32.65625 C11.47033005 33.44398804 11.45237885 34.23172607 11.43388367 35.04333496 C11.38023695 37.52883749 11.34603384 40.0141532 11.3125 42.5 C11.27928643 44.19794242 11.2447931 45.89586032 11.20898438 47.59375 C11.12453777 51.72903075 11.05751144 55.86426052 11 60 C7.50615721 61.16461426 4.66344611 61.13568319 1 61 C0 60 0 60 -0.12025452 57.60191345 C-0.11803391 56.53824051 -0.11581329 55.47456757 -0.11352539 54.37866211 C-0.11344986 53.17749252 -0.11337433 51.97632294 -0.11329651 50.73875427 C-0.10813522 49.4314888 -0.10297394 48.12422333 -0.09765625 46.77734375 C-0.09579198 45.43355868 -0.09436812 44.08977293 -0.09336853 42.74598694 C-0.08954402 39.20317723 -0.07971432 35.6604083 -0.06866455 32.11761475 C-0.05844899 28.50484773 -0.0538706 24.89207416 -0.04882812 21.27929688 C-0.03809198 14.1861812 -0.02101636 7.09309326 0 0 Z " fill="#3A414F" transform="translate(532,127)"/>
<path d="M0 0 C3.63 0 7.26 0 11 0 C11 19.8 11 39.6 11 60 C8 61 8 61 0 61 C0 40.87 0 20.74 0 0 Z " fill="#363B4B" transform="translate(631,127)"/>
<path d="M0 0 C21.12 0 42.24 0 64 0 C64 3.3 64 6.6 64 10 C55.09 10 46.18 10 37 10 C37 32.77 37 55.54 37 79 C33.7 79 30.4 79 27 79 C27 56.23 27 33.46 27 10 C18.09 10 9.18 10 0 10 C0 6.7 0 3.4 0 0 Z M2 1 C1.95745644 2.99954746 1.95919217 5.00041636 2 7 C3.03792772 8.26181095 3.03792772 8.26181095 5.31665039 8.11352539 C6.81699829 8.10567017 6.81699829 8.10567017 8.34765625 8.09765625 C9.42724609 8.09443359 10.50683594 8.09121094 11.61914062 8.08789062 C12.75544922 8.07951172 13.89175781 8.07113281 15.0625 8.0625 C16.77276367 8.05573242 16.77276367 8.05573242 18.51757812 8.04882812 C21.34510351 8.03699747 24.1725264 8.0205141 27 8 C27 8.66 27 9.32 27 10 C27.66 10 28.32 10 29 10 C29 32.11 29 54.22 29 77 C31.97 76.505 31.97 76.505 35 76 C35.33 53.89 35.66 31.78 36 9 C44.91 9 53.82 9 63 9 C63 6.69 63 4.38 63 2 C61.95243414 0.72883237 61.95243414 0.72883237 59.60191345 0.87974548 C58.00640404 0.8830764 58.00640404 0.8830764 56.37866211 0.88647461 C54.57690773 0.88658791 54.57690773 0.88658791 52.73875427 0.88670349 C50.77785606 0.89444542 50.77785606 0.89444542 48.77734375 0.90234375 C47.43355868 0.90420802 46.08977293 0.90563188 44.74598694 0.90663147 C41.20317723 0.91045598 37.6604083 0.92028568 34.11761475 0.93133545 C30.50484773 0.94155101 26.89207416 0.9461294 23.27929688 0.95117188 C16.1861812 0.96190802 9.09309326 0.97898364 2 1 Z " fill="#4443B2" transform="translate(167,108)"/>
<path d="M0 0 C16.40131579 0.79361205 16.40131579 0.79361205 20.8125 5.0625 C21.875 7.1875 21.875 7.1875 21.875 11.1875 C22.865 11.1875 23.855 11.1875 24.875 11.1875 C24.875 12.1775 24.875 13.1675 24.875 14.1875 C25.535 14.1875 26.195 14.1875 26.875 14.1875 C27.5 16 27.5 16 27.875 18.1875 C27.215 19.1775 26.555 20.1675 25.875 21.1875 C22.6875 21.1875 22.6875 21.1875 18.875 20.1875 C17.71875 18.5859375 17.71875 18.5859375 16.6875 16.5625 C13.45755989 10.61769328 7.94016407 7.80400218 1.875 5.1875 C-0.78123699 4.69445267 -2.43669197 4.75981463 -5.125 5.1875 C-5.125 0.91948106 -4.21248724 0.25274923 0 0 Z " fill="#4D65DC" transform="translate(266.125,107.8125)"/>
<path d="M0 0 C0.58145566 1.23199517 1.11659212 2.48610752 1.625 3.75 C4.03030028 8.63057294 6.93189022 11.04707782 12 13 C16.31195557 13.94339463 20.61070249 14.55170285 25 15 C25 15.66 25 16.32 25 17 C15.15188391 18.17654484 8.05168894 14.36779263 0 9 C-0.33 9.66 -0.66 10.32 -1 11 C-2.32 11 -3.64 11 -5 11 C-5 11.66 -5 12.32 -5 13 C-3.56342755 13.33730842 -2.12569907 13.66969591 -0.6875 14 C0.11300781 14.185625 0.91351563 14.37125 1.73828125 14.5625 C4.10695938 15.09495823 4.10695938 15.09495823 7 15 C7 15.66 7 16.32 7 17 C6.34 17 5.68 17 5 17 C5 17.66 5 18.32 5 19 C5.66 19 6.32 19 7 19 C7.66 20.65 8.32 22.3 9 24 C2.47993291 22.99162407 -2.54573407 19.8114356 -6.87890625 14.84765625 C-10.12859764 10.26676598 -11.76099355 6.61665155 -12 1 C-10.37681021 0.63762737 -8.7513642 0.28534843 -7.125 -0.0625 C-6.22007812 -0.25972656 -5.31515625 -0.45695313 -4.3828125 -0.66015625 C-2 -1 -2 -1 0 0 Z " fill="#4E62D2" transform="translate(247,163)"/>
<path d="M0 0 C2 3 2 3 2 5 C2.66 5.33 3.32 5.66 4 6 C3.76169212 7.12313095 3.76169212 7.12313095 3.51856995 8.26895142 C2.80357409 13.41326085 2.77410043 18.50828947 2.70288086 23.69677734 C2.68322769 24.86808197 2.66357452 26.0393866 2.64332581 27.2461853 C2.57956513 31.10938029 2.52217519 34.97264219 2.46484375 38.8359375 C2.42182499 41.51779896 2.37845268 44.19965237 2.33460999 46.88150024 C2.23186753 53.21362194 2.13371092 59.54580601 2.03721577 65.87802565 C1.92709454 73.08969325 1.8118398 80.30127598 1.69616115 87.51285625 C1.45840921 102.34181636 1.22708017 117.17087253 1 132 C0.34 131.67 -0.32 131.34 -1 131 C-0.67 87.77 -0.34 44.54 0 0 Z " fill="#769FF2" transform="translate(74,68)"/>
<path d="M0 0 C0.99 0.33 1.98 0.66 3 1 C2.61328125 1.70382813 2.2265625 2.40765625 1.828125 3.1328125 C-1.74177325 9.90148096 -4.21963581 16.4651749 -6.140625 23.87109375 C-6.91546163 26.6922035 -7.85436662 29.31178133 -9 32 C-10.125 30.25 -10.125 30.25 -11 28 C-10.34241884 26.66216247 -9.67436253 25.32945756 -9 24 C-8.55188863 21.64435404 -8.55188863 21.64435404 -8.375 19.25 C-8.30023438 18.45078125 -8.22546875 17.6515625 -8.1484375 16.828125 C-8.09945313 16.22484375 -8.05046875 15.6215625 -8 15 C-8.66 15 -9.32 15 -10 15 C-10 15.99 -10 16.98 -10 18 C-11.11375 19.0209375 -11.11375 19.0209375 -12.25 20.0625 C-16.0345453 23.60115676 -17.26253702 28.23890015 -19 33 C-19.7734375 34.7015625 -19.7734375 34.7015625 -20.5625 36.4375 C-22.47770692 41.18388236 -23.73690925 46.04617598 -25 51 C-25.66 50.67 -26.32 50.34 -27 50 C-24.63796596 40.58093113 -21.50379662 31.47302538 -18.3125 22.3125 C-17.79589521 20.82107737 -17.27961686 19.32954163 -16.76367188 17.83789062 C-15.51286802 14.22394746 -14.25767814 10.61155632 -13 7 C-12.67 7 -12.34 7 -12 7 C-12 8.98 -12 10.96 -12 13 C-9.69 13 -7.38 13 -5 13 C-5.350625 12.2575 -5.70125 11.515 -6.0625 10.75 C-7.04509293 7.8677274 -7.0326802 6.78823655 -6 4 C-5.34 4 -4.68 4 -4 4 C-4 4.66 -4 5.32 -4 6 C-3.34 6 -2.68 6 -2 6 C-1.34 4.02 -0.68 2.04 0 0 Z " fill="#5876C5" transform="translate(334,120)"/>
<path d="M0 0 C4.92587852 1.93516656 7.15470961 5.55093076 9.75 10 C10.98810502 12.97145206 11.27985264 14.82833672 11 18 C8.47524538 19.26237731 6.68799534 19.09856404 3.875 19.0625 C2.96492188 19.05347656 2.05484375 19.04445312 1.1171875 19.03515625 C0.06917969 19.01775391 0.06917969 19.01775391 -1 19 C-1.38091797 18.18595703 -1.38091797 18.18595703 -1.76953125 17.35546875 C-2.11371094 16.64003906 -2.45789063 15.92460938 -2.8125 15.1875 C-3.14894531 14.47980469 -3.48539062 13.77210937 -3.83203125 13.04296875 C-6.12710577 9.02850729 -8.57490785 7.34981228 -13 6 C-16.14978633 5.68504307 -16.14978633 5.68504307 -19.4375 5.75 C-20.52933594 5.74484375 -21.62117188 5.7396875 -22.74609375 5.734375 C-26.14345294 6.01171044 -28.84757285 6.72062081 -32 8 C-34.89005366 11.41551796 -34.20491609 15.7650675 -34 20 C-33.67 20.66 -33.34 21.32 -33 22 C-33.99 22 -34.98 22 -36 22 C-36.92615848 16.90612835 -37.56880111 13.24698705 -35.375 8.4375 C-32.81927311 5.81451713 -31.60231467 5.20012859 -28 5 C-28 4.34 -28 3.68 -28 3 C-23.42022563 0.71011281 -18.07479455 1.78678139 -13.375 3.25 C-9.48756257 4.69103284 -6.21138444 6.3238463 -3 9 C-2.525625 10.051875 -2.05125 11.10375 -1.5625 12.1875 C-1.046875 13.115625 -0.53125 14.04375 0 15 C3.59385054 15.97873538 3.59385054 15.97873538 7 16 C7.33 14.02 7.66 12.04 8 10 C7.34 10 6.68 10 6 10 C6 9.01 6 8.02 6 7 C5.01 7 4.02 7 3 7 C2.690625 6.21625 2.38125 5.4325 2.0625 4.625 C1.07124962 2.07669872 1.07124962 2.07669872 0 0 Z " fill="#5768BE" transform="translate(285,112)"/>
<path d="M0 0 C2.84612102 2.59863224 3.87804578 4.52716824 4.203125 8.453125 C4.30338564 14.43534294 4.12737212 18.82365995 1 24 C-1.5 25.75 -1.5 25.75 -4 27 C-4.556875 27.556875 -5.11375 28.11375 -5.6875 28.6875 C-6.120625 29.120625 -6.55375 29.55375 -7 30 C-7.66 30 -8.32 30 -9 30 C-8.67 28.68 -8.34 27.36 -8 26 C-11.9813783 24.6728739 -15.85045227 24.93084087 -20 25 C-18 23 -18 23 -15.0625 21.625 C-11.20023308 19.58588249 -11.20023308 19.58588249 -9 16 C-8.42846556 12.87099329 -8.26410858 10.10899863 -9 7 C-11.82857071 4.36155102 -11.82857071 4.36155102 -15 3 C-12.65661573 2.16307705 -11.33226651 1.90949457 -8.90625 2.5703125 C-7 4 -7 4 -6.390625 6.96875 C-6.34421875 8.1340625 -6.2978125 9.299375 -6.25 10.5 C-6.19328125 11.6653125 -6.1365625 12.830625 -6.078125 14.03125 C-6.03454917 15.68713145 -6 17.34354528 -6 19 C-4.68 19.33 -3.36 19.66 -2 20 C-1.67 19.34 -1.34 18.68 -1 18 C-0.01 18 0.98 18 2 18 C1.34908323 8.95764945 1.34908323 8.95764945 0 0 Z " fill="#4B65D5" transform="translate(293,153)"/>
<path d="M0 0 C21.12 0 42.24 0 64 0 C64 3.3 64 6.6 64 10 C55.09 10 46.18 10 37 10 C37 9.67 37 9.34 37 9 C45.58 9 54.16 9 63 9 C62.505 5.535 62.505 5.535 62 2 C32.3 1.505 32.3 1.505 2 1 C2.33 2.98 2.66 4.96 3 7 C10.92 7.33 18.84 7.66 27 8 C27 8.66 27 9.32 27 10 C18.09 10 9.18 10 0 10 C0 6.7 0 3.4 0 0 Z " fill="#5050A8" transform="translate(167,108)"/>
<path d="M0 0 C1.4282618 0.00031703 2.85654759 0.01163717 4.28466797 0.03173828 C5.41242142 0.03598312 5.41242142 0.03598312 6.56295776 0.04031372 C8.96775125 0.05152204 11.37217428 0.07662726 13.77685547 0.10205078 C15.40575635 0.11207976 17.03466305 0.12120576 18.66357422 0.12939453 C22.65981103 0.15146343 26.65577041 0.18599728 30.65185547 0.22705078 C30.65185547 0.88705078 30.65185547 1.54705078 30.65185547 2.22705078 C19.76185547 2.22705078 8.87185547 2.22705078 -2.34814453 2.22705078 C-3.33814453 5.52705078 -4.32814453 8.82705078 -5.34814453 12.22705078 C-6.32433159 14.90252643 -7.31589713 17.57270031 -8.34814453 20.22705078 C-11.64814453 20.22705078 -14.94814453 20.22705078 -18.34814453 20.22705078 C-17.49100167 9.51276507 -17.49100167 9.51276507 -15.34814453 5.22705078 C-15.01814453 5.22705078 -14.68814453 5.22705078 -14.34814453 5.22705078 C-15.34814453 13.79847935 -15.34814453 13.79847935 -16.34814453 17.22705078 C-14.03814453 17.55705078 -11.72814453 17.88705078 -9.34814453 18.22705078 C-9.22697266 17.65857422 -9.10580078 17.09009766 -8.98095703 16.50439453 C-5.47968248 0.37159871 -5.47968248 0.37159871 0 0 Z " fill="#5070B8" transform="translate(321.34814453125,166.77294921875)"/>
<path d="M0 0 C2.64 0 5.28 0 8 0 C8.33 0.66 8.66 1.32 9 2 C6.69 2.33 4.38 2.66 2 3 C2 21.48 2 39.96 2 59 C1.01 59.495 1.01 59.495 0 60 C0 40.2 0 20.4 0 0 Z " fill="#434753" transform="translate(631,127)"/>
<path d="M0 0 C9.56901929 1.51640196 17.52810319 7.04422559 24.796875 13.1640625 C27.41424525 15.34520437 30.12282024 17.18283383 33 19 C33.33 16.69 33.66 14.38 34 12 C34.33 12 34.66 12 35 12 C35 15.96 35 19.92 35 24 C34.01 24.495 34.01 24.495 33 25 C31 24 31 24 30.0625 22 C29.1108154 19.65391779 29.1108154 19.65391779 26 19 C26 18.34 26 17.68 26 17 C25.01 17.33 24.02 17.66 23 18 C23 17.01 23 16.02 23 15 C22.34 15 21.68 15 21 15 C21 14.01 21 13.02 21 12 C19.9790625 11.8453125 19.9790625 11.8453125 18.9375 11.6875 C16 11 16 11 12.5 9.4375 C9.26560853 8.10908922 7.41907614 7.6891749 4 8 C4.66 7.67 5.32 7.34 6 7 C4.7499203 3.24976089 3.33541853 2.88151815 0 1 C0 0.67 0 0.34 0 0 Z " fill="#5C69C7" transform="translate(12,93)"/>
<path d="M0 0 C0.99 0.495 0.99 0.495 2 1 C2 1.99 2 2.98 2 4 C2.66 4 3.32 4 4 4 C5.32 10.27 6.64 16.54 8 23 C8.33 15.74 8.66 8.48 9 1 C9.33 1 9.66 1 10 1 C10 13.87 10 26.74 10 40 C9.01 40 8.02 40 7 40 C7.19207031 39.4740625 7.38414063 38.948125 7.58203125 38.40625 C8.14671268 35.15537372 7.46123676 32.69762301 6.6875 29.5 C6.42324219 28.3759375 6.15898438 27.251875 5.88671875 26.09375 C5.13480492 23.47033259 4.2266162 21.40835619 3 19 C1.3548628 12.7742847 0.61896555 6.39597731 0 0 Z " fill="#3B6CCD" transform="translate(64,159)"/>
<path d="M0 0 C0.66 0 1.32 0 2 0 C2 2.97 2 5.94 2 9 C-3.94481181 9.04934399 -9.88950509 9.08569282 -15.83447266 9.10986328 C-17.85793127 9.11993671 -19.88137528 9.13359595 -21.90478516 9.15087891 C-24.80895589 9.17506847 -27.71293461 9.18646949 -30.6171875 9.1953125 C-31.97975174 9.21079636 -31.97975174 9.21079636 -33.36984253 9.22659302 C-34.21056305 9.22674408 -35.05128357 9.22689514 -35.91748047 9.22705078 C-37.03000687 9.23371262 -37.03000687 9.23371262 -38.16500854 9.24050903 C-40 9 -40 9 -42 7 C-33.8671997 6.14068525 -25.79748024 5.89132048 -17.625 5.875 C-16.68640137 5.87048828 -15.74780273 5.86597656 -14.78076172 5.86132812 C-9.74580889 5.87208849 -4.96231873 6.13877113 0 7 C0 4.69 0 2.38 0 0 Z " fill="#2E3440" transform="translate(767,151)"/>
<path d="M0 0 C1.69141656 0.08963062 3.37959602 0.24577676 5.0625 0.4375 C6.44115234 0.59025391 6.44115234 0.59025391 7.84765625 0.74609375 C8.55792969 0.82988281 9.26820313 0.91367188 10 1 C10.02688151 2.64574566 10.04634123 4.29161413 10.0625 5.9375 C10.07410156 6.85402344 10.08570313 7.77054687 10.09765625 8.71484375 C10 11 10 11 9 12 C7.31391034 12.07205511 5.62499341 12.08386068 3.9375 12.0625 C3.01839844 12.05347656 2.09929688 12.04445313 1.15234375 12.03515625 C0.44207031 12.02355469 -0.26820313 12.01195313 -1 12 C-1.02687279 10.18757948 -1.04633715 8.37504767 -1.0625 6.5625 C-1.07410156 5.55316406 -1.08570313 4.54382813 -1.09765625 3.50390625 C-1 1 -1 1 0 0 Z " fill="#363C4B" transform="translate(632,106)"/>
<path d="M0 0 C0.58145566 1.23199517 1.11659212 2.48610752 1.625 3.75 C4.03030028 8.63057294 6.93189022 11.04707782 12 13 C16.31195557 13.94339463 20.61070249 14.55170285 25 15 C25 15.66 25 16.32 25 17 C15.15188391 18.17654484 8.05168894 14.36779263 0 9 C-1.61785127 6.36034793 -2 5.15987325 -2 2 C-2.99 2 -3.98 2 -5 2 C-5.33 2.66 -5.66 3.32 -6 4 C-6.99 4 -7.98 4 -9 4 C-8.34 6.31 -7.68 8.62 -7 11 C-10 10 -10 10 -11.1875 7.6875 C-12 5 -12 5 -12 1 C-10.37681021 0.63762737 -8.7513642 0.28534843 -7.125 -0.0625 C-6.22007812 -0.25972656 -5.31515625 -0.45695313 -4.3828125 -0.66015625 C-2 -1 -2 -1 0 0 Z " fill="#5262BA" transform="translate(247,163)"/>
<path d="M0 0 C0 3 0 3 -1 5 C-1.66 5 -2.32 5 -3 5 C-3.12375 5.5775 -3.2475 6.155 -3.375 6.75 C-4.34462368 10.24064524 -5.43791566 12.45494852 -8.0625 15 C-10.13800924 17.14246116 -10.4499144 18.15789107 -11 21 C-11.66 21.99 -12.32 22.98 -13 24 C-13.66 24 -14.32 24 -15 24 C-15.1546875 25.918125 -15.1546875 25.918125 -15.3125 27.875 C-15.48828125 30.0546875 -15.48828125 30.0546875 -16 32 C-16.99 32.66 -17.98 33.32 -19 34 C-19.66 34.99 -20.32 35.98 -21 37 C-19.32580613 21.51370668 -10.27941284 10.86854915 0 0 Z " fill="#6690E0" transform="translate(68,68)"/>
<path d="M0 0 C1.18851562 0.00902344 2.37703125 0.01804687 3.6015625 0.02734375 C4.51679688 0.03894531 5.43203125 0.05054687 6.375 0.0625 C10.78274487 9.47252278 10.78274487 9.47252278 11.375 14.0625 C7.45814366 10.54737252 6.45097185 9.44235925 5.375 4.0625 C1.745 3.7325 -1.885 3.4025 -5.625 3.0625 C-5.893125 4.526875 -6.16125 5.99125 -6.4375 7.5 C-6.89453125 9.99609375 -6.89453125 9.99609375 -7.625 12.0625 C-8.615 12.3925 -9.605 12.7225 -10.625 13.0625 C-10.625 14.0525 -10.625 15.0425 -10.625 16.0625 C-11.285 16.0625 -11.945 16.0625 -12.625 16.0625 C-11.969251 13.3926648 -11.30267225 10.7267731 -10.625 8.0625 C-10.45742188 7.38445312 -10.28984375 6.70640625 -10.1171875 6.0078125 C-9.68171212 4.34194636 -9.15946363 2.69929487 -8.625 1.0625 C-5.74084117 -0.37957941 -3.20778472 -0.03144887 0 0 Z " fill="#5A7AB8" transform="translate(335.625,106.9375)"/>
<path d="M0 0 C1.04897461 0.00193359 1.04897461 0.00193359 2.11914062 0.00390625 C7.41824384 0.10267798 11.35328066 0.95789033 16.0625 3.3125 C12.09202313 4.70837078 8.17419316 4.1990193 4.0625 3.875 C0.05359515 3.58086839 -3.9138768 3.3125 -7.9375 3.3125 C-8.2675 3.9725 -8.5975 4.6325 -8.9375 5.3125 C-11.9075 5.3125 -14.8775 5.3125 -17.9375 5.3125 C-18.2675 6.3025 -18.5975 7.2925 -18.9375 8.3125 C-20.89347184 9.70962274 -22.89186401 11.05029907 -24.9375 12.3125 C-24.04618831 8.41301134 -22.49819814 6.73601465 -19.25 4.625 C-13.24924859 0.93315494 -6.95007332 -0.05330833 0 0 Z " fill="#5467BE" transform="translate(265.9375,105.6875)"/>
<path d="M0 0 C0.99 0.33 1.98 0.66 3 1 C2.61328125 1.70382813 2.2265625 2.40765625 1.828125 3.1328125 C-1.74177325 9.90148096 -4.21963581 16.4651749 -6.140625 23.87109375 C-6.91546163 26.6922035 -7.85436662 29.31178133 -9 32 C-10.125 30.25 -10.125 30.25 -11 28 C-10 26 -10 26 -9 24 C-8.54935368 21.41467299 -8.54935368 21.41467299 -8.375 18.75 C-8.26285156 17.41195312 -8.26285156 17.41195312 -8.1484375 16.046875 C-8.09945313 15.37140625 -8.05046875 14.6959375 -8 14 C-7.01 13.67 -6.02 13.34 -5 13 C-5.350625 12.2575 -5.70125 11.515 -6.0625 10.75 C-7.04509293 7.8677274 -7.0326802 6.78823655 -6 4 C-5.34 4 -4.68 4 -4 4 C-4 4.66 -4 5.32 -4 6 C-3.34 6 -2.68 6 -2 6 C-1.34 4.02 -0.68 2.04 0 0 Z " fill="#5279CE" transform="translate(334,120)"/>
<path d="M0 0 C2.17871257 0.72967941 4.33139393 1.49541188 6.47265625 2.328125 C5.81265625 2.988125 5.15265625 3.648125 4.47265625 4.328125 C3.81265625 3.998125 3.15265625 3.668125 2.47265625 3.328125 C0.392052 3.2045532 -1.69310708 3.15252133 -3.77734375 3.140625 C-5.45570313 3.11935547 -5.45570313 3.11935547 -7.16796875 3.09765625 C-10.63200986 3.33530558 -13.32139562 4.01660077 -16.52734375 5.328125 C-19.41739741 8.74364296 -18.73225984 13.0931925 -18.52734375 17.328125 C-18.19734375 17.988125 -17.86734375 18.648125 -17.52734375 19.328125 C-18.51734375 19.328125 -19.50734375 19.328125 -20.52734375 19.328125 C-21.45350223 14.23425335 -22.09614486 10.57511205 -19.90234375 5.765625 C-17.34661686 3.14264213 -16.12965842 2.52825359 -12.52734375 2.328125 C-12.52734375 1.668125 -12.52734375 1.008125 -12.52734375 0.328125 C-8.60285572 -1.63411902 -4.12747487 -1.09725762 0 0 Z " fill="#4D5DBB" transform="translate(269.52734375,114.671875)"/>
<path d="M0 0 C0.33 0 0.66 0 1 0 C1 6.6 1 13.2 1 20 C1.99 20.33 2.98 20.66 4 21 C4.73605469 21.78761719 5.47210938 22.57523438 6.23046875 23.38671875 C9.45359438 26.42800372 12.12270795 27.44200727 16.3125 28.8125 C16.95767578 29.02841797 17.60285156 29.24433594 18.26757812 29.46679688 C19.84068107 29.99116452 21.41977797 30.49749367 23 31 C18.42281892 32.62554095 15.19602899 31.05750515 10.83203125 29.375 C5.38176792 26.72880318 0.16959959 22.83146036 -2 17 C-2.265625 14.16015625 -2.265625 14.16015625 -2.25 11.0625 C-2.25515625 10.04285156 -2.2603125 9.02320312 -2.265625 7.97265625 C-1.99523535 4.94667796 -1.27241136 2.74174353 0 0 Z " fill="#505BAD" transform="translate(240,118)"/>
<path d="M0 0 C1.32 0 2.64 0 4 0 C4 0.99 4 1.98 4 3 C4.99 3 5.98 3 7 3 C7.0825 3.61875 7.165 4.2375 7.25 4.875 C7.77905978 7.1346633 7.77905978 7.1346633 9.75 7.9375 C10.4925 8.288125 11.235 8.63875 12 9 C12.825 9.845625 13.65 10.69125 14.5 11.5625 C16.86027002 13.86376327 17.81596775 14.64621864 21 15 C21 15.66 21 16.32 21 17 C21.99 17 22.98 17 24 17 C24 17.66 24 18.32 24 19 C24.78375 19.0825 25.5675 19.165 26.375 19.25 C29 20 29 20 30.3125 22.0625 C30.539375 22.701875 30.76625 23.34125 31 24 C19.50597324 19.60879611 8.09809984 11.33962037 0 2 C0 1.34 0 0.68 0 0 Z " fill="#6377C9" transform="translate(17,160)"/>
<path d="M0 0 C2.31 0 4.62 0 7 0 C5.625 1.5 5.625 1.5 4 3 C3.34 3 2.68 3 2 3 C2 12.9 2 22.8 2 33 C1.34 33 0.68 33 0 33 C0 22.11 0 11.22 0 0 Z " fill="#323640" transform="translate(532,127)"/>
<path d="M0 0 C1.63201638 3.10965283 2.91437359 6.26690587 4.125 9.5625 C4.47820312 10.51253906 4.83140625 11.46257812 5.1953125 12.44140625 C6 15 6 15 6 18 C2.37 18 -1.26 18 -5 18 C-6.5625 15.1875 -6.5625 15.1875 -8 12 C-7.67 11.01 -7.34 10.02 -7 9 C-5.5393715 11.64738916 -5 12.89448334 -5 16 C-3.02 16 -1.04 16 1 16 C0.855625 14.72125 0.71125 13.4425 0.5625 12.125 C0.44068359 11.04605469 0.44068359 11.04605469 0.31640625 9.9453125 C0.08707039 7.92595684 0.08707039 7.92595684 -1 6 C-0.71887936 3.99199544 -0.38932033 1.98985949 0 0 Z " fill="#5A7BBC" transform="translate(363,169)"/>
<path d="M0 0 C0.99 0.99 1.98 1.98 3 3 C2.01 3.495 2.01 3.495 1 4 C0.67 4.99 0.34 5.98 0 7 C-0.99 7 -1.98 7 -3 7 C-3.0825 7.70125 -3.165 8.4025 -3.25 9.125 C-4.17341927 12.66477388 -5.93551432 14.99711174 -8 18 C-8.71573527 19.64619113 -9.4025696 21.30728055 -10 23 C-11.32 22.67 -12.64 22.34 -14 22 C-13.1875 19.5625 -13.1875 19.5625 -12 17 C-11.01 16.67 -10.02 16.34 -9 16 C-7.81608777 13.62374655 -7.81608777 13.62374655 -7 11 C-6.67 10.01 -6.34 9.02 -6 8 C-5.34 8 -4.68 8 -4 8 C-3.71125 7.05125 -3.4225 6.1025 -3.125 5.125 C-2 2 -2 2 0 0 Z " fill="#4F88DE" transform="translate(71,65)"/>
<path d="M0 0 C2.76276177 0.52268466 5.3260876 1.10869587 8 2 C9.16406302 10.30027547 9.63606415 15.83517359 5 23 C1.7 23 -1.6 23 -5 23 C-3 21 -3 21 -0.0625 19.625 C3.79976692 17.58588249 3.79976692 17.58588249 6 14 C6.5714276 10.87157818 6.73708138 8.10831218 6 5 C3.15269289 2.43319686 3.15269289 2.43319686 0 1 C0 0.67 0 0.34 0 0 Z " fill="#5568BD" transform="translate(278,155)"/>
<path d="M0 0 C0.66 0.33 1.32 0.66 2 1 C2.9375 4.25 2.9375 4.25 3 8 C0.6875 10.75 0.6875 10.75 -2 13 C-2.99 14.485 -2.99 14.485 -4 16 C-3.67 16.99 -3.34 17.98 -3 19 C-3.9375 22.1875 -3.9375 22.1875 -5 25 C-5.33 25 -5.66 25 -6 25 C-6.08160748 23.10489301 -6.13946459 21.20875496 -6.1875 19.3125 C-6.22230469 18.25675781 -6.25710937 17.20101562 -6.29296875 16.11328125 C-5.96409165 12.61841396 -5.12293836 10.77061447 -3 8 C-2.34 8 -1.68 8 -1 8 C-0.67 5.36 -0.34 2.72 0 0 Z " fill="#5087E0" transform="translate(53,92)"/>
<path d="M0 0 C6.83801329 1.13559864 13.61799633 3.87834129 18.125 9.3125 C18.74375 10.199375 19.3625 11.08625 20 12 C13.44347826 10.23478261 13.44347826 10.23478261 10.875 8.875 C8.49603029 7.76481414 6.59269691 7.85596128 4 8 C4.66 7.67 5.32 7.34 6 7 C4.7499203 3.24976089 3.33541853 2.88151815 0 1 C0 0.67 0 0.34 0 0 Z " fill="#5E6ED6" transform="translate(12,93)"/>
<path d="M0 0 C0.33 0 0.66 0 1 0 C1.33 1.98 1.66 3.96 2 6 C9.92 6.33 17.84 6.66 26 7 C26 7.66 26 8.32 26 9 C21.85418113 9.02886751 17.70838784 9.04675327 13.5625 9.0625 C11.78649414 9.07506836 11.78649414 9.07506836 9.97460938 9.08789062 C8.84990234 9.09111328 7.72519531 9.09433594 6.56640625 9.09765625 C5.00321655 9.10551147 5.00321655 9.10551147 3.40844727 9.11352539 C1 9 1 9 0 8 C-0.14115161 5.32941149 -0.04247107 2.67567762 0 0 Z " fill="#4141AE" transform="translate(168,109)"/>
<path d="M0 0 C4.05606165 0.46800711 7.46588679 0.87953208 11 3 C10.01 5.31 9.02 7.62 8 10 C7.34 9.01 6.68 8.02 6 7 C6.66 5.68 7.32 4.36 8 3 C5.08482708 4.07401108 3.22189824 4.77810176 1 7 C0.34 6.67 -0.32 6.34 -1 6 C-1.66 6.66 -2.32 7.32 -3 8 C-3.66 7.67 -4.32 7.34 -5 7 C-5 6.34 -5 5.68 -5 5 C-4.01 5 -3.02 5 -2 5 C-1.34 3.35 -0.68 1.7 0 0 Z " fill="#303543" transform="translate(758,168)"/>
<path d="M0 0 C0.33 0 0.66 0 1 0 C1.33 1.98 1.66 3.96 2 6 C3.32 6.33 4.64 6.66 6 7 C4.88368586 8.83863505 3.75670373 10.67079723 2.625 12.5 C1.99851562 13.5209375 1.37203125 14.541875 0.7265625 15.59375 C0.15679687 16.3878125 -0.41296875 17.181875 -1 18 C-1.66 18 -2.32 18 -3 18 C-2.19500136 11.96251023 -1.11517502 5.98729887 0 0 Z " fill="#B4C9FD" transform="translate(80,173)"/>
<path d="M0 0 C-7.32965398 3.48645046 -13.90757513 4.7219098 -22 5 C-19.17685218 3.11790145 -16.79588032 2.07988565 -13.625 0.9375 C-12.68914062 0.59589844 -11.75328125 0.25429687 -10.7890625 -0.09765625 C-3.62376238 -2.41584158 -3.62376238 -2.41584158 0 0 Z " fill="#CED0ED" transform="translate(147,92)"/>
<path d="M0 0 C0.33 1.32 0.66 2.64 1 4 C-0.32 3.67 -1.64 3.34 -3 3 C-3.33 3.66 -3.66 4.32 -4 5 C-4.99 5 -5.98 5 -7 5 C-6.34 7.31 -5.68 9.62 -5 12 C-8 11 -8 11 -9.1875 8.6875 C-10 6 -10 6 -10 2 C-6.7 1.34 -3.4 0.68 0 0 Z " fill="#4758C0" transform="translate(245,162)"/>
<path d="M0 0 C0.99 0.495 0.99 0.495 2 1 C2 1.99 2 2.98 2 4 C2.66 4 3.32 4 4 4 C5.3792223 10.30338787 6.41117949 15.6496923 5 22 C0.82960081 15.74440121 0.7108089 7.34502531 0 0 Z " fill="#466AD4" transform="translate(64,159)"/>
<path d="M0 0 C0.99 0.33 1.98 0.66 3 1 C3 1.99 3 2.98 3 4 C5.97 4.495 5.97 4.495 9 5 C8.814375 5.928125 8.62875 6.85625 8.4375 7.8125 C7.75876119 11.01343771 7.75876119 11.01343771 9 14 C9.66 14 10.32 14 11 14 C10.67 14.99 10.34 15.98 10 17 C0 4.42465753 0 4.42465753 0 0 Z " fill="#5D70D0" transform="translate(6,143)"/>
<path d="M0 0 C5 5 5 5 6.25 6.59375 C8.8649914 8.69508237 11.39795439 8.76409314 14.6875 9.1875 C16.45673828 9.42533203 16.45673828 9.42533203 18.26171875 9.66796875 C19.16535156 9.77753906 20.06898438 9.88710937 21 10 C21 10.33 21 10.66 21 11 C20.39671875 11.06058594 19.7934375 11.12117187 19.171875 11.18359375 C18.37265625 11.26738281 17.5734375 11.35117188 16.75 11.4375 C15.96109375 11.51871094 15.1721875 11.59992188 14.359375 11.68359375 C12.17635361 11.97634993 10.1226818 12.42064419 8 13 C8.66 12.67 9.32 12.34 10 12 C10 11.34 10 10.68 10 10 C9.071875 9.7834375 9.071875 9.7834375 8.125 9.5625 C6 9 6 9 4 8 C3.67 8.99 3.34 9.98 3 11 C1 8 1 8 1 4 C0.7018576 2.65835921 0.37756808 1.32148827 0 0 Z " fill="#2D3343" transform="translate(786,168)"/>
<path d="M0 0 C2.84612102 2.59863224 3.87804578 4.52716824 4.203125 8.453125 C4.30407381 14.47640428 3.8445721 18.66642731 1 24 C0.67 24 0.34 24 0 24 C-0.33 22.02 -0.66 20.04 -1 18 C-0.01 18 0.98 18 2 18 C1.34908323 8.95764945 1.34908323 8.95764945 0 0 Z " fill="#5261BE" transform="translate(293,153)"/>
<path d="M0 0 C3.11799003 0.75035741 6.18070403 1.63363411 9.25 2.5625 C10.14203125 2.83191406 11.0340625 3.10132813 11.953125 3.37890625 C12.62859375 3.58386719 13.3040625 3.78882813 14 4 C14 5.32 14 6.64 14 8 C15.98 8 17.96 8 20 8 C19.01 8.99 18.02 9.98 17 11 C14.16317601 9.36012756 11.33115748 7.71213309 8.5 6.0625 C7.68917969 5.59392578 6.87835938 5.12535156 6.04296875 4.64257812 C5.27597656 4.19462891 4.50898437 3.74667969 3.71875 3.28515625 C3.00654297 2.87144775 2.29433594 2.45773926 1.56054688 2.03149414 C1.04556641 1.69110107 0.53058594 1.35070801 0 1 C0 0.67 0 0.34 0 0 Z " fill="#6375D0" transform="translate(48,184)"/>
<path d="M0 0 C1.76923828 0.04060547 1.76923828 0.04060547 3.57421875 0.08203125 C4.47785156 0.11683594 5.38148438 0.15164062 6.3125 0.1875 C5.9825 0.8475 5.6525 1.5075 5.3125 2.1875 C1.6825 1.8575 -1.9475 1.5275 -5.6875 1.1875 C-5.955625 2.651875 -6.22375 4.11625 -6.5 5.625 C-6.95703125 8.12109375 -6.95703125 8.12109375 -7.6875 10.1875 C-8.6775 10.5175 -9.6675 10.8475 -10.6875 11.1875 C-10.6875 12.1775 -10.6875 13.1675 -10.6875 14.1875 C-11.3475 14.1875 -12.0075 14.1875 -12.6875 14.1875 C-9.13206977 -0.2712496 -9.13206977 -0.2712496 0 0 Z " fill="#537BCB" transform="translate(335.6875,108.8125)"/>
<path d="M0 0 C1.80430342 2.70645512 2.70868167 4.73978729 3.7265625 7.78125 C4.0359375 8.70550781 4.3453125 9.62976563 4.6640625 10.58203125 C5.13972656 12.02642578 5.13972656 12.02642578 5.625 13.5 C5.94984375 14.46292969 6.2746875 15.42585937 6.609375 16.41796875 C6.91617187 17.34222656 7.22296875 18.26648438 7.5390625 19.21875 C7.81959473 20.06373047 8.10012695 20.90871094 8.38916016 21.77929688 C9 24 9 24 9 27 C8.34 27 7.68 27 7 27 C6.81824219 26.3709375 6.63648438 25.741875 6.44921875 25.09375 C5.23732583 20.96709924 4.00768701 16.91868261 2.375 12.9375 C0.7247957 8.7126314 0.30213136 4.50071543 0 0 Z " fill="#577DC6" transform="translate(354,142)"/>
<path d="M0 0 C3.39461728 0.28288477 4.74132059 0.74132059 7.1875 3.1875 C9.04962115 6.07699833 10.07903478 8.69987462 11 12 C15.455 11.505 15.455 11.505 20 11 C20.33 9.68 20.66 8.36 21 7 C21 8.65 21 10.3 21 12 C18.47524538 13.26237731 16.68799534 13.09856404 13.875 13.0625 C12.96492188 13.05347656 12.05484375 13.04445312 11.1171875 13.03515625 C10.41851562 13.02355469 9.71984375 13.01195312 9 13 C8.76925781 12.48050781 8.53851563 11.96101562 8.30078125 11.42578125 C6.09758071 6.71458958 3.8883021 3.45626853 0 0 Z " fill="#5766AE" transform="translate(275,118)"/>
<path d="M0 0 C0 3 0 3 -1 5 C-1.66 5 -2.32 5 -3 5 C-3.04125 5.556875 -3.0825 6.11375 -3.125 6.6875 C-4.21589611 9.57058259 -5.97824534 10.6553388 -8.3671875 12.49609375 C-11.26998886 15.16972658 -13.08403913 18.58348571 -15 22 C-15.33 21.34 -15.66 20.68 -16 20 C-11.45412091 12.51593076 -5.99332214 6.33681293 0 0 Z " fill="#7490C0" transform="translate(68,68)"/>
<path d="M0 0 C0.33 0 0.66 0 1 0 C1 8.91 1 17.82 1 27 C-1.10827055 23.83759418 -1.33817465 22.49342531 -1.625 18.8125 C-1.69976562 17.91144531 -1.77453125 17.01039062 -1.8515625 16.08203125 C-1.90054688 15.39496094 -1.94953125 14.70789063 -2 14 C-1.34 14 -0.68 14 0 14 C0 9.38 0 4.76 0 0 Z " fill="#657FDA" transform="translate(2,107)"/>
<path d="M0 0 C4.62 0 9.24 0 14 0 C13 3 13 3 11 4 C8.33333333 4 5.66666667 4 3 4 C2.01 4.495 2.01 4.495 1 5 C0.67 3.35 0.34 1.7 0 0 Z " fill="#2F3542" transform="translate(733,177)"/>
<path d="M0 0 C5.13413402 4.43402484 6.27159571 11.50770091 7 18 C6.69868253 19.34093127 6.36983213 20.67632591 6 22 C4.9929564 18.8980736 3.99559195 15.79311902 3 12.6875 C2.71382813 11.80642578 2.42765625 10.92535156 2.1328125 10.01757812 C1.86210937 9.17001953 1.59140625 8.32246094 1.3125 7.44921875 C1.06113281 6.66893311 0.80976563 5.88864746 0.55078125 5.0847168 C0 3 0 3 0 0 Z " fill="#5F7DBE" transform="translate(340,132)"/>
<path d="M0 0 C1.32 0 2.64 0 4 0 C4 0.99 4 1.98 4 3 C4.99 3 5.98 3 7 3 C7.0825 3.61875 7.165 4.2375 7.25 4.875 C7.79394438 7.17972859 7.79394438 7.17972859 10 8.0625 C10.66 8.371875 11.32 8.68125 12 9 C12.33 9.99 12.66 10.98 13 12 C9.84296394 10.57401292 7.41971432 8.8370866 4.8125 6.5625 C4.11769531 5.96566406 3.42289063 5.36882812 2.70703125 4.75390625 C1 3 1 3 0 0 Z " fill="#5E6FD1" transform="translate(17,160)"/>
<path d="M0 0 C2.59470382 3.10769684 3.91485498 6.04243682 5.1875 9.875 C5.70376953 11.38707031 5.70376953 11.38707031 6.23046875 12.9296875 C7.01935313 16.07721603 7.13983087 18.76942479 7 22 C4.50475954 19.0560242 3.54017868 16.85996083 2.9375 13.0625 C2.30763938 9.46329646 1.43085666 6.37273355 0 3 C0 2.01 0 1.02 0 0 Z " fill="#4A6AD8" transform="translate(57,136)"/>
<path d="M0 0 C0.99 0.66 1.98 1.32 3 2 C2.01 2.33 1.02 2.66 0 3 C-2.76889362 6.64328107 -2.21106333 10.63802452 -2 15 C-1.67 15.66 -1.34 16.32 -1 17 C-1.99 17 -2.98 17 -4 17 C-5.76083591 7.31540248 -5.76083591 7.31540248 -3.125 3.4375 C-1 1 -1 1 0 0 Z " fill="#525CAF" transform="translate(253,117)"/>
<path d="M0 0 C3.3 0 6.6 0 10 0 C10 1.32 10 2.64 10 4 C8.68 4 7.36 4 6 4 C5.67 3.34 5.34 2.68 5 2 C4.01 2 3.02 2 2 2 C1.67 2.99 1.34 3.98 1 5 C0.67 5 0.34 5 0 5 C0 3.35 0 1.7 0 0 Z " fill="#414550" transform="translate(568,127)"/>
<path d="M0 0 C0 0.66 0 1.32 0 2 C-2.31 2.33 -4.62 2.66 -7 3 C-7 3.66 -7 4.32 -7 5 C-8.65 5.33 -10.3 5.66 -12 6 C-12 4 -12 4 -10.5 1.875 C-6.88603499 -0.83547375 -4.44518626 -0.29634575 0 0 Z " fill="#20253D" transform="translate(744,133)"/>
<path d="M0 0 C-7.92 3.96 -7.92 3.96 -16 8 C-14.72792506 4.18377517 -13.31562552 3.23444329 -10 1 C-3.76859504 -1.25619835 -3.76859504 -1.25619835 0 0 Z " fill="#BFC8EC" transform="translate(104,184)"/>
<path d="M0 0 C-1.29009643 0.50403768 -2.58213789 1.00309926 -3.875 1.5 C-4.59429687 1.7784375 -5.31359375 2.056875 -6.0546875 2.34375 C-8 3 -8 3 -10 3 C-10.33 3.99 -10.66 4.98 -11 6 C-12.95597184 7.39712274 -14.95436401 8.73779907 -17 10 C-16.07698955 5.96182927 -14.44785169 4.38059749 -11.0625 2.25 C-7.11754085 -0.08010671 -4.51747808 -1.40197596 0 0 Z " fill="#5262A9" transform="translate(258,108)"/>
<path d="M0 0 C-3.3187767 4.05628263 -8.0855768 4.86590234 -13 6 C-5.46629213 -1.95224719 -5.46629213 -1.95224719 0 0 Z " fill="#C2C5E5" transform="translate(128,98)"/>
<path d="M0 0 C0.33 0.66 0.66 1.32 1 2 C2.65 2 4.3 2 6 2 C5.319375 2.5878125 5.319375 2.5878125 4.625 3.1875 C2.72357081 5.30832487 1.93795972 7.33042235 1 10 C-1 8 -1 8 -1.1875 4.4375 C-1 1 -1 1 0 0 Z " fill="#2E323E" transform="translate(632,106)"/>
<path d="M0 0 C0.33 0 0.66 0 1 0 C0.85904936 1.6254308 0.71207913 3.25034051 0.5625 4.875 C0.48128906 5.77992188 0.40007812 6.68484375 0.31640625 7.6171875 C0 10 0 10 -1 12 C-1.66 12 -2.32 12 -3 12 C-3.33 12.66 -3.66 13.32 -4 14 C-3.00956295 9.16371695 -2.04301154 4.52381127 0 0 Z " fill="#5D7ABB" transform="translate(321,127)"/>
<path d="M0 0 C0.99 0.33 1.98 0.66 3 1 C2.40049704 4.68266103 1.75241109 8.34543185 1 12 C-1.61973266 9.38026734 -1.70813314 7.64833578 -2 4 C-1.0625 1.625 -1.0625 1.625 0 0 Z " fill="#5F70D9" transform="translate(5,131)"/>
<path d="M0 0 C0.92389881 3.44226816 1.31142059 6.41866323 1 10 C0.01 10.66 -0.98 11.32 -2 12 C-2.66 12.99 -3.32 13.98 -4 15 C-3.32584613 9.7415998 -1.75734451 4.97361654 0 0 Z " fill="#6889C2" transform="translate(51,90)"/>
<path d="M0 0 C0.33 0 0.66 0 1 0 C1.52909886 2.28977245 2.04805019 4.58189188 2.5625 6.875 C2.85253906 8.15117187 3.14257812 9.42734375 3.44140625 10.7421875 C4 14 4 14 3 16 C1.68 15.67 0.36 15.34 -1 15 C-0.34 14.67 0.32 14.34 1 14 C0.67 9.38 0.34 4.76 0 0 Z " fill="#526DDA" transform="translate(69,182)"/>
<path d="M0 0 C4.01349645 0.28001138 5.72035142 0.75763789 8.8125 3.4375 C11 6 11 6 12 8 C9.625 7.8125 9.625 7.8125 7 7 C6.33333333 5.33333333 5.66666667 3.66666667 5 2 C2.45224694 1.10613836 2.45224694 1.10613836 0 1 C0 0.67 0 0.34 0 0 Z " fill="#8FA0D6" transform="translate(72,65)"/>
<path d="M0 0 C0.99 0.99 1.98 1.98 3 3 C2.01 3.495 2.01 3.495 1 4 C0.67 4.99 0.34 5.98 0 7 C-0.99 7 -1.98 7 -3 7 C-3 7.66 -3 8.32 -3 9 C-3.99 9.33 -4.98 9.66 -6 10 C-6 9.34 -6 8.68 -6 8 C-5.34 8 -4.68 8 -4 8 C-3.71125 7.05125 -3.4225 6.1025 -3.125 5.125 C-2 2 -2 2 0 0 Z " fill="#6192D7" transform="translate(71,65)"/>
<path d="M0 0 C0.598125 0.226875 1.19625 0.45375 1.8125 0.6875 C1.1525 1.3475 0.4925 2.0075 -0.1875 2.6875 C-0.64125 3.203125 -1.095 3.71875 -1.5625 4.25 C-3.4166751 5.89023182 -4.77600835 6.27172558 -7.1875 6.6875 C-3.9375 -0.5625 -3.9375 -0.5625 0 0 Z " fill="#BABDE2" transform="translate(112.1875,106.3125)"/>
<path d="M0 0 C1 3 1 3 -0.21484375 5.48046875 C-0.78332031 6.37378906 -1.35179688 7.26710937 -1.9375 8.1875 C-2.50339844 9.08855469 -3.06929688 9.98960937 -3.65234375 10.91796875 C-4.09707031 11.60503906 -4.54179688 12.29210937 -5 13 C-5.66 12.34 -6.32 11.68 -7 11 C-4.69 7.37 -2.38 3.74 0 0 Z " fill="#89A7E3" transform="translate(85,180)"/>
<path d="M0 0 C1.98 0.495 1.98 0.495 4 1 C3.01 1.66 2.02 2.32 1 3 C1.99 4.65 2.98 6.3 4 8 C3.34 8.66 2.68 9.32 2 10 C-1.07692308 5.69230769 -1.07692308 5.69230769 -0.6875 2.1875 C-0.460625 1.465625 -0.23375 0.74375 0 0 Z " fill="#313643" transform="translate(778,169)"/>
<path d="M0 0 C0.66 0 1.32 0 2 0 C2 0.66 2 1.32 2 2 C2.99 2.33 3.98 2.66 5 3 C4.34 3 3.68 3 3 3 C3.66 5.31 4.32 7.62 5 10 C2 9 2 9 0.8125 6.6875 C0 4 0 4 0 0 Z " fill="#4A58AD" transform="translate(235,164)"/>
<path d="M0 0 C0.33 0 0.66 0 1 0 C1 3.3 1 6.6 1 10 C-0.32 10.33 -1.64 10.66 -3 11 C-3 10.34 -3 9.68 -3 9 C-2.34 9 -1.68 9 -1 9 C-1.020625 7.700625 -1.04125 6.40125 -1.0625 5.0625 C-1.08399454 3.70834367 -1.07148199 2.35243917 -1 1 C-0.67 0.67 -0.34 0.34 0 0 Z " fill="#30323A" transform="translate(641,107)"/>
<path d="M0 0 C0.99 0.66 1.98 1.32 3 2 C0.03 3.65 -2.94 5.3 -6 7 C-5.67 5.02 -5.34 3.04 -5 1 C-3.35 1.33 -1.7 1.66 0 2 C0 1.34 0 0.68 0 0 Z " fill="#333843" transform="translate(418,115)"/>
<path d="M0 0 C-6.625 4 -6.625 4 -10 4 C-9.25 2.0625 -9.25 2.0625 -8 0 C-5.05360248 -1.27677226 -3.00864103 -0.96706319 0 0 Z " fill="#B2C0ED" transform="translate(87,193)"/>
<path d="M0 0 C0.33 0 0.66 0 1 0 C1.144375 0.763125 1.28875 1.52625 1.4375 2.3125 C1.9632594 5.08172908 1.9632594 5.08172908 3 8 C2.67 8.99 2.34 9.98 2 11 C1.34 11 0.68 11 0 11 C-1.28571429 3.57142857 -1.28571429 3.57142857 0 0 Z " fill="#CFD4F9" transform="translate(146,108)"/>
<path d="M0 0 C0.99 0.33 1.98 0.66 3 1 C1.35 2.98 -0.3 4.96 -2 7 C-3 4 -3 4 -2 1 C-1.34 0.67 -0.68 0.34 0 0 Z " fill="#2E3440" transform="translate(822,178)"/>
<path d="M0 0 C2.31 0 4.62 0 7 0 C7.66 1.32 8.32 2.64 9 4 C6.75 4.25 6.75 4.25 4 4 C1.6875 2 1.6875 2 0 0 Z " fill="#5E75DF" transform="translate(30,171)"/>
<path d="M0 0 C0.66 0 1.32 0 2 0 C0.7580393 3.43927579 -0.55740284 6.25207819 -3 9 C-3.66 9 -4.32 9 -5 9 C-4.67 7.68 -4.34 6.36 -4 5 C-3.34 5 -2.68 5 -2 5 C-1.34 3.35 -0.68 1.7 0 0 Z " fill="#A9BBED" transform="translate(98,161)"/>
<path d="M0 0 C1.65 0 3.3 0 5 0 C5.66 1.32 6.32 2.64 7 4 C4.125 4.125 4.125 4.125 1 4 C0.34 3.34 -0.32 2.68 -1 2 C-0.67 1.34 -0.34 0.68 0 0 Z " fill="#5165CC" transform="translate(279,110)"/>
<path d="M0 0 C3.63 1.65 7.26 3.3 11 5 C7.59068103 6.13643966 6.99664544 5.86747764 3.8125 4.5625 C3.09707031 4.27503906 2.38164062 3.98757812 1.64453125 3.69140625 C1.10183594 3.46324219 0.55914062 3.23507813 0 3 C0 2.01 0 1.02 0 0 Z " fill="#5262B3" transform="translate(252,134)"/>
<path d="M0 0 C0.99 0 1.98 0 3 0 C2.34 3.3 1.68 6.6 1 10 C0.67 10 0.34 10 0 10 C0 6.7 0 3.4 0 0 Z " fill="#8CA8EC" transform="translate(76,181)"/>
<path d="M0 0 C0.99 0.99 1.98 1.98 3 3 C2.67 3.99 2.34 4.98 2 6 C-0.0625 6.6875 -0.0625 6.6875 -2 7 C-1.34 4.69 -0.68 2.38 0 0 Z " fill="#557DDA" transform="translate(321,152)"/>
<path d="M0 0 C0.99 0.33 1.98 0.66 3 1 C1.68 3.64 0.36 6.28 -1 9 C-1.33 9 -1.66 9 -2 9 C-2.20140476 5.37471432 -1.85776765 3.13498292 0 0 Z " fill="#5477C3" transform="translate(334,120)"/>
<path d="M0 0 C2.04119788 1.61594832 4.04072937 3.2856382 6 5 C6 5.66 6 6.32 6 7 C4.68 7 3.36 7 2 7 C1.34 4.69 0.68 2.38 0 0 Z " fill="#8BA0E5" transform="translate(84,73)"/>
<path d="M0 0 C1.98 0 3.96 0 6 0 C5.67 1.98 5.34 3.96 5 6 C3.31237149 4.3545622 1.6459651 2.68711423 0 1 C0 0.67 0 0.34 0 0 Z " fill="#212737" transform="translate(503,138)"/>
<path d="M0 0 C1.32 0 2.64 0 4 0 C3.34 2.31 2.68 4.62 2 7 C1.34 7 0.68 7 0 7 C0 4.69 0 2.38 0 0 Z " fill="#343948" transform="translate(616,131)"/>
<path d="M0 0 C0.33 0 0.66 0 1 0 C1 3.96 1 7.92 1 12 C0.67 11.34 0.34 10.68 0 10 C-0.66 10 -1.32 10 -2 10 C-1.34 6.7 -0.68 3.4 0 0 Z " fill="#5476BD" transform="translate(46,105)"/>
<path d="M0 0 C3.79588866 0.54226981 5.47211993 2.20127563 8 5 C7.01 5.33 6.02 5.66 5 6 C2.9754262 4.06745228 1.57894208 2.36841312 0 0 Z " fill="#2C2F3D" transform="translate(443,111)"/>
</svg>
