<?xml version="1.0" encoding="UTF-8"?>
<svg version="1.1" xmlns="http://www.w3.org/2000/svg" width="833" height="300">
<path d="M0 0 C11.5795192 4.71451853 20.4929374 19.04706112 25.26953125 29.87890625 C27.63565468 36.10881176 29.35263886 42.54783555 31 49 C31.680625 48.29875 32.36125 47.5975 33.0625 46.875 C34.03934547 45.91430074 35.01866252 44.95611029 36 44 C36.44988281 43.54238281 36.89976563 43.08476563 37.36328125 42.61328125 C46.77081864 33.74053927 61.0156145 26.70193663 74 27 C77.20694123 49.82082288 76.9615928 72.40345804 63 92 C52.79687842 104.90451218 40.05441534 113.64523421 26 122 C25.10023437 122.5465625 24.20046875 123.093125 23.2734375 123.65625 C18.58131431 126.50348265 13.84356 129.22790413 9.0078125 131.82421875 C6.91925932 132.96219688 6.91925932 132.96219688 5.0546875 134.70703125 C3 136 3 136 0.671875 135.93359375 C-2.75381118 134.73660691 -5.69578219 132.98378643 -8.75 131.0625 C-10.08657191 130.23849935 -11.42383861 129.41562485 -12.76171875 128.59375 C-13.45571777 128.16578125 -14.1497168 127.7378125 -14.86474609 127.296875 C-17.68718322 125.58263008 -20.55029187 123.94383439 -23.41455078 122.30078125 C-45.87482239 109.35255465 -64.6210264 94.4606224 -72.03271484 68.36376953 C-73.08875991 64.08697785 -73.2904833 60.05746876 -73.265625 55.66796875 C-73.26753845 54.90954178 -73.2694519 54.15111481 -73.27142334 53.3697052 C-73.27277364 51.78235539 -73.26915873 50.19499409 -73.26074219 48.60766602 C-73.24995049 46.17634581 -73.26071459 43.74575186 -73.2734375 41.31445312 C-73.27211716 39.76562337 -73.26955737 38.21679407 -73.265625 36.66796875 C-73.26967346 35.94296677 -73.27372192 35.21796478 -73.27789307 34.47099304 C-73.24325094 30.76364896 -73.11186038 29.16779057 -71 26 C-54.4960883 28.44637629 -41.02997326 36.67767223 -29 48 C-28.78085937 47.05640625 -28.56171875 46.1128125 -28.3359375 45.140625 C-23.78819697 26.39745479 -14.75309269 12.37219012 0 0 Z " fill="#C3CCFA" transform="translate(73,64)"/>
<path d="M0 0 C0.99 0 1.98 0 3 0 C3 42.57 3 85.14 3 129 C-0.97845047 129 -3.35671002 127.16963142 -6.625 125.125 C-7.97982146 124.29191516 -9.33531614 123.4599244 -10.69140625 122.62890625 C-11.75125732 121.97752686 -11.75125732 121.97752686 -12.83251953 121.31298828 C-14.96488039 120.0212743 -17.11488086 118.76790677 -19.27734375 117.52734375 C-42.50404507 104.20085176 -62.33565192 89.46543744 -70.03271484 62.36376953 C-71.08875991 58.08697785 -71.2904833 54.05746876 -71.265625 49.66796875 C-71.26753845 48.90954178 -71.2694519 48.15111481 -71.27142334 47.3697052 C-71.27277364 45.78235539 -71.26915873 44.19499409 -71.26074219 42.60766602 C-71.24995049 40.17634581 -71.26071459 37.74575186 -71.2734375 35.31445312 C-71.27211716 33.76562337 -71.26955737 32.21679407 -71.265625 30.66796875 C-71.26967346 29.94296677 -71.27372192 29.21796478 -71.27789307 28.47099304 C-71.24325094 24.76364896 -71.11186038 23.16779057 -69 20 C-52.4960883 22.44637629 -39.02997326 30.67767223 -27 42 C-26.78085937 41.05640625 -26.56171875 40.1128125 -26.3359375 39.140625 C-23.38975886 26.99658156 -19.11216916 14.98875378 -10 6 C-6.8125 4.5625 -6.8125 4.5625 -4 4 C-2.65278717 3.36184656 -1.31252882 2.70674629 0 2 C0 1.34 0 0.68 0 0 Z " fill="#5C71E7" transform="translate(71,70)"/>
<path d="M0 0 C6.41034603 4.70028352 11.31028815 9.44319051 14 17 C13.58203125 19.23046875 13.58203125 19.23046875 13 21 C5.46634282 23.46292639 5.46634282 23.46292639 2 22 C0.98046875 20.328125 0.98046875 20.328125 0.1875 18.25 C-1.86708256 13.72667002 -4.59479221 11.25090661 -9 9 C-15.42714075 7.01365926 -21.08847394 7.69314721 -27.23828125 10.05078125 C-30.47276763 11.79353112 -31.80300467 13.35272963 -32.875 16.875 C-33.03142617 20.78565436 -32.56562006 22.04564962 -30 25 C-22.88063162 29.04028229 -15.4426214 31.06001634 -7.57617188 33.1796875 C0.07511001 35.37011412 7.74769304 38.38701708 12.5 45.125 C15.2042809 50.30820506 15.84794769 55.11811103 14.57421875 60.94921875 C12.51124512 67.39126524 8.57890368 72.87349387 2.71875 76.35546875 C-7.09339653 80.88540973 -18.55862534 81.84741102 -28.875 78.375 C-37.08641725 74.92137451 -43.24272283 70.23333779 -47 62 C-47.8125 58.5 -47.8125 58.5 -48 56 C-44.31676739 53.64273113 -41.29242923 53.24694224 -37 54 C-35.45037214 55.8497003 -34.39500634 57.76659711 -33.25390625 59.890625 C-30.84299384 63.9463655 -27.48379494 66.50540169 -23 68 C-14.56103772 68.61064852 -7.13802965 69.03860917 0 64 C1.98777188 60.77568775 2.35619621 57.8708327 2.65625 54.09765625 C1.52582494 50.4843333 -0.82726809 48.7859726 -4 47 C-9.34703174 45.01624614 -14.84107345 43.5344178 -20.3359375 42.02319336 C-30.0878957 39.31227627 -38.14165112 36.63795742 -44 28 C-45.96211791 22.11364627 -46.016986 15.39764423 -43.4375 9.6875 C-39.8431975 3.55456427 -34.61697484 -0.56256128 -27.78515625 -2.53125 C-19.0180436 -4.00678088 -7.87629018 -4.65216392 0 0 Z " fill="#5371DC" transform="translate(283,113)"/>
<path d="M0 0 C4.92034729 4.03567879 7.52855712 8.28839185 8.375 14.6875 C8.4575 15.863125 8.54 17.03875 8.625 18.25 C4.995 18.25 1.365 18.25 -2.375 18.25 C-2.9525 16.991875 -3.53 15.73375 -4.125 14.4375 C-5.76311977 11.16126047 -7.08146088 9.05613436 -10.375 7.25 C-16.08249296 5.34750235 -23.87145317 4.92755209 -29.55859375 7.07421875 C-31.75343452 8.54656829 -33.51041558 10.38541558 -35.375 12.25 C-35.80756678 14.28226574 -35.80756678 14.28226574 -35.8125 16.5625 C-35.85246094 17.32175781 -35.89242188 18.08101562 -35.93359375 18.86328125 C-35.07898343 22.51479805 -33.26650827 23.92680942 -30.375 26.25 C-27.82251524 27.26647623 -25.50495255 28.05394765 -22.875 28.75 C-21.44706786 29.16637084 -20.01999207 29.58568877 -18.59375 30.0078125 C-17.88476562 30.21438477 -17.17578125 30.42095703 -16.4453125 30.63378906 C-6.41848436 33.61818932 2.02117026 36.89436498 8.30859375 45.57421875 C10.99406079 51.03280902 10.54345707 57.87139006 8.96875 63.6640625 C6.19639847 69.85405429 1.87141317 73.86909506 -4.33203125 76.5078125 C-16.34282731 80.5826496 -26.66853121 80.34700256 -38.375 75.25 C-45.10149175 71.22478192 -48.45573206 65.78817739 -50.375 58.25 C-50.375 56.93 -50.375 55.61 -50.375 54.25 C-46.415 54.25 -42.455 54.25 -38.375 54.25 C-38.00375 55.4875 -37.6325 56.725 -37.25 58 C-35.63034092 62.3576542 -33.54173487 64.07982559 -29.375 66.25 C-22.95704637 68.38931788 -14.94824841 68.42500578 -8.75 65.5625 C-5.54330397 63.62765809 -3.70941334 61.83623586 -2.375 58.25 C-1.70833333 54.75 -1.70833333 54.75 -2.375 51.25 C-5.9230242 46.90615729 -9.12215738 45.29160445 -14.4375 43.6875 C-15.09508301 43.48116943 -15.75266602 43.27483887 -16.43017578 43.06225586 C-19.51328207 42.09631531 -22.61053657 41.17986367 -25.70703125 40.2578125 C-33.87664698 37.7198831 -41.47134514 34.59105978 -46.375 27.25 C-48.85420292 21.37820361 -49.20032867 16.15819592 -47.125 10.125 C-44.23278374 3.15677665 -39.64917265 -0.71976799 -32.875 -3.9375 C-21.81725192 -7.53126813 -9.66964859 -6.69712699 0 0 Z " fill="#FCFCFC" transform="translate(439.375,112.75)"/>
<path d="M0 0 C11.69687918 4.76230081 20.1775754 18.9774861 25.3046875 29.73828125 C28.25127961 36.99722167 29.99094181 45.15560316 30 53 C28.67495604 55.87163869 27.05508981 57.93384842 25.03515625 60.359375 C22.65194197 63.45160696 21.03463329 66.7135543 19.4375 70.25 C19.13231445 70.91894287 18.82712891 71.58788574 18.51269531 72.27709961 C14.7646635 80.60527472 12.52857874 88.69512056 10.74609375 97.66796875 C10 101 10 101 8.91015625 104.203125 C7.81626619 107.07440019 7.81626619 107.07440019 8 110.5625 C8 114.027135 7.27436558 115.85656491 6 119 C6.40131995 121.11143156 6.40131995 121.11143156 7 123 C8.14981374 121.23174858 9.29471922 119.46030479 10.4375 117.6875 C11.39462891 116.20830078 11.39462891 116.20830078 12.37109375 114.69921875 C14.47078845 111.21986854 15.25240077 107.95159593 16 104 C16.99 104 17.98 104 19 104 C20.62317557 101.99894897 20.62317557 101.99894897 22.0625 99.5 C23.59765625 96.96875 23.59765625 96.96875 25 95 C25.66 95 26.32 95 27 95 C27 93.68 27 92.36 27 91 C28.98 90.505 28.98 90.505 31 90 C29.30312706 93.63236863 27.1775666 96.9562204 25 100.3125 C24.60772217 100.91989014 24.21544434 101.52728027 23.8112793 102.15307617 C20.84642323 106.72938155 17.83833289 111.27633783 14.8125 115.8125 C14.18323608 116.75633545 14.18323608 116.75633545 13.54125977 117.71923828 C11.73323676 120.42573985 9.91528096 123.12313415 8.0703125 125.8046875 C7.26207031 126.98417969 7.26207031 126.98417969 6.4375 128.1875 C5.98246094 128.84105469 5.52742188 129.49460938 5.05859375 130.16796875 C3.94078859 132.10247288 3.43082068 133.81685253 3 136 C2.01 135.67 1.02 135.34 0 135 C-0.02335518 118.77110915 -0.04099207 102.54222375 -0.05181217 86.31332016 C-0.05696955 78.77804757 -0.06400165 71.24278542 -0.07543945 63.70751953 C-0.0854033 57.14017074 -0.09185749 50.57282951 -0.09408849 44.00547338 C-0.0953927 40.52777626 -0.0984603 37.05010077 -0.10573006 33.57241058 C-0.11377766 29.69117323 -0.11399004 25.80995708 -0.11352539 21.92871094 C-0.11712067 20.77424973 -0.12071594 19.61978851 -0.12442017 18.43034363 C-0.1230455 17.37307571 -0.12167084 16.3158078 -0.12025452 15.22650146 C-0.12117631 14.30839565 -0.1220981 13.39028984 -0.12304783 12.44436264 C-0.00773433 10.15364352 0.35426745 8.19404543 1 6 C0.01 6 -0.98 6 -2 6 C-2 6.66 -2 7.32 -2 8 C-4.61373889 10.53906064 -6.12889581 11.92256852 -9.8125 12.25 C-10.534375 12.1675 -11.25625 12.085 -12 12 C-8.32167983 7.47384007 -4.58913637 3.60575001 0 0 Z " fill="#87A6F6" transform="translate(73,64)"/>
<path d="M0 0 C0.9590625 -0.01675781 1.918125 -0.03351563 2.90625 -0.05078125 C6.06799691 0.39205378 6.56049052 0.82277842 8.5 3.3125 C9.48355393 5.72137817 10.33811665 8.06855781 11.13549805 10.5378418 C11.50191406 11.6357756 11.50191406 11.6357756 11.87573242 12.75588989 C12.67962868 15.17175286 13.4706965 17.59161305 14.26171875 20.01171875 C14.81715166 21.68920989 15.37338089 23.36643756 15.93037415 25.04341125 C17.39323502 29.45488728 18.8452486 33.86986023 20.29504395 38.28564453 C21.77675882 42.79219794 23.2686882 47.29536574 24.75976562 51.79882812 C27.68319295 60.6334323 30.59517374 69.47176384 33.5 78.3125 C31.39263037 80.67000253 30.82365591 81.26429593 27.5625 81.75 C24.5 81.3125 24.5 81.3125 20.5 77.3125 C18.85 72.6925 17.2 68.0725 15.5 63.3125 C4.94 63.3125 -5.62 63.3125 -16.5 63.3125 C-18.39260818 68.85944686 -18.39260818 68.85944686 -20.26904297 74.41186523 C-20.50768066 75.09966064 -20.74631836 75.78745605 -20.9921875 76.49609375 C-21.23308105 77.20306396 -21.47397461 77.91003418 -21.72216797 78.63842773 C-22.5 80.3125 -22.5 80.3125 -24.5 81.3125 C-26.04613014 81.22598369 -27.58909387 81.07247364 -29.125 80.875 C-29.94226563 80.77316406 -30.75953125 80.67132813 -31.6015625 80.56640625 C-32.54128906 80.44072266 -32.54128906 80.44072266 -33.5 80.3125 C-32.91028915 75.27631274 -31.82775276 70.81358434 -30.19921875 65.984375 C-29.85041656 64.94188095 -29.85041656 64.94188095 -29.49456787 63.87832642 C-28.73179034 61.60422638 -27.96011092 59.33327634 -27.1875 57.0625 C-26.65146134 55.47617987 -26.11574022 53.8897524 -25.58032227 52.30322266 C-24.46261155 48.99490835 -23.34073171 45.68804036 -22.21679688 42.38183594 C-20.78544892 38.16527766 -19.37401559 33.94236824 -17.9695282 29.71679688 C-16.89231283 26.48057007 -15.8062428 23.24736105 -14.71817017 20.01477051 C-14.19897651 18.46699255 -13.68314956 16.91808106 -13.17074585 15.36804199 C-12.45561195 13.20808383 -11.72753562 11.05291816 -10.99609375 8.8984375 C-10.58544678 7.6717334 -10.1747998 6.4450293 -9.75170898 5.18115234 C-7.63063642 0.32010249 -4.9035682 0.01977245 0 0 Z M-0.5 14.3125 C-3.56041757 21.69477912 -6.23031232 29.16760652 -8.75 36.75 C-9.11351562 37.82443359 -9.47703125 38.89886719 -9.8515625 40.00585938 C-10.19445312 41.03388672 -10.53734375 42.06191406 -10.890625 43.12109375 C-11.20032227 44.04720459 -11.51001953 44.97331543 -11.82910156 45.92749023 C-12.63539419 48.38089034 -12.63539419 48.38089034 -12.5 51.3125 C-9.99502996 52.56498502 -8.29146726 52.42624406 -5.4921875 52.41015625 C-4.50605469 52.40693359 -3.51992188 52.40371094 -2.50390625 52.40039062 C-0.95509766 52.38782227 -0.95509766 52.38782227 0.625 52.375 C1.66527344 52.37048828 2.70554687 52.36597656 3.77734375 52.36132812 C6.35161962 52.34951952 8.92578146 52.33305075 11.5 52.3125 C12.87375256 50.12470294 12.87375256 50.12470294 11.51196289 46.78076172 C11.00655006 45.26531746 10.49285309 43.75262077 9.97265625 42.2421875 C9.70488876 41.44595978 9.43712128 40.64973206 9.16123962 39.82937622 C8.30198355 37.27965966 7.43237706 34.73361027 6.5625 32.1875 C5.97913407 30.46247062 5.39644294 28.73721289 4.81445312 27.01171875 C3.38412693 22.77595357 1.94450654 18.54344925 0.5 14.3125 C0.17 14.3125 -0.16 14.3125 -0.5 14.3125 Z " fill="#5282DB" transform="translate(336.5,110.6875)"/>
<path d="M0 0 C6.63015816 4.72184696 9.81269856 11.25079424 11.75 19 C12.08265489 22.99185871 12.28636352 26.99933315 12 31 C11 32 11 32 9.24729919 32.12025452 C8.48562943 32.11803391 7.72395966 32.11581329 6.93920898 32.11352539 C6.07839218 32.11344986 5.21757538 32.11337433 4.33067322 32.11329651 C3.39526199 32.10813522 2.45985077 32.10297394 1.49609375 32.09765625 C0.54307877 32.0962413 -0.40993622 32.09482635 -1.39183044 32.09336853 C-4.44875165 32.08775152 -7.50560077 32.07519616 -10.5625 32.0625 C-12.62955624 32.05748719 -14.69661362 32.05292391 -16.76367188 32.04882812 C-21.84247588 32.03777656 -26.9212257 32.02050055 -32 32 C-31.39079765 33.78269669 -30.77171661 35.56201976 -30.1484375 37.33984375 C-29.80474121 38.33105225 -29.46104492 39.32226074 -29.10693359 40.34350586 C-27.23311651 44.8404189 -24.52409692 46.2556736 -20.3125 48.3125 C-14.51126219 49.51653049 -9.12539493 49.28409277 -4 46.1875 C-1.71797849 43.89174932 -1.71797849 43.89174932 0 40 C3.63 40.66 7.26 41.32 11 42 C9.66313131 47.94163861 6.4988792 52.03607524 2 56 C-0.68436698 57.45965579 -3.0147566 58.16804692 -6 59 C-6.61230469 59.18949219 -7.22460938 59.37898438 -7.85546875 59.57421875 C-15.66253515 61.12425561 -23.9903298 59.44264295 -30.84375 55.58203125 C-37.24716764 50.88387157 -40.83295515 43.77427441 -42.6875 36.1875 C-43.77503403 25.09465289 -43.19856536 14.970801 -36 6 C-25.84794836 -5.06085975 -13.27850275 -6.69870736 0 0 Z M-27.75 11.75 C-30.50966343 15.36414873 -30.50966343 15.36414873 -32 22 C-21.11 22 -10.22 22 1 22 C-2.01323204 12.32074728 -2.01323204 12.32074728 -9.375 6.6875 C-16.98109507 4.69542748 -22.24309927 6.24309927 -27.75 11.75 Z " fill="#FBFBFB" transform="translate(502,132)"/>
<path d="M0 0 C7.30894724 5.20526501 10.28664507 12.43322534 12 21 C12 24.63 12 28.26 12 32 C-2.19 32.33 -16.38 32.66 -31 33 C-27.95009537 42.85990362 -27.95009537 42.85990362 -20.3125 48.375 C-14.49475066 49.47268856 -9.12854056 49.28599325 -4 46.1875 C-1.71797849 43.89174932 -1.71797849 43.89174932 0 40 C3.63 40.66 7.26 41.32 11 42 C9.70951187 48.45244065 6.83934632 51.67049846 2 56 C-0.70935861 57.51333544 -2.95564815 58.18817284 -6 59 C-6.66257812 59.18046875 -7.32515625 59.3609375 -8.0078125 59.546875 C-14.85536808 61.10435823 -21.67951297 59.85926794 -28 57 C-35.96469026 51.4575609 -40.84572791 45.2330693 -42.625 35.625 C-43.63697815 25.84254457 -43.13947606 15.82652975 -37.1875 7.5625 C-26.92708214 -4.558876 -14.16913608 -7.14801193 0 0 Z M-27.75 11.75 C-30.50966343 15.36414873 -30.50966343 15.36414873 -32 22 C-21.11 22 -10.22 22 1 22 C-2.01323204 12.32074728 -2.01323204 12.32074728 -9.375 6.6875 C-16.98109507 4.69542748 -22.24309927 6.24309927 -27.75 11.75 Z " fill="#FCFCFC" transform="translate(757,132)"/>
<path d="M0 0 C0.99 0 1.98 0 3 0 C3.02315408 12.4477588 3.04093077 24.89551249 3.05181217 37.34328842 C3.05703427 43.12307241 3.06411976 48.90284167 3.07543945 54.68261719 C3.08629217 60.25875239 3.09228192 65.83487342 3.09487724 71.41101837 C3.09672718 73.54010491 3.10033954 75.66919066 3.10573006 77.79827118 C3.11297207 80.77666408 3.1139896 83.75499817 3.11352539 86.73339844 C3.11712067 87.61668823 3.12071594 88.49997803 3.12442017 89.41003418 C3.1230455 90.22329163 3.12167084 91.03654907 3.12025452 91.87445068 C3.12117631 92.57870052 3.1220981 93.28295036 3.12304783 94.00854111 C2.98940633 96.1714525 2.76607032 97.9668771 2 100 C0.515 100.495 0.515 100.495 -1 101 C-4.11673529 93.62451954 -6.41415227 86.72593412 -7.546875 78.796875 C-8.61174688 72.22404511 -10.11414009 67.58974718 -15 63 C-17.27743849 59.15882733 -19.03465743 55.36841891 -20 51 C-20.66 51 -21.32 51 -22 51 C-22.66 49.68 -23.32 48.36 -24 47 C-24.66 47 -25.32 47 -26 47 C-26.83733876 32.4861282 -20.8076479 18.82807855 -11.73046875 7.70703125 C-9.37869815 5.38711307 -7.2088895 4.6417779 -4 4 C-2.65278717 3.36184656 -1.31252882 2.70674629 0 2 C0 1.34 0 0.68 0 0 Z " fill="#4D8AE7" transform="translate(71,70)"/>
<path d="M0 0 C4.13068255 3.81359696 5.9328987 6.97625056 6.9453125 12.48828125 C3.6453125 13.14828125 0.3453125 13.80828125 -3.0546875 14.48828125 C-4.29166667 12.69791667 -5.52864583 10.90755208 -6.765625 9.1171875 C-7.97629603 7.35087197 -7.97629603 7.35087197 -10.0546875 6.48828125 C-15.17749771 5.98507445 -19.599902 5.7466259 -24.2421875 8.11328125 C-26.27957107 10.41108346 -26.27957107 10.41108346 -26.6171875 13.55078125 C-26.3346375 16.4803811 -26.3346375 16.4803811 -24.56640625 18.0234375 C-20.99824433 20.10440285 -17.2946415 20.88667089 -13.3046875 21.86328125 C-5.30713117 23.96492764 0.77337147 25.99914612 6.4453125 32.23828125 C8.90915179 37.57659972 8.72676588 42.14392111 6.8828125 47.67578125 C2.01444076 54.74277248 -3.66812271 57.89841115 -12.0546875 59.48828125 C-19.13456159 60.4518936 -26.46201691 58.9133339 -32.3984375 54.90625 C-36.02160955 51.89350367 -38.99709106 49.24746522 -40.0546875 44.48828125 C-40.0546875 43.49828125 -40.0546875 42.50828125 -40.0546875 41.48828125 C-32.4296875 39.48828125 -32.4296875 39.48828125 -29.0546875 39.48828125 C-28.6628125 40.41640625 -28.2709375 41.34453125 -27.8671875 42.30078125 C-25.82820611 45.88657612 -24.8677417 46.99621656 -21.0546875 48.48828125 C-16.14591949 49.05055831 -11.40710029 49.04852407 -7.0546875 46.48828125 C-5.08370324 44.77736015 -5.08370324 44.77736015 -4.0546875 42.48828125 C-4.12643908 39.54646645 -4.45983971 38.09411568 -6.53515625 35.98046875 C-10.23502279 33.78922996 -14.13820187 33.11844313 -18.3046875 32.17578125 C-26.25792244 30.22774443 -32.89280193 28.36285483 -37.5546875 21.17578125 C-38.71446244 14.94199096 -38.9833972 9.50568961 -35.37890625 4.0546875 C-26.85721906 -6.02553835 -10.6568072 -7.84065473 0 0 Z " fill="#FCFCFC" transform="translate(818.0546875,132.51171875)"/>
<path d="M0 0 C1.32538788 -0.00388229 1.32538788 -0.00388229 2.67755127 -0.00784302 C5.20825259 -0.01368766 7.73882902 -0.01212034 10.26953125 -0.0078125 C11.03939865 -0.00979141 11.80926605 -0.01177032 12.60246277 -0.0138092 C17.95693054 0.00971527 17.95693054 0.00971527 20.1875 1.125 C21.48161765 8.53676471 21.48161765 8.53676471 20.1875 11.125 C11.6075 11.455 3.0275 11.785 -5.8125 12.125 C-5.79678955 15.15373291 -5.79678955 15.15373291 -5.78076172 18.24365234 C-5.74766367 24.90525403 -5.72554703 31.56685929 -5.70887566 38.22852135 C-5.69842593 42.26860264 -5.6842452 46.30859989 -5.66162109 50.34863281 C-5.63993488 54.24544733 -5.62794033 58.14218087 -5.62274551 62.03905106 C-5.61904214 63.52785136 -5.61181062 65.0166471 -5.60103989 66.50541306 C-5.58658081 68.58622667 -5.58451967 70.66670306 -5.58544922 72.74755859 C-5.581008 73.93336517 -5.57656677 75.11917175 -5.57199097 76.34091187 C-5.8125 79.125 -5.8125 79.125 -7.8125 81.125 C-12.14893601 81.44037716 -14.13903229 81.57397847 -17.8125 79.125 C-18.17326355 76.302948 -18.17326355 76.302948 -18.15307617 72.65576172 C-18.15373329 71.66045944 -18.15373329 71.66045944 -18.15440369 70.64505005 C-18.15231068 68.447965 -18.12895699 66.25163951 -18.10546875 64.0546875 C-18.09987458 62.5329734 -18.09560364 61.0112539 -18.09260559 59.48953247 C-18.08114261 55.48135501 -18.0516633 51.47350288 -18.01849365 47.4654541 C-17.98782384 43.37675376 -17.97410689 39.28800093 -17.95898438 35.19921875 C-17.92679467 27.17432975 -17.87558116 19.14970532 -17.8125 11.125 C-18.59488037 11.13023682 -19.37726074 11.13547363 -20.18334961 11.14086914 C-23.70555833 11.16157106 -27.2277543 11.17463838 -30.75 11.1875 C-31.98169922 11.19587891 -33.21339844 11.20425781 -34.48242188 11.21289062 C-35.65224609 11.21611328 -36.82207031 11.21933594 -38.02734375 11.22265625 C-39.65337524 11.23051147 -39.65337524 11.23051147 -41.31225586 11.23852539 C-43.8125 11.125 -43.8125 11.125 -44.8125 10.125 C-44.9453125 8.3125 -44.9453125 8.3125 -44.9375 6.125 C-44.94007813 5.403125 -44.94265625 4.68125 -44.9453125 3.9375 C-44.8125 2.125 -44.8125 2.125 -43.8125 1.125 C-40.76416035 0.86833107 -37.74259132 0.69028848 -34.6875 0.5625 C-33.71079346 0.5207666 -32.73408691 0.4790332 -31.7277832 0.43603516 C-21.15426547 0.04651379 -10.57953865 0.0146223 0 0 Z " fill="#5557CF" transform="translate(210.8125,110.875)"/>
<path d="M0 0 C4.73555977 3.28589862 7.41570704 6.46115123 9.79296875 11.7109375 C9.79296875 12.7009375 9.79296875 13.6909375 9.79296875 14.7109375 C5.96976318 16.13352562 2.8801557 16.95136026 -1.20703125 16.7109375 C-1.59890625 15.7828125 -1.99078125 14.8546875 -2.39453125 13.8984375 C-4.43591014 10.30842636 -5.42627977 9.27255224 -9.20703125 7.7109375 C-14.86863932 6.21705239 -19.34298795 6.32603815 -24.48046875 9.2734375 C-28.67280944 12.7638931 -30.68734873 18.38419171 -31.20703125 23.7109375 C-31.82254103 31.54329949 -30.87464338 38.41152249 -25.83203125 44.6484375 C-21.67330936 47.9160047 -18.96172795 48.93232946 -13.70703125 48.5234375 C-9.9171623 47.96943672 -7.18385835 47.24999591 -4.20703125 44.7109375 C-2.38073331 41.64412951 -2.38073331 41.64412951 -1.20703125 38.7109375 C6.22154018 38.56808036 6.22154018 38.56808036 9.79296875 39.7109375 C9.49512224 45.66786765 6.97401201 49.63881921 2.79296875 53.7109375 C-4.59483803 58.4344801 -11.80368863 60.94355484 -20.6015625 59.25 C-27.61472476 57.41860586 -33.44357568 54.57133727 -37.7421875 48.56640625 C-43.3523206 38.9653913 -45.02631738 28.52895086 -42.484375 17.60546875 C-39.63557213 9.24359797 -36.0215563 3.13741805 -28.24609375 -1.2890625 C-18.67459772 -5.98312952 -9.06572123 -5.29502302 0 0 Z " fill="#FCFCFC" transform="translate(695.20703125,132.2890625)"/>
<path d="M0 0 C3.96 0 7.92 0 12 0 C14.10317065 5.56710416 16.20266161 11.13557707 18.29882812 16.70532227 C19.01169729 18.59795108 19.72555178 20.49020909 20.44042969 22.38208008 C21.47072553 25.10920715 22.49741271 27.83766987 23.5234375 30.56640625 C23.84122162 31.40522842 24.15900574 32.2440506 24.48641968 33.10829163 C26.2076826 37.6976042 27.72689374 42.2661573 29 47 C29.235979 46.28158936 29.47195801 45.56317871 29.71508789 44.82299805 C37.70110703 20.55920013 37.70110703 20.55920013 42 8.875 C42.29011963 8.08311279 42.58023926 7.29122559 42.87915039 6.4753418 C44.86960265 1.13039735 44.86960265 1.13039735 46 0 C47.85287502 -0.07226502 49.70833878 -0.0838122 51.5625 -0.0625 C52.57441406 -0.05347656 53.58632813 -0.04445312 54.62890625 -0.03515625 C55.41136719 -0.02355469 56.19382812 -0.01195312 57 0 C56.35978768 6.14852835 54.02428381 11.62791513 51.81640625 17.34765625 C51.40083969 18.43711044 50.98527313 19.52656464 50.55711365 20.64903259 C49.23081705 24.12221922 47.8967277 27.59235344 46.5625 31.0625 C45.66811471 33.40149964 44.77422894 35.74069035 43.88085938 38.08007812 C37.68845361 54.27886597 37.68845361 54.27886597 35 61 C31.04 61 27.08 61 23 61 C18.3666869 50.14804466 14.15095296 39.1424148 9.93237305 28.12402344 C8.67672217 24.84687069 7.41561189 21.57185125 6.15429688 18.296875 C5.35643919 16.21627298 4.55890126 14.13554831 3.76171875 12.0546875 C3.38367599 11.0745871 3.00563324 10.09448669 2.61613464 9.08468628 C2.27189957 8.1825943 1.92766449 7.28050232 1.57299805 6.35107422 C1.268311 5.55675995 0.96362396 4.76244568 0.64970398 3.94406128 C0 2 0 2 0 0 Z " fill="#FCFCFC" transform="translate(562,129)"/>
<path d="M0 0 C0 3.63 0 7.26 0 11 C-1.711875 11.103125 -3.42375 11.20625 -5.1875 11.3125 C-10.53250768 11.80651868 -13.64778955 12.79523079 -17.59301758 16.49316406 C-19.80241012 20.42966286 -19.48086048 24.3543544 -19.51171875 28.796875 C-19.52966995 29.74564514 -19.54762115 30.69441528 -19.56611633 31.67193604 C-19.62023506 34.69791235 -19.65412026 37.72373078 -19.6875 40.75 C-19.72067167 42.80340739 -19.75516119 44.85679395 -19.79101562 46.91015625 C-19.87596257 51.93999028 -19.94276651 56.96977736 -20 62 C-23.63 62 -27.26 62 -31 62 C-31 41.87 -31 21.74 -31 1 C-27.7 1 -24.4 1 -21 1 C-20.67 2.98 -20.34 4.96 -20 7 C-19.13375 6.21625 -18.2675 5.4325 -17.375 4.625 C-11.91200837 0.11930831 -6.83941467 -0.23584189 0 0 Z " fill="#FCFCFC" transform="translate(557,128)"/>
<path d="M0 0 C3.63 0 7.26 0 11 0 C11 20.13 11 40.26 11 61 C7.37 61 3.74 61 0 61 C0 40.87 0 20.74 0 0 Z " fill="#FCFCFC" transform="translate(629,129)"/>
<path d="M0 0 C2 3.75 2 3.75 2 6 C2.66 6 3.32 6 4 6 C1.11152318 21.27205298 1.11152318 21.27205298 -3 28 C-3 28.99 -3 29.98 -3 31 C0.89324403 32.89100424 2.84677153 32.98886392 7 32 C9.33301986 31.96175377 11.66711508 31.95425716 14 32 C14 32.99 14 33.98 14 35 C14.92232422 34.89171875 14.92232422 34.89171875 15.86328125 34.78125 C16.67152344 34.6884375 17.47976563 34.595625 18.3125 34.5 C19.11300781 34.4071875 19.91351563 34.314375 20.73828125 34.21875 C23 34 23 34 26 34 C25.625 35.9375 25.625 35.9375 25 38 C22.15464275 39.42267862 19.63781448 39.21971869 16.4609375 39.31640625 C15.15898437 39.35830078 13.85703125 39.40019531 12.515625 39.44335938 C11.13541955 39.48317299 9.75521117 39.52288522 8.375 39.5625 C6.98696585 39.60569407 5.59894472 39.64930865 4.2109375 39.69335938 C0.80739744 39.79972 -2.59621778 39.90174714 -6 40 C-6.33 40.66 -6.66 41.32 -7 42 C-8.485 42.495 -8.485 42.495 -10 43 C-10.33 43.99 -10.66 44.98 -11 46 C-12.485 46.495 -12.485 46.495 -14 47 C-14.53377265 35.71169687 -14.53377265 35.71169687 -11 31 C-11 30.01 -11 29.02 -11 28 C-10 27 -9 26 -8 25 C-6.2632303 21.80068739 -5.93337758 19.37627888 -6.0625 15.8125 C-6.041875 14.554375 -6.02125 13.29625 -6 12 C-5.01 11.34 -4.02 10.68 -3 10 C-2.24171621 7.84715094 -2.24171621 7.84715094 -1.875 5.4375 C-1.08023483 1.08023483 -1.08023483 1.08023483 0 0 Z " fill="#4C7EE5" transform="translate(325,132)"/>
<path d="M0 0 C0.625 1.8125 0.625 1.8125 1 4 C0.01 5.485 0.01 5.485 -1 7 C-1.46026227 11.05544613 -1.46026227 11.05544613 -1 15 C1.35426499 17.77122275 1.35426499 17.77122275 4 20 C4.8125 22.3125 4.8125 22.3125 5 24 C6.98 24 8.96 24 11 24 C11 23.34 11 22.68 11 22 C10.01 21.67 9.02 21.34 8 21 C7.67 18.69 7.34 16.38 7 14 C7.66 14.4125 8.32 14.825 9 15.25 C17.23481949 20.0536447 25.25564735 22.70925553 34.42382812 25.1796875 C42.10790023 27.37950138 49.72188889 30.42714053 54.5625 37.125 C56 40 56 40 56 44 C55.01 43.67 54.02 43.34 53 43 C51.8125 39.9375 51.8125 39.9375 51 37 C50.01 37 49.02 37 48 37 C47.89751953 36.07767578 47.89751953 36.07767578 47.79296875 35.13671875 C47.18684248 32.81696034 47.18684248 32.81696034 44.92578125 31.76953125 C38.13065791 29.11003632 38.13065791 29.11003632 31 28 C28.16341413 29.31673833 28.16341413 29.31673833 26 31 C27.83284443 32.12516085 27.83284443 32.12516085 30 33 C30.99 32.67 31.98 32.34 33 32 C34.5 33.375 34.5 33.375 36 35 C36 35.66 36 36.32 36 37 C36.99 37.495 36.99 37.495 38 38 C31.57708945 36.62597675 25.24963097 35.06588465 18.9375 33.25 C18.09123047 33.023125 17.24496094 32.79625 16.37304688 32.5625 C8.710382 30.34109523 2.51300096 26.72796571 -2 20 C-3.94541416 14.16375752 -3.80832343 7.98712842 -1.5 2.3125 C-1.005 1.549375 -0.51 0.78625 0 0 Z " fill="#5268E3" transform="translate(241,121)"/>
<path d="M0 0 C0.99 0.66 1.98 1.32 3 2 C3.36076355 4.4803772 3.36076355 4.4803772 3.34057617 7.64306641 C3.34034958 8.82413971 3.34012299 10.00521301 3.33988953 11.22207642 C3.32440567 12.50230682 3.30892181 13.78253723 3.29296875 15.1015625 C3.28872391 16.40829926 3.28447906 17.71503601 3.28010559 19.06137085 C3.26864632 22.53691786 3.23917049 26.01208927 3.20599365 29.48748779 C3.17531569 33.0332735 3.16160516 36.57911985 3.14648438 40.125 C3.11430135 47.08348771 3.06309229 54.04172583 3 61 C0.03 61.495 0.03 61.495 -3 62 C-3.06943556 54.21156603 -3.12277821 46.42320423 -3.15543652 38.63453865 C-3.17110901 35.0181296 -3.19237553 31.40193192 -3.22631836 27.78564453 C-3.25885631 24.29730012 -3.27684108 20.80915932 -3.28463173 17.3206749 C-3.29289269 15.33856231 -3.31632087 13.35653191 -3.33988953 11.37454224 C-3.34011612 10.17344818 -3.34034271 8.97235413 -3.34057617 7.73486328 C-3.34723801 6.67341095 -3.35389984 5.61195862 -3.36076355 4.51834106 C-3.24171158 3.68728851 -3.12265961 2.85623596 -3 2 C-2.01 1.34 -1.02 0.68 0 0 Z " fill="#4F4DDB" transform="translate(199,126)"/>
<path d="M0 0 C1.54962786 1.8497003 2.60499366 3.76659711 3.74609375 5.890625 C6.15700616 9.9463655 9.51620506 12.50540169 14 14 C15.40824893 14.08021999 16.81997231 14.10765977 18.23046875 14.09765625 C19.03291016 14.09443359 19.83535156 14.09121094 20.66210938 14.08789062 C21.91217773 14.07532227 21.91217773 14.07532227 23.1875 14.0625 C24.4549707 14.05573242 24.4549707 14.05573242 25.74804688 14.04882812 C27.83206155 14.03705403 29.91603977 14.0191189 32 14 C29.51942372 16.48057628 28.63807536 16.29019005 25.2109375 16.4140625 C23.79941406 16.47207031 23.79941406 16.47207031 22.359375 16.53125 C21.37453125 16.5621875 20.3896875 16.593125 19.375 16.625 C18.38242187 16.66367188 17.38984375 16.70234375 16.3671875 16.7421875 C13.91164615 16.8366314 11.4561159 16.92219875 9 17 C8.01 19.475 8.01 19.475 7 22 C8.65 21.67 10.3 21.34 12 21 C12 21.66 12 22.32 12 23 C18.6 23.33 25.2 23.66 32 24 C25.41446794 27.29276603 18.05046399 26.90352555 10.91796875 25.3125 C2.23368635 22.39749612 -4.49766657 18.0023939 -9.1015625 9.96875 C-10.29612551 7.35109889 -10.78554003 4.85946628 -11 2 C-7.31676739 -0.35726887 -4.29242923 -0.75305776 0 0 Z " fill="#5563DF" transform="translate(246,167)"/>
<path d="M0 0 C3.2046346 22.8044087 2.9776022 45.42633803 -11 65 C-17.30842446 72.86180164 -24.55596519 80.43231968 -33 86 C-33.66 86 -34.32 86 -35 86 C-35 85.01 -35 84.02 -35 83 C-34.34 83 -33.68 83 -33 83 C-33.33 82.01 -33.66 81.02 -34 80 C-31.03 79.505 -31.03 79.505 -28 79 C-28 78.34 -28 77.68 -28 77 C-27.34 77 -26.68 77 -26 77 C-24.79371992 74.66785852 -23.8345262 72.50357861 -23 70 C-22.236875 69.95875 -21.47375 69.9175 -20.6875 69.875 C-17.67594887 69.22176391 -17.67594887 69.22176391 -16.1875 65.9375 C-15.795625 64.968125 -15.40375 63.99875 -15 63 C-16.485 62.505 -16.485 62.505 -18 62 C-15.69 61.34 -13.38 60.68 -11 60 C-10.896875 59.46375 -10.79375 58.9275 -10.6875 58.375 C-10 56 -10 56 -8.6875 53.4375 C-4.89564541 45.71335176 -2.5754717 39.18417268 -2.921875 30.51171875 C-3.06537817 25.89809175 -2.24048103 21.43028939 -1 17 C-1.66 17 -2.32 17 -3 17 C-2.649375 16.29875 -2.29875 15.5975 -1.9375 14.875 C-0.82468271 11.46236032 -1.06284293 9.43624257 -2 6 C-2.66 5.67 -3.32 5.34 -4 5 C-4 4.34 -4 3.68 -4 3 C-4.66 3 -5.32 3 -6 3 C-6.33 3.66 -6.66 4.32 -7 5 C-10 5 -13 5 -16 5 C-16 4.34 -16 3.68 -16 3 C-14.4618423 2.48930733 -12.91924711 1.99197253 -11.375 1.5 C-10.51648438 1.2215625 -9.65796875 0.943125 -8.7734375 0.65625 C-5.76283999 -0.05611673 -3.08280932 -0.10848596 0 0 Z " fill="#DCD6F0" transform="translate(147,91)"/>
<path d="M0 0 C4.22510673 1.50896669 5.71822849 4.27310654 8 8 C9.80241941 10.85077422 9.80241941 10.85077422 11.4375 12.625 C14.88962265 17.87222643 16.03661761 23.7972753 16.9375 29.9375 C17.91926039 36.43542258 20.07092933 42.14185865 23 48 C23.66 48 24.32 48 25 48 C25.33 46.68 25.66 45.36 26 44 C26 53.9 26 63.8 26 74 C22 73 22 73 20.1875 70.5625 C19.795625 69.716875 19.40375 68.87125 19 68 C19.33 67.34 19.66 66.68 20 66 C20.44345086 59.8642527 19.08935742 54.48064985 17.5625 48.5625 C15.98473899 42.3707824 14.6474474 36.36284514 14 30 C13.34 30.33 12.68 30.66 12 31 C11.95875 29.783125 11.9175 28.56625 11.875 27.3125 C11.27592036 21.60308947 8.88444206 16.92364899 6.375 11.8203125 C5 9 5 9 4 6 C3.34 6 2.68 6 2 6 C1.34 4.02 0.68 2.04 0 0 Z " fill="#3973D6" transform="translate(48,122)"/>
<path d="M0 0 C1 2 1 2 1 5 C2.051875 4.79375 3.10375 4.5875 4.1875 4.375 C10.14003118 3.64025107 16.25692051 4.32113682 22 6 C24.390625 8.08203125 24.390625 8.08203125 26 10 C25.443125 9.7834375 24.88625 9.566875 24.3125 9.34375 C16.5439376 6.50927453 10.60432435 6.04418397 2.76171875 9.05078125 C0.70832113 10.15715735 -0.55888013 11.15880805 -2 13 C-2.53819628 15.13695687 -2.53819628 15.13695687 -2.625 17.4375 C-2.8363426 20.4113923 -3.2006074 23.12349713 -4 26 C-1.525 26.99 -1.525 26.99 1 28 C0.34 29.32 -0.32 30.64 -1 32 C-2.98 31.67 -4.96 31.34 -7 31 C-7.33 30.01 -7.66 29.02 -8 28 C-9.62553283 26.29319053 -11.29115995 24.62339805 -13 23 C-14.87643761 21.12356239 -14.17984987 18.50194299 -14.23046875 16.0078125 C-14 14 -14 14 -12 11 C-11.83286431 8.37468476 -11.83286431 8.37468476 -12 6 C-11.071875 5.731875 -10.14375 5.46375 -9.1875 5.1875 C-6.14311405 4.053317 -5.10288378 3.30315842 -3 1 C-2.01 0.67 -1.02 0.34 0 0 Z " fill="#5162DC" transform="translate(253,114)"/>
<path d="M0 0 C0.33 0 0.66 0 1 0 C1.94592605 15.94850522 2.12260618 31.83900004 2.0625 47.8125 C2.05746796 50.17382716 2.0529081 52.53515538 2.04882812 54.89648438 C2.03797367 60.59767986 2.02137446 66.29883474 2 72 C4.35953094 69.64046906 4.49141413 68.22104383 5 65 C5.66 65.33 6.32 65.66 7 66 C7.18232764 70.64935477 6.7293982 73.7341511 5 78 C5.40131995 80.11143156 5.40131995 80.11143156 6 82 C7.14981374 80.23174858 8.29471922 78.46030479 9.4375 76.6875 C10.07558594 75.70136719 10.71367188 74.71523437 11.37109375 73.69921875 C13.47078845 70.21986854 14.25240077 66.95159593 15 63 C15.99 63 16.98 63 18 63 C19.62317557 60.99894897 19.62317557 60.99894897 21.0625 58.5 C22.59765625 55.96875 22.59765625 55.96875 24 54 C24.66 54 25.32 54 26 54 C26 52.68 26 51.36 26 50 C27.98 49.505 27.98 49.505 30 49 C28.30312706 52.63236863 26.1775666 55.9562204 24 59.3125 C23.60772217 59.91989014 23.21544434 60.52728027 22.8112793 61.15307617 C19.84642323 65.72938155 16.83833289 70.27633783 13.8125 74.8125 C13.18323608 75.75633545 13.18323608 75.75633545 12.54125977 76.71923828 C10.73323676 79.42573985 8.91528096 82.12313415 7.0703125 84.8046875 C6.26207031 85.98417969 6.26207031 85.98417969 5.4375 87.1875 C4.98246094 87.84105469 4.52742188 88.49460937 4.05859375 89.16796875 C2.94078859 91.10247288 2.43082068 92.81685253 2 95 C1.01 94.67 0.02 94.34 -1 94 C-0.67 62.98 -0.34 31.96 0 0 Z " fill="#699CF5" transform="translate(74,105)"/>
<path d="M0 0 C0.99 0.33 1.98 0.66 3 1 C3.0462833 9.70115581 3.08184872 18.40226942 3.10362434 27.10352135 C3.11407407 31.14360264 3.1282548 35.18359989 3.15087891 39.22363281 C3.17256512 43.12044733 3.18455967 47.01718087 3.18975449 50.91405106 C3.19345786 52.40285136 3.20068938 53.8916471 3.21146011 55.38041306 C3.22591919 57.46122667 3.22798033 59.54170306 3.22705078 61.62255859 C3.231492 62.80836517 3.23593323 63.99417175 3.24050903 65.21591187 C3 68 3 68 1 70 C-2.625 70.125 -2.625 70.125 -6 70 C-6 67 -6 67 -4.625 65.3125 C-3 64 -3 64 -1 64 C-0.67 42.88 -0.34 21.76 0 0 Z " fill="#6164C6" transform="translate(202,122)"/>
<path d="M0 0 C11.40186415 4.76853664 19.27152453 18.18689619 24.30859375 28.7421875 C27.24942333 36.00269717 28.99094228 44.15601721 29 52 C27.1921393 55.76373339 24.63314719 58.77227119 22 62 C21.34 62.99 20.68 63.98 20 65 C20.43627286 61.94608998 21.01202886 59.98010612 22.625 57.3125 C23.07875 56.549375 23.5325 55.78625 24 55 C23.67 54.34 23.34 53.68 23 53 C23.66 53 24.32 53 25 53 C24.74438677 50.6568787 24.40729228 48.32156597 24 46 C23.34 45.67 22.68 45.34 22 45 C22.165 44.38125 22.33 43.7625 22.5 43.125 C23.07634644 41.03936614 23.07634644 41.03936614 23 39 C23.66 39 24.32 39 25 39 C25 38.34 25 37.68 25 37 C23.515 36.505 23.515 36.505 22 36 C22.66 35.34 23.32 34.68 24 34 C24 33.34 24 32.68 24 32 C23.38125 31.87625 22.7625 31.7525 22.125 31.625 C20 31 20 31 18 29 C17.01 28.67 16.02 28.34 15 28 C15.020625 27.21625 15.04125 26.4325 15.0625 25.625 C15.18684063 23.01885039 15.18684063 23.01885039 14 21 C13.896875 20.05125 13.79375 19.1025 13.6875 18.125 C12.89048295 14.50219522 11.91732175 13.2308931 9 11 C8.01 11 7.02 11 6 11 C6 9.35 6 7.7 6 6 C5.38125 5.7525 4.7625 5.505 4.125 5.25 C1.64931313 3.79371361 1.04874998 2.62187494 0 0 Z " fill="#9EAEF2" transform="translate(74,65)"/>
<path d="M0 0 C0 1.32 0 2.64 0 4 C-0.99 4.33 -1.98 4.66 -3 5 C-3 5.66 -3 6.32 -3 7 C-3.66 7 -4.32 7 -5 7 C-5.33 7.99 -5.66 8.98 -6 10 C-12.93 9.67 -19.86 9.34 -27 9 C-26.67 8.01 -26.34 7.02 -26 6 C-27.65 6.33 -29.3 6.66 -31 7 C-30.125 2.125 -30.125 2.125 -29 1 C-26.57172387 0.89931538 -24.17801589 0.8612824 -21.75 0.875 C-20.74646484 0.86919922 -20.74646484 0.86919922 -19.72265625 0.86328125 C-16.00424984 0.87058657 -12.63081975 1.26456023 -9 2 C-5.67085362 0.43946263 -3.75694828 -0.20871935 0 0 Z " fill="#4F6AE2" transform="translate(284,182)"/>
<path d="M0 0 C1.13643966 3.40931897 0.86747764 4.00335456 -0.4375 7.1875 C-0.72496094 7.90292969 -1.01242188 8.61835938 -1.30859375 9.35546875 C-1.53675781 9.89816406 -1.76492187 10.44085938 -2 11 C-1.34 11 -0.68 11 0 11 C0 11.66 0 12.32 0 13 C2.47627099 12.36078035 2.47627099 12.36078035 5 11 C6.31068333 8.55711372 6.31068333 8.55711372 7 6 C7.33 5.34 7.66 4.68 8 4 C8.763125 4.185625 9.52625 4.37125 10.3125 4.5625 C13.08967375 5.22819173 13.08967375 5.22819173 16 4 C17.485 4.99 17.485 4.99 19 6 C-8.43898655 23.6318963 -8.43898655 23.6318963 -15 25 C-13.56241384 20.96738651 -11.60433461 17.7133983 -9.1875 14.1875 C-6.0174875 9.51620654 -2.95847027 4.80751418 0 0 Z " fill="#C3DCF7" transform="translate(91,173)"/>
<path d="M0 0 C1.98 0 3.96 0 6 0 C6 2.31 6 4.62 6 7 C6.66 7 7.32 7 8 7 C9.80230168 10.82989106 10.19622241 13.78121808 10 18 C8.02 18.99 8.02 18.99 6 20 C6 19.01 6 18.02 6 17 C5.01 16.67 4.02 16.34 3 16 C3 14.02 3 12.04 3 10 C-0.49873271 11.39655297 -1.70891831 12.71260484 -3.25 16.125 C-3.58515625 16.84945312 -3.9203125 17.57390625 -4.265625 18.3203125 C-4.50796875 18.87460938 -4.7503125 19.42890625 -5 20 C-5.33 19.34 -5.66 18.68 -6 18 C-6.99 18.33 -7.98 18.66 -9 19 C-9.31523361 14.98077152 -9.38044558 12.64816654 -7.3125 9.125 C-4.78639739 6.80371652 -3.37234971 6.28102914 0 6 C-0.66 5.67 -1.32 5.34 -2 5 C-2 4.34 -2 3.68 -2 3 C-1.34 3 -0.68 3 0 3 C0 2.01 0 1.02 0 0 Z " fill="#4A81E4" transform="translate(336,111)"/>
<path d="M0 0 C1.32 0.33 2.64 0.66 4 1 C3.67 2.65 3.34 4.3 3 6 C2.34 6 1.68 6 1 6 C1.33 7.98 1.66 9.96 2 12 C-0.97 11.505 -0.97 11.505 -4 11 C-4.66 14.96 -5.32 18.92 -6 23 C-6.66 23 -7.32 23 -8 23 C-8.268125 23.53625 -8.53625 24.0725 -8.8125 24.625 C-9.67952717 26.35905434 -10.60474831 28.06435702 -11.5625 29.75 C-13.28203116 33.63763567 -13.63628462 36.78090164 -14 41 C-14.66 41 -15.32 41 -16 41 C-16.90167091 25.37103756 -9.94248444 11.64859123 0 0 Z " fill="#5D8CDF" transform="translate(61,76)"/>
<path d="M0 0 C2 1.6875 2 1.6875 3 4 C2.87304813 7.11032079 2.47953174 9.20078043 0.875 11.875 C-2.16832808 13.70099685 -4.54249555 13.42460581 -8 13 C-10.5 11.4375 -10.5 11.4375 -12 9 C-12 5.22315121 -11.78395245 2.96486456 -9.375 0 C-5.88418213 -1.46981805 -3.60851044 -0.98413921 0 0 Z " fill="#FCFCFC" transform="translate(639,107)"/>
<path d="M0 0 C1.92005926 3.84011852 0.2455578 8.07999775 -1 12 C-6.91786106 24.13603148 -17.80467269 35.55105424 -29 43 C-29.66 43 -30.32 43 -31 43 C-31 42.01 -31 41.02 -31 40 C-30.34 40 -29.68 40 -29 40 C-29.495 38.515 -29.495 38.515 -30 37 C-27.03 36.505 -27.03 36.505 -24 36 C-24 35.34 -24 34.68 -24 34 C-23.34 34 -22.68 34 -22 34 C-20.79371992 31.66785852 -19.8345262 29.50357861 -19 27 C-18.236875 26.95875 -17.47375 26.9175 -16.6875 26.875 C-13.67594887 26.22176391 -13.67594887 26.22176391 -12.1875 22.9375 C-11.795625 21.968125 -11.40375 20.99875 -11 20 C-11.99 19.67 -12.98 19.34 -14 19 C-11.69 18.34 -9.38 17.68 -7 17 C-6.896875 16.46375 -6.79375 15.9275 -6.6875 15.375 C-5.81675097 12.36695789 -4.4221066 9.78951678 -3 7 C-1.96795336 4.67906252 -0.98368257 2.34210136 0 0 Z " fill="#EBE9F6" transform="translate(143,134)"/>
<path d="M0 0 C0 0.66 0 1.32 0 2 C-0.89749718 2.03092239 -0.89749718 2.03092239 -1.81312561 2.06246948 C-8.05933865 2.27939225 -14.30502057 2.50851845 -20.55053711 2.74462891 C-22.87919974 2.83107353 -25.20797876 2.91444098 -27.53686523 2.99462891 C-30.89081853 3.11065292 -34.2441928 3.23785921 -37.59765625 3.3671875 C-38.63334244 3.40061249 -39.66902863 3.43403748 -40.73609924 3.46847534 C-46.10899043 3.68706749 -50.98084398 3.97823425 -56 6 C-56.33 6.99 -56.66 7.98 -57 9 C-58.65 9.33 -60.3 9.66 -62 10 C-62.09765625 3.84765625 -62.09765625 3.84765625 -62 2 C-59.81622428 -0.18377572 -54.83845403 0.56383001 -51.8125 0.4375 C-50.83466553 0.3950415 -49.85683105 0.35258301 -48.84936523 0.30883789 C-32.57808905 -0.30052269 -16.27940574 -0.08271409 0 0 Z " fill="#5758C1" transform="translate(228,111)"/>
<path d="M0 0 C5.83259518 4.31730558 10.10270722 7.81516995 12 15 C9.47754508 12.47754508 6.96035206 9.95836967 4.5 7.375 C0.70713739 3.77178052 -1.83526712 1.82145467 -7.125 1.9375 C-11 2 -11 2 -14 0 C-20.94124761 -0.88931126 -28.72733073 -0.28977566 -35 3 C-36.30533838 5.01402235 -36.30533838 5.01402235 -37 7 C-38.32 6.67 -39.64 6.34 -41 6 C-30.99537519 -3.94028639 -12.69773819 -7.519331 0 0 Z " fill="#5E70C9" transform="translate(283,113)"/>
<path d="M0 0 C0 4.12459732 -2.10681378 6.47790354 -4.375 9.75 C-5.29446283 11.10143189 -6.21372798 12.4529983 -7.1328125 13.8046875 C-7.60750977 14.49788086 -8.08220703 15.19107422 -8.57128906 15.90527344 C-10.82530599 19.2100351 -13.03686895 22.54277948 -15.25 25.875 C-17.45712364 29.1965991 -19.66620133 32.51453621 -21.92578125 35.80078125 C-22.46589844 36.58839844 -23.00601563 37.37601563 -23.5625 38.1875 C-24.01753906 38.84105469 -24.47257812 39.49460938 -24.94140625 40.16796875 C-26.05921141 42.10247288 -26.56917932 43.81685253 -27 46 C-27.99 45.67 -28.98 45.34 -30 45 C-29.525625 44.01 -29.05125 43.02 -28.5625 42 C-26.83186252 38.00810505 -26.37884686 34.31885418 -26 30 C-25.01 30.99 -24.02 31.98 -23 33 C-21.85018626 31.23174858 -20.70528078 29.46030479 -19.5625 27.6875 C-18.60537109 26.20830078 -18.60537109 26.20830078 -17.62890625 24.69921875 C-15.52921155 21.21986854 -14.74759923 17.95159593 -14 14 C-13.01 14 -12.02 14 -11 14 C-9.37682443 11.99894897 -9.37682443 11.99894897 -7.9375 9.5 C-6.40234375 6.96875 -6.40234375 6.96875 -5 5 C-4.34 5 -3.68 5 -3 5 C-3 3.68 -3 2.36 -3 1 C-2.01 0.67 -1.02 0.34 0 0 Z " fill="#78B3F3" transform="translate(103,154)"/>
<path d="M0 0 C1.85289918 2.77934876 2.75042259 4.88747126 3.78759766 8.0222168 C4.12779938 9.04304855 4.4680011 10.06388031 4.81851196 11.11564636 C5.18004364 12.21572525 5.54157532 13.31580414 5.9140625 14.44921875 C6.4758168 16.14084892 6.4758168 16.14084892 7.04891968 17.86665344 C8.2451728 21.47221771 9.43515315 25.07981718 10.625 28.6875 C11.43448384 31.1309959 12.24437461 33.57435703 13.0546875 36.01757812 C15.04118441 42.01016243 17.02253386 48.00443002 19 54 C16.82818742 56.45706557 16.36112209 56.96315081 12.9375 57.3125 C10 57 10 57 8 55 C11.28976808 53.90341064 12.71303767 54.20046862 16 55 C15.19126545 52.35296109 14.37821309 49.7073879 13.5625 47.0625 C13.33240234 46.30775391 13.10230469 45.55300781 12.86523438 44.77539062 C11.96998264 41.09791548 11.96998264 41.09791548 10 38 C9.76712992 36.31816052 9.58735834 34.6287584 9.4375 32.9375 C9.35371094 32.01839844 9.26992188 31.09929687 9.18359375 30.15234375 C9.12300781 29.44207031 9.06242187 28.73179687 9 28 C8.34 28 7.68 28 7 28 C6.72285156 27.07316406 6.44570313 26.14632812 6.16015625 25.19140625 C5.79792969 23.99386719 5.43570312 22.79632813 5.0625 21.5625 C4.52302734 19.77005859 4.52302734 19.77005859 3.97265625 17.94140625 C3.29110858 15.14132455 3.29110858 15.14132455 2 14 C1.60224617 12.40608137 1.25604817 10.79911776 0.9375 9.1875 C0.76089844 8.31480469 0.58429688 7.44210938 0.40234375 6.54296875 C0 4 0 4 0 0 Z " fill="#648ACD" transform="translate(351,135)"/>
<path d="M0 0 C2.6875 -0.5 2.6875 -0.5 6 0 C7.50189474 1.85368991 8.56252955 3.80126344 9.7109375 5.890625 C12.17571385 9.92389538 15.50055202 12.50018401 20 14 C21.40824893 14.08021999 22.81997231 14.10765977 24.23046875 14.09765625 C25.03291016 14.09443359 25.83535156 14.09121094 26.66210938 14.08789062 C27.49548828 14.07951172 28.32886719 14.07113281 29.1875 14.0625 C30.4549707 14.05573242 30.4549707 14.05573242 31.74804688 14.04882812 C33.83206155 14.03705403 35.91603977 14.0191189 38 14 C35.53297979 16.46702021 34.7181058 16.27865717 31.31640625 16.37890625 C30.38892578 16.41306641 29.46144531 16.44722656 28.50585938 16.48242188 C27.04889648 16.52206055 27.04889648 16.52206055 25.5625 16.5625 C23.64701188 16.62247864 21.73163405 16.68612234 19.81640625 16.75390625 C18.53938843 16.78979858 18.53938843 16.78979858 17.23657227 16.82641602 C14.82923053 16.92255007 14.82923053 16.92255007 12 18 C10.23537317 14.91190305 10 13.76687864 10 10 C8.68 10.99 7.36 11.98 6 13 C5.67 12.67 5.34 12.34 5 12 C5.020625 11.195625 5.04125 10.39125 5.0625 9.5625 C5.29058908 6.83081897 5.29058908 6.83081897 3 5 C3 4.01 3 3.02 3 2 C2.01 2 1.02 2 0 2 C0 1.34 0 0.68 0 0 Z " fill="#596ACD" transform="translate(240,167)"/>
<path d="M0 0 C0.95003906 -0.02578125 1.90007812 -0.0515625 2.87890625 -0.078125 C5.4375 0.25 5.4375 0.25 7.27734375 1.578125 C8.4375 3.25 8.4375 3.25 8.4375 6.25 C7.64085937 6.31058594 6.84421875 6.37117188 6.0234375 6.43359375 C-1.80582697 7.04667866 -1.80582697 7.04667866 -9.5625 8.25 C-10.49673645 5.23968256 -10.60699911 4.38349732 -9.5625 1.25 C-6.47498639 0.04031357 -3.2873127 0.05367041 0 0 Z " fill="#4E68E1" transform="translate(263.5625,111.75)"/>
<path d="M0 0 C13.25622497 2.1381008 29.47782082 5.43963982 38 16.625 C39 19 39 19 39 23 C38.01 22.67 37.02 22.34 36 22 C34.8125 18.9375 34.8125 18.9375 34 16 C33.01 16 32.02 16 31 16 C30.93039062 15.38511719 30.86078125 14.77023438 30.7890625 14.13671875 C30.18752799 11.82379099 30.18752799 11.82379099 27.9609375 10.76953125 C22.92019876 8.90400105 18.34751554 7.70627564 13 7 C10.64583651 6.05007438 8.31104818 5.05047644 6 4 C4.00736409 3.31163487 2.00958663 2.63718601 0 2 C0 1.34 0 0.68 0 0 Z " fill="#637FCF" transform="translate(258,142)"/>
<path d="M0 0 C11.1179247 2.96477992 22.58174924 10.08311273 30 19 C30 20.32 30 21.64 30 23 C30.66 23 31.32 23 32 23 C31.67 23.66 31.34 24.32 31 25 C29.35 24.67 27.7 24.34 26 24 C25.67 21.69 25.34 19.38 25 17 C24.236875 17.350625 23.47375 17.70125 22.6875 18.0625 C20 19 20 19 17 18 C17 17.34 17 16.68 17 16 C17.99 15.67 18.98 15.34 20 15 C19.67 14.01 19.34 13.02 19 12 C15.49705129 10.28432339 15.49705129 10.28432339 12 9 C12 8.34 12 7.68 12 7 C10.35 6.67 8.7 6.34 7 6 C6.67 5.01 6.34 4.02 6 3 C5.195625 2.87625 4.39125 2.7525 3.5625 2.625 C2.716875 2.41875 1.87125 2.2125 1 2 C0.67 1.34 0.34 0.68 0 0 Z " fill="#6F71DE" transform="translate(15,94)"/>
<path d="M0 0 C0.625 1.8125 0.625 1.8125 1 4 C0.01 5.485 0.01 5.485 -1 7 C-4.3 6.34 -7.6 5.68 -11 5 C-11 4.34 -11 3.68 -11 3 C-11.99 3.33 -12.98 3.66 -14 4 C-16.1875 2.5625 -16.1875 2.5625 -18 1 C-12.16939826 -4.66864058 -7.19915573 -2.37642034 0 0 Z " fill="#516CE3" transform="translate(284,151)"/>
<path d="M0 0 C3.3 0.33 6.6 0.66 10 1 C10.103125 1.94875 10.20625 2.8975 10.3125 3.875 C10.68539295 7.29107501 10.68539295 7.29107501 14 9 C14 9.66 14 10.32 14 11 C14.99 11 15.98 11 17 11 C17 10.34 17 9.68 17 9 C18.32 9 19.64 9 21 9 C21 9.66 21 10.32 21 11 C20.01 11.495 20.01 11.495 19 12 C19.99 13.65 20.98 15.3 22 17 C18.17900503 15.60173735 14.9193224 13.82450795 11.5 11.625 C10.12328125 10.74714844 10.12328125 10.74714844 8.71875 9.8515625 C1.17922078 4.71688312 1.17922078 4.71688312 0 0 Z " fill="#5B82DF" transform="translate(27,168)"/>
<path d="M0 0 C1 2 1 2 1 5 C2.051875 4.79375 3.10375 4.5875 4.1875 4.375 C10.14003118 3.64025107 16.25692051 4.32113682 22 6 C24.390625 8.08203125 24.390625 8.08203125 26 10 C25.443125 9.7834375 24.88625 9.566875 24.3125 9.34375 C16.58982717 6.52601802 10.52181052 5.92651534 2.765625 9.1328125 C0.6234231 10.18495591 -1.20455427 11.42898499 -3 13 C-3.33 11.35 -3.66 9.7 -4 8 C-3.01 8.33 -2.02 8.66 -1 9 C-1 8.34 -1 7.68 -1 7 C-3.31 7.33 -5.62 7.66 -8 8 C-5.66153846 2.33846154 -5.66153846 2.33846154 -2.3125 0.625 C-1.549375 0.41875 -0.78625 0.2125 0 0 Z " fill="#5165CD" transform="translate(253,114)"/>
<path d="M0 0 C0.66 0 1.32 0 2 0 C2 0.66 2 1.32 2 2 C2.9075 2.061875 3.815 2.12375 4.75 2.1875 C8 3 8 3 10.375 5.25 C12.11305534 8.19132443 12.38229016 9.6549611 12 13 C9.36 13 6.72 13 4 13 C3.80664062 12.38511719 3.61328125 11.77023438 3.4140625 11.13671875 C3.15367187 10.32847656 2.89328125 9.52023438 2.625 8.6875 C2.36976563 7.88699219 2.11453125 7.08648437 1.8515625 6.26171875 C1.01168189 3.77275472 1.01168189 3.77275472 -1 1 C-0.67 0.67 -0.34 0.34 0 0 Z " fill="#4C6EE4" transform="translate(283,120)"/>
<path d="M0 0 C2.0625 0.4375 2.0625 0.4375 4 1 C3.67 2.65 3.34 4.3 3 6 C2.34 6 1.68 6 1 6 C1.33 7.98 1.66 9.96 2 12 C-0.97 11.505 -0.97 11.505 -4 11 C-4.33 11.99 -4.66 12.98 -5 14 C-5.99 14 -6.98 14 -8 14 C-8.33 14.99 -8.66 15.98 -9 17 C-9.55278603 12.19163902 -7.95035443 10.00573336 -5.0625 6.25 C-3.96615234 4.80367188 -3.96615234 4.80367188 -2.84765625 3.328125 C-1 1 -1 1 0 0 Z " fill="#7195DE" transform="translate(61,76)"/>
<path d="M0 0 C2.91437133 1.0484248 3.89836431 1.83069427 5.51953125 4.53125 C5.94621094 5.5109375 6.37289062 6.490625 6.8125 7.5 C7.25207031 8.4796875 7.69164063 9.459375 8.14453125 10.46875 C8.42683594 11.3040625 8.70914063 12.139375 9 13 C8.67 13.66 8.34 14.32 8 15 C7.34 15 6.68 15 6 15 C5.319375 14.236875 4.63875 13.47375 3.9375 12.6875 C0.25411223 9.31759204 -3.25322732 8.27201098 -8 7 C-7.34 6.34 -6.68 5.68 -6 5 C-4.35 5.99 -2.7 6.98 -1 8 C-1.020625 6.865625 -1.04125 5.73125 -1.0625 4.5625 C-1 1 -1 1 0 0 Z " fill="#5A83F8" transform="translate(58,178)"/>
<path d="M0 0 C0.33 0 0.66 0 1 0 C1 8.58 1 17.16 1 26 C0.34 26 -0.32 26 -1 26 C-1.50169627 23.53535619 -1.99722978 21.06990546 -2.48046875 18.6015625 C-2.87133145 16.64431016 -3.30120327 14.69478581 -3.75 12.75 C-4.05549925 9.38950824 -3.25502302 7.1006451 -2 4 C-1.34 4 -0.68 4 0 4 C0 2.68 0 1.36 0 0 Z " fill="#3472CE" transform="translate(73,166)"/>
<path d="M0 0 C0.33 0 0.66 0 1 0 C2.9560191 13.93663611 2.23384367 25.6747331 -2 39 C-2.66 38.67 -3.32 38.34 -4 38 C-3.7834375 36.62328125 -3.7834375 36.62328125 -3.5625 35.21875 C-2.30885033 27.42716066 -2.30885033 27.42716066 -1.9375 19.5625 C-2.02512697 14.56776292 -1.34624792 9.80802828 0 5 C-0.66 5 -1.32 5 -2 5 C-1.34 3.35 -0.68 1.7 0 0 Z " fill="#E5DEF9" transform="translate(146,103)"/>
<path d="M0 0 C9.54565989 3.95686604 17.42058224 15.13812331 22 24 C22 24.66 22 25.32 22 26 C21.01 26.33 20.02 26.66 19 27 C18.88269531 26.4225 18.76539062 25.845 18.64453125 25.25 C17.11024725 19.89395403 13.32964427 14.46371541 9 11 C8.01 11 7.02 11 6 11 C6 9.35 6 7.7 6 6 C5.38125 5.7525 4.7625 5.505 4.125 5.25 C1.64931313 3.79371361 1.04874998 2.62187494 0 0 Z " fill="#A5B2EA" transform="translate(74,65)"/>
<path d="M0 0 C0.763125 0.185625 1.52625 0.37125 2.3125 0.5625 C5.08967375 1.22819173 5.08967375 1.22819173 8 0 C8.99 0.66 9.98 1.32 11 2 C9.27430361 3.13031603 7.54428261 4.25403107 5.8125 5.375 C4.84957031 6.00148437 3.88664062 6.62796875 2.89453125 7.2734375 C0.30196064 8.81988312 -2.16853116 9.97508075 -5 11 C-5.33 10.34 -5.66 9.68 -6 9 C-4.7934375 7.88625 -4.7934375 7.88625 -3.5625 6.75 C-1.23011409 4.24695171 -0.36465606 3.2819045 0 0 Z " fill="#D5E4F7" transform="translate(99,177)"/>
<path d="M0 0 C1.15957207 3.47871621 0.77456651 4.34219645 -0.4375 7.6875 C-0.72496094 8.49574219 -1.01242187 9.30398437 -1.30859375 10.13671875 C-1.53675781 10.75160156 -1.76492188 11.36648437 -2 12 C-0.53240234 11.98259766 -0.53240234 11.98259766 0.96484375 11.96484375 C8.0552013 11.9160409 14.96459222 12.01257435 22 13 C22 13.33 22 13.66 22 14 C20.91460937 14.06058594 19.82921875 14.12117187 18.7109375 14.18359375 C17.26561514 14.26806064 15.82030318 14.35270551 14.375 14.4375 C13.66214844 14.47681641 12.94929688 14.51613281 12.21484375 14.55664062 C8.96163298 14.75063943 5.87043159 15.02346157 2.65625 15.60546875 C0 16 0 16 -2.875 14.875 C-5 13 -5 13 -5.3125 10.3125 C-5.209375 9.549375 -5.10625 8.78625 -5 8 C-4.34 8 -3.68 8 -3 8 C-2.690625 7.05125 -2.38125 6.1025 -2.0625 5.125 C-1 2 -1 2 0 0 Z " fill="#5D82C5" transform="translate(326,150)"/>
<path d="M0 0 C4.13570482 1.47703744 6.02633391 4.2515644 8 8 C9.09030854 10.5228307 10.10094713 13.06119031 11.0703125 15.6328125 C11.93885876 17.98777916 11.93885876 17.98777916 13.109375 20.0390625 C14.60542911 23.3330062 14.11920677 26.42379683 14 30 C13.34 30.33 12.68 30.66 12 31 C11.95875 29.783125 11.9175 28.56625 11.875 27.3125 C11.27592036 21.60308947 8.88444206 16.92364899 6.375 11.8203125 C5 9 5 9 4 6 C3.34 6 2.68 6 2 6 C1.34 4.02 0.68 2.04 0 0 Z " fill="#5567D8" transform="translate(48,122)"/>
<path d="M0 0 C2.09685655 3.14528482 2.71501676 5.41077903 3.5625 9.0625 C4.46559324 13.14550931 4.46559324 13.14550931 6 17 C6.13415472 19.6723621 6.04318541 22.32250488 6 25 C6.66 25 7.32 25 8 25 C8 26.32 8 27.64 8 29 C6.1875 28.8125 6.1875 28.8125 4 28 C2.1875 25.5625 2.1875 25.5625 1 23 C1.33 22.34 1.66 21.68 2 21 C2.32105201 15.86316784 1.5736553 11.3421605 0.4375 6.33203125 C0 4 0 4 0 0 Z " fill="#5162D3" transform="translate(66,167)"/>
<path d="M0 0 C3.3 0 6.6 0 10 0 C10 0.66 10 1.32 10 2 C10.62648438 2.06058594 11.25296875 2.12117187 11.8984375 2.18359375 C12.71570313 2.26738281 13.53296875 2.35117188 14.375 2.4375 C15.59316406 2.55931641 15.59316406 2.55931641 16.8359375 2.68359375 C19 3 19 3 21 4 C21.99 3.67 22.98 3.34 24 3 C25.5 4.375 25.5 4.375 27 6 C27 6.66 27 7.32 27 8 C27.66 8.33 28.32 8.66 29 9 C22.36237179 7.60900162 15.91941658 5.86285116 9.4375 3.875 C8.06754883 3.45927734 8.06754883 3.45927734 6.66992188 3.03515625 C4.44569283 2.35973591 2.22243047 1.68131033 0 1 C0 0.67 0 0.34 0 0 Z " fill="#596FC7" transform="translate(250,150)"/>
<path d="M0 0 C1.34978065 4.04934195 0.51729417 7.4597127 -0.1875 11.5625 C-0.30158203 12.34302734 -0.41566406 13.12355469 -0.53320312 13.92773438 C-0.91796875 16.19140625 -0.91796875 16.19140625 -2 20 C-4.04296875 21.27734375 -4.04296875 21.27734375 -6 22 C-6.83510075 23.87609103 -6.83510075 23.87609103 -7.125 26 C-7.81165919 29.81165919 -7.81165919 29.81165919 -10 32 C-8.5591436 24.72746691 -6.36620826 17.9137634 -3.875 10.9375 C-3.50246094 9.88111328 -3.12992187 8.82472656 -2.74609375 7.73632812 C-1.83534623 5.15587683 -0.91990295 2.57719856 0 0 Z " fill="#5E7FC6" transform="translate(325,122)"/>
<path d="M0 0 C0.625 1.8125 0.625 1.8125 1 4 C0.01 5.485 0.01 5.485 -1 7 C-1.45861986 11.05467958 -1.45861986 11.05467958 -1 15 C1.35412766 17.60414714 1.35412766 17.60414714 4 20 C4.9746982 22.33143892 5.46384895 24.51420877 6 27 C2.19510255 25.50521886 0.33809165 23.30557786 -2 20 C-3.94541416 14.16375752 -3.80832343 7.98712842 -1.5 2.3125 C-1.005 1.549375 -0.51 0.78625 0 0 Z " fill="#5665BF" transform="translate(241,121)"/>
<path d="M0 0 C0.69867188 0.144375 1.39734375 0.28875 2.1171875 0.4375 C3.02726563 0.623125 3.93734375 0.80875 4.875 1 C5.77992188 1.185625 6.68484375 1.37125 7.6171875 1.5625 C9.92407903 2.06019595 9.92407903 2.06019595 12 2 C12 2.66 12 3.32 12 4 C18.6 4.33 25.2 4.66 32 5 C25.369494 8.315253 17.8942177 7.94787313 10.7421875 6.20703125 C6.43485328 4.70807894 3.05856744 3.47700338 0 0 Z " fill="#4E66AE" transform="translate(246,186)"/>
<path d="M0 0 C0.33 0.66 0.66 1.32 1 2 C1.99 2 2.98 2 4 2 C4.33 2.99 4.66 3.98 5 5 C5.66 5.66 6.32 6.32 7 7 C7.125 9.4375 7.125 9.4375 7 12 C7 12.99 7 13.98 7 15 C5.68 14.67 4.36 14.34 3 14 C3 12.35 3 10.7 3 9 C2.01 8.67 1.02 8.34 0 8 C-1.125 2.25 -1.125 2.25 0 0 Z " fill="#4D5CE0" transform="translate(239,167)"/>
<path d="M0 0 C0.99 0.33 1.98 0.66 3 1 C3.103125 1.763125 3.20625 2.52625 3.3125 3.3125 C3.75593985 6.02954673 3.75593985 6.02954673 5.5625 7.5 C7 9 7 9 7.0625 11.4375 C7.041875 12.283125 7.02125 13.12875 7 14 C7.91568906 16.25132517 7.91568906 16.25132517 9 18 C3.73929487 14.69327106 0.95036816 9.79537968 -1 4 C-0.6328125 1.6875 -0.6328125 1.6875 0 0 Z " fill="#5863BE" transform="translate(236,168)"/>
<path d="M0 0 C0.99 0 1.98 0 3 0 C4.19972389 3.28734133 5.38267208 6.58047099 6.5625 9.875 C6.90474609 10.81214844 7.24699219 11.74929687 7.59960938 12.71484375 C7.91865234 13.61074219 8.23769531 14.50664063 8.56640625 15.4296875 C9.01415405 16.67081299 9.01415405 16.67081299 9.47094727 17.93701172 C10 20 10 20 9 22 C7 21 7 21 5.9296875 18.3828125 C5.58164062 17.30773437 5.23359375 16.23265625 4.875 15.125 C4.52179688 14.05507812 4.16859375 12.98515625 3.8046875 11.8828125 C3 9 3 9 3 6 C2.34 6 1.68 6 1 6 C0.67 4.02 0.34 2.04 0 0 Z " fill="#658ACB" transform="translate(341,112)"/>
<path d="M0 0 C9.03249924 2.40866646 18.71474412 6.96425381 24 15 C20 13 16 11 12 9 C12 8.34 12 7.68 12 7 C10.35 6.67 8.7 6.34 7 6 C6.67 5.01 6.34 4.02 6 3 C5.195625 2.87625 4.39125 2.7525 3.5625 2.625 C2.716875 2.41875 1.87125 2.2125 1 2 C0.67 1.34 0.34 0.68 0 0 Z " fill="#7078CD" transform="translate(15,94)"/>
<path d="M0 0 C0 0.66 0 1.32 0 2 C-0.639375 2.268125 -1.27875 2.53625 -1.9375 2.8125 C-4.33131686 3.88667752 -4.33131686 3.88667752 -5 7 C-6.6396875 7.2165625 -6.6396875 7.2165625 -8.3125 7.4375 C-11.93122987 7.88288104 -11.93122987 7.88288104 -15 9 C-15.33 9.99 -15.66 10.98 -16 12 C-16.66 11.67 -17.32 11.34 -18 11 C-18 10.34 -18 9.68 -18 9 C-15.70870707 7.68684387 -13.4169845 6.37444807 -11.125 5.0625 C-10.47402344 4.68931641 -9.82304688 4.31613281 -9.15234375 3.93164062 C-2.2808277 0 -2.2808277 0 0 0 Z " fill="#CCC6EE" transform="translate(131,95)"/>
<path d="M0 0 C0.66 0.33 1.32 0.66 2 1 C1.34 1.66 0.68 2.32 0 3 C0 3.99 0 4.98 0 6 C-0.66 6 -1.32 6 -2 6 C-2 6.66 -2 7.32 -2 8 C-4.61373889 10.53906064 -6.12889581 11.92256852 -9.8125 12.25 C-10.534375 12.1675 -11.25625 12.085 -12 12 C-8.32167983 7.47384007 -4.58913637 3.60575001 0 0 Z " fill="#849DE4" transform="translate(73,64)"/>
<path d="M0 0 C6.03669167 6.61161469 6.78085262 16.52333997 8 25 C5.05109578 21.66502754 4.29232119 18.70283756 3.4375 14.375 C2.67770393 9.6867279 2.67770393 9.6867279 0 6 C-0.125 2.875 -0.125 2.875 0 0 Z " fill="#427ADF" transform="translate(58,133)"/>
<path d="M0 0 C0.33 0.66 0.66 1.32 1 2 C1.66 2 2.32 2 3 2 C3 2.66 3 3.32 3 4 C3.66 4.33 4.32 4.66 5 5 C5.625 7.0625 5.625 7.0625 6 9 C7.65 9.33 9.3 9.66 11 10 C11 10.66 11 11.32 11 12 C7.67465243 13.10844919 5.37817425 12.84454356 2 12 C1.66269158 10.56342755 1.33030409 9.12569907 1 7.6875 C0.814375 6.88699219 0.62875 6.08648437 0.4375 5.26171875 C0 3 0 3 0 0 Z " fill="#5586DC" transform="translate(356,178)"/>
<path d="M0 0 C7.79494319 -0.12572489 11.25838377 2.26709119 16.93359375 7.48046875 C19.19751062 10.24082108 20.09213235 12.57193145 21 16 C18.47754508 13.47754508 15.96035206 10.95836967 13.5 8.375 C9.39720343 4.47734326 5.38940235 2.6293542 0 1 C0 0.67 0 0.34 0 0 Z " fill="#697EC6" transform="translate(274,112)"/>
<path d="M0 0 C0 3.28663817 -0.40036852 3.96053895 -2.1875 6.57421875 C-2.63867188 7.24130859 -3.08984375 7.90839844 -3.5546875 8.59570312 C-4.03164062 9.28599609 -4.50859375 9.97628906 -5 10.6875 C-5.47695312 11.38939453 -5.95390625 12.09128906 -6.4453125 12.81445312 C-7.62403928 14.54718149 -8.81122337 16.27415107 -10 18 C-11.14306641 14.29492188 -11.14306641 14.29492188 -9.85546875 11.640625 C-9.30503906 10.85171875 -8.75460938 10.0628125 -8.1875 9.25 C-7.37345703 8.05117187 -7.37345703 8.05117187 -6.54296875 6.828125 C-6.03378906 6.22484375 -5.52460937 5.6215625 -5 5 C-4.34 5 -3.68 5 -3 5 C-3 3.68 -3 2.36 -3 1 C-2.01 0.67 -1.02 0.34 0 0 Z " fill="#95B6F3" transform="translate(103,154)"/>
<path d="M0 0 C0.70173653 4.38585329 1.10834375 8.55790643 1 13 C-1.46278801 10.53721199 -1.99771255 8.29323018 -3 5 C-3.66 5.99 -4.32 6.98 -5 8 C-4.979375 7.21625 -4.95875 6.4325 -4.9375 5.625 C-4.81315937 3.01885039 -4.81315937 3.01885039 -6 1 C-4 0 -4 0 0 0 Z " fill="#5A81CB" transform="translate(339,121)"/>
<path d="M0 0 C1.98 0 3.96 0 6 0 C6 1.32 6 2.64 6 4 C5.34 4 4.68 4 4 4 C4 5.65 4 7.3 4 9 C3.34 9 2.68 9 2 9 C0.39446555 7.07335866 -0.87816502 5.24366996 -2 3 C-1.34 3 -0.68 3 0 3 C0 2.01 0 1.02 0 0 Z " fill="#4992DF" transform="translate(336,111)"/>
<path d="M0 0 C1.13298556 3.39895668 0.85659602 4.26983438 -0.25 7.5625 C-0.62898438 8.74005859 -0.62898438 8.74005859 -1.015625 9.94140625 C-2 12 -2 12 -5 14 C-5.66 13.67 -6.32 13.34 -7 13 C-5.35821735 8.22390502 -2.73453298 4.20617096 0 0 Z " fill="#B4DDFE" transform="translate(91,173)"/>
<path d="M0 0 C0.66 0.33 1.32 0.66 2 1 C3.33350067 5.44500224 4.29175731 9.3318831 4 14 C2.33333333 14 0.66666667 14 -1 14 C-0.835 12.989375 -0.67 11.97875 -0.5 10.9375 C-0.03014231 7.23737067 0.07599849 3.72392609 0 0 Z " fill="#5787E3" transform="translate(349,133)"/>
<path d="M0 0 C2.0625 0.4375 2.0625 0.4375 4 1 C4.33 3.31 4.66 5.62 5 8 C3.35 7.67 1.7 7.34 0 7 C-0.38133299 5.0085944 -0.71325582 3.00720923 -1 1 C-0.67 0.67 -0.34 0.34 0 0 Z " fill="#4D78E1" transform="translate(308,182)"/>
<path d="M0 0 C2 2 2 2 2.1953125 3.9453125 C2.13020833 5.96354167 2.06510417 7.98177083 2 10 C2.66 10 3.32 10 4 10 C4 11.32 4 12.64 4 14 C2.68 13.67 1.36 13.34 0 13 C0 8.71 0 4.42 0 0 Z " fill="#4566D2" transform="translate(70,182)"/>
<path d="M0 0 C1.77516029 0.39782879 3.54509163 0.81903661 5.3125 1.25 C6.29863281 1.48203125 7.28476562 1.7140625 8.30078125 1.953125 C11.34419645 3.13349443 12.33415362 4.24822646 14 7 C8.39958947 6.57996921 4.411509 4.31423011 0 1 C0 0.67 0 0.34 0 0 Z " fill="#5A80DB" transform="translate(50,185)"/>
<path d="M0 0 C3.60513403 2.06007659 6.80331012 4.3513141 10 7 C7.03 6.505 7.03 6.505 4 6 C3.67 6.66 3.34 7.32 3 8 C1.5 6.8125 1.5 6.8125 0 5 C-0.1875 2.3125 -0.1875 2.3125 0 0 Z " fill="#5F6ECD" transform="translate(248,135)"/>
<path d="M0 0 C0.66 0.66 1.32 1.32 2 2 C4.57061311 2.64767793 4.57061311 2.64767793 7 3 C6.34 4.65 5.68 6.3 5 8 C3.02 8 1.04 8 -1 8 C-0.7525 7.13375 -0.7525 7.13375 -0.5 6.25 C0.14462031 3.73335631 0.14462031 3.73335631 0 0 Z " fill="#BDC1FA" transform="translate(102,111)"/>
<path d="M0 0 C3.3 0.33 6.6 0.66 10 1 C9.67 2.32 9.34 3.64 9 5 C5.26512223 4.5020163 3.18762365 4.12508244 0 2 C0 1.34 0 0.68 0 0 Z " fill="#577FF5" transform="translate(27,168)"/>
<path d="M0 0 C0.33 0 0.66 0 1 0 C0.54775239 5.91492272 -0.1582605 11.35199888 -2 17 C-2.66 16.67 -3.32 16.34 -4 16 C-3.71515154 14.26969709 -3.42180062 12.54079286 -3.125 10.8125 C-2.96257812 9.84957031 -2.80015625 8.88664063 -2.6328125 7.89453125 C-2.01960483 5.08967396 -1.14333657 2.62775253 0 0 Z " fill="#E3E1EA" transform="translate(146,125)"/>
<path d="M0 0 C0.99 0 1.98 0 3 0 C2.25 7.625 2.25 7.625 0 11 C-0.19491452 9.54263913 -0.38069358 8.08405407 -0.5625 6.625 C-0.66691406 5.81289062 -0.77132813 5.00078125 -0.87890625 4.1640625 C-1 2 -1 2 0 0 Z " fill="#567FCF" transform="translate(316,172)"/>
<path d="M0 0 C0.66 0.66 1.32 1.32 2 2 C1.2628641 3.29905098 0.50969444 4.58901122 -0.25 5.875 C-0.87648438 6.95394531 -0.87648438 6.95394531 -1.515625 8.0546875 C-3.15928076 10.20874162 -4.51567335 10.99140585 -7 12 C-5.87548273 9.0280615 -4.77706209 6.66559313 -3 4 C-2.34 4 -1.68 4 -1 4 C-0.67 2.68 -0.34 1.36 0 0 Z " fill="#DBD8FC" transform="translate(123,126)"/>
<path d="M0 0 C0.69867188 0.144375 1.39734375 0.28875 2.1171875 0.4375 C3.02726563 0.623125 3.93734375 0.80875 4.875 1 C5.77992188 1.185625 6.68484375 1.37125 7.6171875 1.5625 C9.92407903 2.06019595 9.92407903 2.06019595 12 2 C12 2.66 12 3.32 12 4 C12.66 4.66 13.32 5.32 14 6 C8.29290936 5.53411505 4.84060277 4.06242216 0 1 C0 0.67 0 0.34 0 0 Z " fill="#5E69C4" transform="translate(246,186)"/>
<path d="M0 0 C0.33 0.99 0.66 1.98 1 3 C-1 4 -1 4 -3 5 C-3.639375 5.391875 -4.27875 5.78375 -4.9375 6.1875 C-7.61798826 7.24344992 -9.27167933 6.75786685 -12 6 C-12 5.67 -12 5.34 -12 5 C-9.36 4.67 -6.72 4.34 -4 4 C-4 3.34 -4 2.68 -4 2 C-2.68 1.34 -1.36 0.68 0 0 Z " fill="#5A76D3" transform="translate(282,178)"/>
<path d="M0 0 C2 4 2 4 1.125 7.25 C0.75375 8.1575 0.3825 9.065 0 10 C-1.32 9.67 -2.64 9.34 -4 9 C-2.68 6.03 -1.36 3.06 0 0 Z " fill="#5E96D8" transform="translate(51,91)"/>
<path d="M0 0 C1.65 0 3.3 0 5 0 C5.12375 0.639375 5.2475 1.27875 5.375 1.9375 C5.684375 2.9584375 5.684375 2.9584375 6 4 C6.66 4.33 7.32 4.66 8 5 C6.02 5 4.04 5 2 5 C1.34 3.35 0.68 1.7 0 0 Z " fill="#5868D5" transform="translate(246,145)"/>
<path d="M0 0 C4.75 0.875 4.75 0.875 7 2 C7 2.66 7 3.32 7 4 C8.98 4 10.96 4 13 4 C12.67 5.32 12.34 6.64 12 8 C9.99743426 6.85865673 7.99800203 5.71181367 6 4.5625 C4.88625 3.92441406 3.7725 3.28632813 2.625 2.62890625 C1.75875 2.09136719 0.8925 1.55382812 0 1 C0 0.67 0 0.34 0 0 Z " fill="#5C72BE" transform="translate(61,192)"/>
<path d="M0 0 C0.67578125 1.734375 0.67578125 1.734375 1 4 C-0.14453125 6.140625 -0.14453125 6.140625 -1.8125 8.25 C-2.35519531 8.95640625 -2.89789063 9.6628125 -3.45703125 10.390625 C-3.96621094 10.92171875 -4.47539063 11.4528125 -5 12 C-5.66 12 -6.32 12 -7 12 C-5.44298069 7.32894208 -2.91552627 3.91294315 0 0 Z " fill="#B1D9FD" transform="translate(83,186)"/>
<path d="M0 0 C3.3 0 6.6 0 10 0 C8 2 8 2 5.4375 2.5 C4.633125 2.665 3.82875 2.83 3 3 C2.67 3.66 2.34 4.32 2 5 C1.34 5 0.68 5 0 5 C0 3.35 0 1.7 0 0 Z " fill="#5046D6" transform="translate(169,114)"/>
<path d="M0 0 C0.66 0.33 1.32 0.66 2 1 C2 1.66 2 2.32 2 3 C1.34 3 0.68 3 0 3 C0.33 4.98 0.66 6.96 1 9 C-0.65 8.67 -2.3 8.34 -4 8 C-4 6 -4 6 -2 4 C-1.30251417 2.68252676 -0.63040043 1.35085807 0 0 Z " fill="#6697F1" transform="translate(62,79)"/>
<path d="M0 0 C0.66 0.33 1.32 0.66 2 1 C2.17835515 5.54805635 1.99785435 8.8794254 0 13 C-0.33 13 -0.66 13 -1 13 C-1.07654536 8.48382401 -1.10228696 4.40914783 0 0 Z " fill="#6EABFA" transform="translate(79,170)"/>
<path d="M0 0 C0.33 0 0.66 0 1 0 C1.144375 1.11375 1.28875 2.2275 1.4375 3.375 C1.78372035 6.82142047 1.78372035 6.82142047 3 9 C1.68 10.32 0.36 11.64 -1 13 C-1.66 12.67 -2.32 12.34 -3 12 C-2.690625 11.505 -2.38125 11.01 -2.0625 10.5 C-0.58355618 7.02013219 -0.37597149 3.75971491 0 0 Z " fill="#5A77C1" transform="translate(286,165)"/>
<path d="M0 0 C1.15957207 3.47871621 0.77456651 4.34219645 -0.4375 7.6875 C-0.86869141 8.89986328 -0.86869141 8.89986328 -1.30859375 10.13671875 C-1.53675781 10.75160156 -1.76492188 11.36648437 -2 12 C-2.66 11.34 -3.32 10.68 -4 10 C-3.63723355 7.17042171 -2.90305236 4.70915709 -2 2 C-1.34 2 -0.68 2 0 2 C0 1.34 0 0.68 0 0 Z " fill="#5D85CB" transform="translate(330,138)"/>
<path d="M0 0 C0.33 0 0.66 0 1 0 C1.33 3.63 1.66 7.26 2 11 C1.34 11 0.68 11 0 11 C-1.16461426 7.50615721 -1.13568319 4.66344611 -1 1 C-0.67 0.67 -0.34 0.34 0 0 Z " fill="#2979D2" transform="translate(71,170)"/>
<path d="M0 0 C0.33 0 0.66 0 1 0 C0.88512252 1.58409994 0.75765492 3.16728963 0.625 4.75 C0.52058594 6.07257813 0.52058594 6.07257813 0.4140625 7.421875 C0.00149945 9.99066382 -0.71160957 11.75841015 -2 14 C-3.55955444 10.88089111 -2.62673502 8.36157873 -2 5 C-0.9375 2.0625 -0.9375 2.0625 0 0 Z " fill="#5F7AC1" transform="translate(297,166)"/>
<path d="M0 0 C1.98 0 3.96 0 6 0 C6.33 1.65 6.66 3.3 7 5 C6.01 5 5.02 5 4 5 C3.67 4.01 3.34 3.02 3 2 C2.01 2 1.02 2 0 2 C0 1.34 0 0.68 0 0 Z " fill="#606DC1" transform="translate(240,167)"/>
<path d="M0 0 C0.66 0.66 1.32 1.32 2 2 C1.59007813 2.47050781 1.18015625 2.94101563 0.7578125 3.42578125 C0.21898438 4.04839844 -0.31984375 4.67101562 -0.875 5.3125 C-1.40867187 5.92738281 -1.94234375 6.54226562 -2.4921875 7.17578125 C-4.1640447 9.13498212 -4.1640447 9.13498212 -6 12 C-5.54300722 6.97307937 -3.00758252 3.85103739 0 0 Z " fill="#A2B7FC" transform="translate(100,118)"/>
<path d="M0 0 C0.66 0.33 1.32 0.66 2 1 C2 2.32 2 3.64 2 5 C2.66 5 3.32 5 4 5 C3.67 5.66 3.34 6.32 3 7 C1.35 6.67 -0.3 6.34 -2 6 C-2 4.68 -2 3.36 -2 2 C-1.34 2 -0.68 2 0 2 C0 1.34 0 0.68 0 0 Z " fill="#6267DC" transform="translate(43,112)"/>
<path d="M0 0 C0.33 0 0.66 0 1 0 C0.67 4.29 0.34 8.58 0 13 C-0.99 13 -1.98 13 -3 13 C-2.45144652 8.428721 -1.58255197 4.32564205 0 0 Z " fill="#5E7BC2" transform="translate(306,178)"/>
<path d="M0 0 C2.26562673 2.26562673 2.94462749 3.84160705 3.09765625 7.04296875 C3.06510417 9.02864583 3.03255208 11.01432292 3 13 C1.32889958 10.03821227 0.67317248 7.62928808 0.375 4.25 C0.30023438 3.45078125 0.22546875 2.6515625 0.1484375 1.828125 C0.09945312 1.22484375 0.05046875 0.6215625 0 0 Z " fill="#5165D1" transform="translate(63,154)"/>
<path d="M0 0 C-1 2 -1 2 -2.84765625 2.6328125 C-3.57855469 2.79523438 -4.30945313 2.95765625 -5.0625 3.125 C-5.79597656 3.29257813 -6.52945312 3.46015625 -7.28515625 3.6328125 C-7.85105469 3.75398438 -8.41695312 3.87515625 -9 4 C-9 3.01 -9 2.02 -9 1 C-3.375 -1.125 -3.375 -1.125 0 0 Z " fill="#4D60C4" transform="translate(263,119)"/>
<path d="M0 0 C0.99 0 1.98 0 3 0 C4.4783226 2.95664519 4.06032783 5.74229737 4 9 C3.67 8.01 3.34 7.02 3 6 C2.34 6 1.68 6 1 6 C0.67 4.02 0.34 2.04 0 0 Z " fill="#658ED8" transform="translate(341,112)"/>
<path d="M0 0 C0.53625 0.2475 1.0725 0.495 1.625 0.75 C-3.125 3.75 -3.125 3.75 -5.375 3.75 C-5.705 4.74 -6.035 5.73 -6.375 6.75 C-7.035 6.42 -7.695 6.09 -8.375 5.75 C-8.375 5.09 -8.375 4.43 -8.375 3.75 C-3.23290173 -0.34030544 -3.23290173 -0.34030544 0 0 Z " fill="#D3CFF1" transform="translate(121.375,100.25)"/>
<path d="M0 0 C0.66 1.32 1.32 2.64 2 4 C-1.45245824 6.30163882 -2.94738713 6.34490322 -7 6 C-7.66 5.34 -8.32 4.68 -9 4 C-6 3 -6 3 -3 4 C-2.01 4 -1.02 4 0 4 C0 2.68 0 1.36 0 0 Z " fill="#6080BC" transform="translate(368,186)"/>
<path d="M0 0 C3.93846154 3.32307692 3.93846154 3.32307692 4.25 6.75 C4.1675 7.4925 4.085 8.235 4 9 C3.01 8.67 2.02 8.34 1 8 C1 6.68 1 5.36 1 4 C0.34 3.34 -0.32 2.68 -1 2 C-0.67 1.34 -0.34 0.68 0 0 Z " fill="#5777E8" transform="translate(291,124)"/>
<path d="M0 0 C2.66735273 2.48952921 4.55746343 4.63408134 6 8 C4.68 7.67 3.36 7.34 2 7 C2 6.34 2 5.68 2 5 C1.34 5 0.68 5 0 5 C0 3.35 0 1.7 0 0 Z " fill="#5F7CEF" transform="translate(66,189)"/>
<path d="M0 0 C0.99 0.33 1.98 0.66 3 1 C3 1.66 3 2.32 3 3 C0.69 3.66 -1.62 4.32 -4 5 C-4 4.34 -4 3.68 -4 3 C-3.34 3 -2.68 3 -2 3 C-2 2.34 -2 1.68 -2 1 C-1.34 0.67 -0.68 0.34 0 0 Z " fill="#5774D0" transform="translate(283,186)"/>
<path d="M0 0 C2.375 1.0625 2.375 1.0625 5 3 C6.3125 6.6875 6.3125 6.6875 7 10 C3.01338914 7.34225943 1.50027477 4.50082432 0 0 Z " fill="#5464D8" transform="translate(58,175)"/>
<path d="M0 0 C4.95 0.99 4.95 0.99 10 2 C10 2.33 10 2.66 10 3 C2.25 3.125 2.25 3.125 0 2 C0 1.34 0 0.68 0 0 Z " fill="#6276C6" transform="translate(258,142)"/>
<path d="M0 0 C1.45947705 0.06006078 2.91779272 0.1488689 4.375 0.25 C5.59316406 0.31960937 5.59316406 0.31960937 6.8359375 0.390625 C9 1 9 1 10.2890625 3.046875 C10.64097656 4.01367188 10.64097656 4.01367188 11 5 C9.53932801 4.54917531 8.08151968 4.08906463 6.625 3.625 C5.81289063 3.36976562 5.00078125 3.11453125 4.1640625 2.8515625 C2 2 2 2 0 0 Z " fill="#687ED9" transform="translate(274,112)"/>
<path d="M0 0 C1.2077558 3.62326739 0.54311128 4.64146369 -1 8 C-1.99 7.67 -2.98 7.34 -4 7 C-3.39816251 4.97954558 -2.72693904 2.97888961 -2 1 C-1.34 0.67 -0.68 0.34 0 0 Z " fill="#80AFE9" transform="translate(77,192)"/>
<path d="M0 0 C2.64 0 5.28 0 8 0 C8 0.99 8 1.98 8 3 C5.36 2.67 2.72 2.34 0 2 C0 1.34 0 0.68 0 0 Z " fill="#F4F4F4" transform="translate(549,128)"/>
<path d="M0 0 C3 1 3 1 4.1875 3.0625 C4.455625 3.701875 4.72375 4.34125 5 5 C4.01 5.33 3.02 5.66 2 6 C1.01 4.35 0.02 2.7 -1 1 C-0.67 0.67 -0.34 0.34 0 0 Z " fill="#94ADF9" transform="translate(73,66)"/>
</svg>
